SplineFontDB: 3.0
FontName: DaddyTimeMono
FullName: DaddyTimeMono
FamilyName: DaddyTimeMono
Weight: Book
Copyright: Copyright (C) 2017-2018 Jason Stewart, All Rights Reserved
UComments: "2018-1-11: Created." 
Version: 1.0062
ItalicAngle: 0
UnderlinePosition: -147
UnderlineWidth: 74
Ascent: 812
Descent: 212
LayerCount: 2
Layer: 0 1 "Back"  1
Layer: 1 1 "Fore"  0
XUID: [1021 355 1717067722 2244829]
FSType: 0
OS2Version: 4
OS2_WeightWidthSlopeOnly: 0
OS2_UseTypoMetrics: 1
CreationTime: 1515680211
ModificationTime: 1521562877
PfmFamily: 49
TTFWeight: 400
TTFWidth: 5
LineGap: 59
VLineGap: 0
Panose: 0 0 5 9 0 0 0 0 0 0
OS2TypoAscent: 876
OS2TypoAOffset: 0
OS2TypoDescent: -276
OS2TypoDOffset: 0
OS2TypoLinegap: 0
OS2WinAscent: 876
OS2WinAOffset: 0
OS2WinDescent: 276
OS2WinDOffset: 0
HheadAscent: 876
HheadAOffset: 0
HheadDescent: -217
HheadDOffset: 0
OS2Vendor: 'EGSD'
MarkAttachClasses: 1
DEI: 91125
ShortTable: maxp 16
  0
  0
  0
  0
  0
  0
  0
  2
  1
  2
  22
  0
  256
  0
  0
  0
EndShort
TtTable: prep
PUSHW_1
 511
SCANCTRL
PUSHB_1
 1
SCANTYPE
SVTCA[y-axis]
MPPEM
PUSHB_1
 8
LT
IF
PUSHB_2
 1
 1
INSTCTRL
EIF
PUSHB_2
 70
 6
CALL
IF
POP
PUSHB_1
 16
EIF
MPPEM
PUSHB_1
 20
GT
IF
POP
PUSHB_1
 128
EIF
SCVTCI
PUSHB_1
 6
CALL
NOT
IF
SVTCA[y-axis]
PUSHB_1
 3
DUP
RCVT
PUSHB_1
 3
CALL
WCVTP
SVTCA[x-axis]
PUSHB_1
 4
DUP
RCVT
PUSHB_1
 3
CALL
WCVTP
EIF
PUSHB_1
 20
CALL
EndTTInstrs
TtTable: fpgm
PUSHB_1
 0
FDEF
PUSHB_1
 0
SZP0
MPPEM
PUSHB_1
 42
LT
IF
PUSHB_1
 74
SROUND
EIF
PUSHB_1
 0
SWAP
MIAP[rnd]
RTG
PUSHB_1
 6
CALL
IF
RTDG
EIF
MPPEM
PUSHB_1
 42
LT
IF
RDTG
EIF
DUP
MDRP[rp0,rnd,grey]
PUSHB_1
 1
SZP0
MDAP[no-rnd]
RTG
ENDF
PUSHB_1
 1
FDEF
DUP
MDRP[rp0,min,white]
PUSHB_1
 12
CALL
ENDF
PUSHB_1
 2
FDEF
MPPEM
GT
IF
RCVT
SWAP
EIF
POP
ENDF
PUSHB_1
 3
FDEF
ROUND[Black]
RTG
DUP
PUSHB_1
 64
LT
IF
POP
PUSHB_1
 64
EIF
ENDF
PUSHB_1
 4
FDEF
PUSHB_1
 6
CALL
IF
POP
SWAP
POP
ROFF
IF
MDRP[rp0,min,rnd,black]
ELSE
MDRP[min,rnd,black]
EIF
ELSE
MPPEM
GT
IF
IF
MIRP[rp0,min,rnd,black]
ELSE
MIRP[min,rnd,black]

StartChar: C
Encoding: 67 67 0
Width: 588
VWidth: 0
Flags: MW
LayerCount: 2
Fore
SplineSet
497 742 m 5,0,-1
 541 670 l 5,1,-1
 316 670 l 6,2,3
 249 670 249 670 189 587.5 c 132,-1,4
 129 505 129 505 129 406 c 4,5,6
 129 277 129 277 195.5 175.5 c 132,-1,7
 262 74 262 74 347 74 c 6,8,-1
 497 74 l 5,9,-1
 541 0 l 5,10,-1
 360 0 l 6,11,12
 223 0 223 0 135 115 c 132,-1,13
 47 230 47 230 47 406 c 4,14,15
 47 483 47 483 81 560.5 c 132,-1,16
 115 638 115 638 175.5 690 c 132,-1,17
 236 742 236 742 303 742 c 6,18,-1
 497 742 l 5,0,-1
EndSplineSet
Validated: 3073
EndChar

StartChar: D
Encoding: 68 68 1
Width: 588
VWidth: 0
Flags: MW
LayerCount: 2
Fore
SplineSet
339 742 m 2,0,1
 375 742 375 742 421 694 c 128,-1,2
 467 646 467 646 499 583 c 0,3,4
 547 488 547 488 547 353 c 0,5,6
 547 230 547 230 489 131 c 0,7,8
 460 82 460 82 411.5 41 c 128,-1,9
 363 0 363 0 339 0 c 2,10,-1
 42 0 l 1,11,-1
 42 742 l 1,12,-1
 339 742 l 2,0,1
465 353 m 0,13,14
 465 463 465 463 426 539 c 0,15,16
 399 591 399 591 364 630.5 c 128,-1,17
 329 670 329 670 301 670 c 2,18,-1
 124 670 l 1,19,-1
 124 74 l 1,20,-1
 301 74 l 2,21,22
 320 74 320 74 357 110 c 128,-1,23
 394 146 394 146 419 187 c 0,24,25
 465 265 465 265 465 353 c 0,13,14
EndSplineSet
Validated: 3073
EndChar

StartChar: zero
Encoding: 48 48 2
Width: 588
VWidth: 0
Flags: MW
LayerCount: 2
Fore
SplineSet
530 749 m 1,0,-1
 468 629 l 1,1,2
 536 516 536 516 536 373 c 0,3,4
 536 276 536 276 510.5 192 c 128,-1,5
 485 108 485 108 428.5 51 c 128,-1,6
 372 -6 372 -6 295 -6 c 0,7,8
 222 -6 222 -6 161 57 c 1,9,-1
 124 0 l 1,10,-1
 43 0 l 1,11,-1
 113 120 l 1,12,13
 54 225 54 225 54 373 c 0,14,15
 54 472 54 472 78.5 555 c 128,-1,16
 103 638 103 638 159.5 693.5 c 128,-1,17
 216 749 216 749 295 749 c 0,18,19
 361 749 361 749 422 690 c 1,20,-1
 450 749 l 1,21,-1
 530 749 l 1,0,-1
295 675 m 0,22,23
 251 675 251 675 218.5 648 c 128,-1,24
 186 621 186 621 169 575.5 c 128,-1,25
 152 530 152 530 144 480 c 128,-1,26
 136 430 136 430 136 373 c 0,27,28
 136 273 136 273 161 204 c 1,29,-1
 380 618 l 1,30,31
 345 675 345 675 295 675 c 0,22,23
201 129 m 1,32,33
 218 108 218 108 228.5 97.5 c 128,-1,34
 239 87 239 87 257 77.5 c 128,-1,35
 275 68 275 68 295 68 c 0,36,37
 338 68 338 68 370.5 95.5 c 128,-1,38
 403 123 403 123 420.5 169.5 c 128,-1,39
 438 216 438 216 446 266.5 c 128,-1,40
 454 317 454 317 454 373 c 0,41,42
 454 466 454 466 422 547 c 1,43,-1
 201 129 l 1,32,33
EndSplineSet
Validated: 3073
EndChar

StartChar: one
Encoding: 49 49 3
Width: 588
VWidth: 0
Flags: MW
LayerCount: 2
Fore
SplineSet
336 742 m 25,0,-1
 336 0 l 1,1,-1
 254 0 l 1,2,-1
 254 568 l 1,3,-1
 170 568 l 1,4,-1
 275 742 l 1,5,-1
 336 742 l 25,0,-1
EndSplineSet
Validated: 3073
EndChar

StartChar: slash
Encoding: 47 47 4
Width: 588
VWidth: 0
Flags: MW
LayerCount: 2
Fore
SplineSet
536 819 m 25,0,-1
 135 -77 l 1,1,-1
 53 -77 l 1,2,-1
 454 819 l 1,3,-1
 536 819 l 25,0,-1
EndSplineSet
Validated: 3073
EndChar

StartChar: exclam
Encoding: 33 33 5
Width: 588
VWidth: 0
Flags: MW
LayerCount: 2
Fore
SplineSet
295 126 m 24,0,1
 324 126 324 126 345.5 106.5 c 128,-1,2
 367 87 367 87 367 59 c 128,-1,3
 367 31 367 31 345.5 12.5 c 128,-1,4
 324 -6 324 -6 295 -6 c 0,5,6
 265 -6 265 -6 243 12.5 c 128,-1,7
 221 31 221 31 221 59 c 0,8,9
 221 88 221 88 243 107 c 128,-1,10
 265 126 265 126 295 126 c 24,0,1
295 749 m 128,-1,12
 317 749 317 749 336.5 741.5 c 128,-1,13
 356 734 356 734 356 722 c 0,14,15
 356 659 356 659 345.5 464 c 128,-1,16
 335 269 335 269 335 206 c 0,17,18
 335 180 335 180 295 180 c 0,19,20
 253 180 253 180 253 206 c 0,21,22
 253 269 253 269 242 464 c 128,-1,23
 231 659 231 659 231 722 c 0,24,25
 231 734 231 734 252 741.5 c 128,-1,11
 273 749 273 749 295 749 c 128,-1,12
EndSplineSet
Validated: 3073
EndChar

StartChar: quotedbl
Encoding: 34 34 6
Width: 588
VWidth: 0
Flags: MW
LayerCount: 2
Fore
SplineSet
411 799 m 128,-1,1
 434 799 434 799 451 785 c 128,-1,2
 468 771 468 771 468 753 c 0,3,4
 468 727 468 727 464 679 c 128,-1,5
 460 631 460 631 446 574.5 c 128,-1,6
 432 518 432 518 411 518 c 0,7,8
 395 518 395 518 383 549.5 c 128,-1,9
 371 581 371 581 365.5 625.5 c 128,-1,10
 360 670 360 670 357.5 703 c 128,-1,11
 355 736 355 736 355 753 c 0,12,13
 355 771 355 771 371.5 785 c 128,-1,0
 388 799 388 799 411 799 c 128,-1,1
176 799 m 128,-1,15
 199 799 199 799 216 785 c 128,-1,16
 233 771 233 771 233 753 c 0,17,18
 233 727 233 727 229 679 c 128,-1,19
 225 631 225 631 211 574.5 c 128,-1,20
 197 518 197 518 176 518 c 0,21,22
 160 518 160 518 148 549.5 c 128,-1,23
 136 581 136 581 130.5 626 c 128,-1,24
 125 671 125 671 123 703 c 128,-1,25
 121 735 121 735 121 753 c 128,-1,26
 121 771 121 771 137 785 c 128,-1,14
 153 799 153 799 176 799 c 128,-1,15
EndSplineSet
Validated: 3073
EndChar

StartChar: numbersign
Encoding: 35 35 7
Width: 588
VWidth: 0
Flags: MW
LayerCount: 2
Fore
SplineSet
402 158 m 1,0,-1
 385 44 l 1,1,-1
 308 44 l 1,2,-1
 324 158 l 1,3,-1
 195 158 l 1,4,-1
 176 44 l 1,5,-1
 97 44 l 1,6,-1
 116 158 l 1,7,-1
 36 158 l 1,8,-1
 45 228 l 1,9,-1
 126 228 l 1,10,-1
 161 439 l 1,11,-1
 65 439 l 1,12,-1
 74 509 l 1,13,-1
 170 509 l 1,14,-1
 185 622 l 1,15,-1
 262 622 l 1,16,-1
 249 509 l 1,17,-1
 378 509 l 1,18,-1
 393 622 l 1,19,-1
 470 622 l 1,20,-1
 457 509 l 1,21,-1
 554 509 l 1,22,-1
 543 439 l 1,23,-1
 446 439 l 1,24,-1
 411 228 l 1,25,-1
 525 228 l 1,26,-1
 514 158 l 1,27,-1
 402 158 l 1,0,-1
335 228 m 1,28,-1
 370 439 l 1,29,-1
 238 439 l 1,30,-1
 203 228 l 1,31,-1
 335 228 l 1,28,-1
EndSplineSet
Validated: 3073
EndChar

StartChar: dollar
Encoding: 36 36 8
Width: 588
VWidth: 0
Flags: MW
LayerCount: 2
Fore
SplineSet
503 741 m 1,0,-1
 547 669 l 1,1,-1
 335 669 l 1,2,-1
 335 453 l 1,3,4
 435 453 435 453 491 389 c 128,-1,5
 547 325 547 325 547 228 c 128,-1,6
 547 131 547 131 490.5 65.5 c 128,-1,7
 434 0 434 0 335 0 c 1,8,-1
 335 -88 l 1,9,-1
 253 -88 l 1,10,-1
 253 0 l 1,11,-1
 42 0 l 1,12,-1
 86 74 l 1,13,-1
 253 74 l 1,14,-1
 253 379 l 1,15,16
 167 379 167 379 104.5 428 c 128,-1,17
 42 477 42 477 42 560 c 128,-1,18
 42 643 42 643 104.5 691 c 128,-1,19
 167 739 167 739 253 739 c 1,20,-1
 253 819 l 1,21,-1
 335 819 l 1,22,-1
 335 741 l 1,23,-1
 503 741 l 1,0,-1
253 669 m 1,24,25
 194 669 194 669 159 641.5 c 128,-1,26
 124 614 124 614 124 561 c 128,-1,27
 124 508 124 508 159 480.5 c 128,-1,28
 194 453 194 453 253 453 c 1,29,-1
 253 669 l 1,24,25
335 78 m 1,30,31
 400 78 400 78 432.5 120 c 128,-1,32
 465 162 465 162 465 228 c 0,33,34
 465 295 465 295 433 337 c 128,-1,35
 401 379 401 379 335 379 c 1,36,-1
 335 78 l 1,30,31
EndSplineSet
Validated: 3073
EndChar

StartChar: percent
Encoding: 37 37 9
Width: 588
VWidth: 0
Flags: MW
LayerCount: 2
Fore
SplineSet
420 231 m 128,-1,1
 402 231 402 231 390.5 223 c 128,-1,2
 379 215 379 215 374.5 197.5 c 128,-1,3
 370 180 370 180 369 167.5 c 128,-1,4
 368 155 368 155 368 133 c 128,-1,5
 368 111 368 111 369 99 c 128,-1,6
 370 87 370 87 374.5 69.5 c 128,-1,7
 379 52 379 52 390.5 44 c 128,-1,8
 402 36 402 36 420 36 c 128,-1,9
 438 36 438 36 449.5 44 c 128,-1,10
 461 52 461 52 465.5 69.5 c 128,-1,11
 470 87 470 87 471 99 c 128,-1,12
 472 111 472 111 472 133 c 128,-1,13
 472 155 472 155 471 167.5 c 128,-1,14
 470 180 470 180 465.5 197.5 c 128,-1,15
 461 215 461 215 449.5 223 c 128,-1,0
 438 231 438 231 420 231 c 128,-1,1
420 272 m 128,-1,17
 472 272 472 272 505.5 230 c 128,-1,18
 539 188 539 188 539 133 c 128,-1,19
 539 78 539 78 505.5 36 c 128,-1,20
 472 -6 472 -6 420 -6 c 128,-1,21
 368 -6 368 -6 334.5 36 c 128,-1,22
 301 78 301 78 301 133 c 128,-1,23
 301 188 301 188 334.5 230 c 128,-1,16
 368 272 368 272 420 272 c 128,-1,17
539 678 m 25,24,-1
 137 0 l 1,25,-1
 56 0 l 1,26,-1
 455 678 l 1,27,-1
 539 678 l 25,24,-1
170 641 m 128,-1,29
 152 641 152 641 140.5 633 c 128,-1,30
 129 625 129 625 124.5 607.5 c 128,-1,31
 120 590 120 590 119 578 c 128,-1,32
 118 566 118 566 118 544 c 128,-1,33
 118 522 118 522 119 509.5 c 128,-1,34
 120 497 120 497 124.5 479.5 c 128,-1,35
 129 462 129 462 140.5 454 c 128,-1,36
 152 446 152 446 170 446 c 128,-1,37
 188 446 188 446 199.5 454 c 128,-1,38
 211 462 211 462 215.5 479.5 c 128,-1,39
 220 497 220 497 221 509.5 c 128,-1,40
 222 522 222 522 222 544 c 128,-1,41
 222 566 222 566 221 578 c 128,-1,42
 220 590 220 590 215.5 607.5 c 128,-1,43
 211 625 211 625 199.5 633 c 128,-1,28
 188 641 188 641 170 641 c 128,-1,29
170 684 m 128,-1,45
 222 684 222 684 255.5 641.5 c 128,-1,46
 289 599 289 599 289 544 c 128,-1,47
 289 489 289 489 255.5 446.5 c 128,-1,48
 222 404 222 404 170 404 c 128,-1,49
 118 404 118 404 84.5 446.5 c 128,-1,50
 51 489 51 489 51 544 c 128,-1,51
 51 599 51 599 84.5 641.5 c 128,-1,44
 118 684 118 684 170 684 c 128,-1,45
EndSplineSet
Validated: 3073
EndChar

StartChar: ampersand
Encoding: 38 38 10
Width: 588
VWidth: 0
Flags: MW
LayerCount: 2
Fore
SplineSet
292 742 m 0,0,1
 361 742 361 742 408.5 686 c 128,-1,2
 456 630 456 630 456 575 c 0,3,4
 456 463 456 463 345 368 c 1,5,6
 375 337 375 337 393 307.5 c 128,-1,7
 411 278 411 278 417 259.5 c 128,-1,8
 423 241 423 241 433 201 c 1,9,10
 443 215 443 215 449.5 223.5 c 128,-1,11
 456 232 456 232 463.5 239 c 128,-1,12
 471 246 471 246 473.5 249.5 c 128,-1,13
 476 253 476 253 483.5 257 c 128,-1,14
 491 261 491 261 492.5 261.5 c 128,-1,15
 494 262 494 262 505 266 c 128,-1,16
 516 270 516 270 519 271 c 1,17,-1
 554 209 l 1,18,19
 523 208 523 208 491.5 184.5 c 128,-1,20
 460 161 460 161 459 136 c 1,21,22
 493 76 493 76 554 75 c 1,23,-1
 480 -1 l 1,24,25
 448 24 448 24 435 38.5 c 128,-1,26
 422 53 422 53 406 83 c 1,27,28
 397 76 397 76 378.5 61 c 128,-1,29
 360 46 360 46 351 39 c 128,-1,30
 342 32 342 32 323.5 21.5 c 128,-1,31
 305 11 305 11 289.5 6.5 c 128,-1,32
 274 2 274 2 250.5 -2 c 128,-1,33
 227 -6 227 -6 199 -6 c 0,34,35
 151 -6 151 -6 93 58 c 128,-1,36
 35 122 35 122 35 181 c 0,37,38
 36 241 36 241 73 288 c 128,-1,39
 110 335 110 335 221 391 c 1,40,41
 176 426 176 426 150.5 484 c 128,-1,42
 125 542 125 542 125 578 c 0,43,44
 125 644 125 644 177 693 c 128,-1,45
 229 742 229 742 292 742 c 0,0,1
294 673 m 0,46,47
 262 673 262 673 233 647 c 128,-1,48
 204 621 204 621 204 578 c 0,49,50
 204 541 204 541 218 510.5 c 128,-1,51
 232 480 232 480 248 463 c 128,-1,52
 264 446 264 446 292 424 c 1,53,54
 330 444 330 444 353.5 487.5 c 128,-1,55
 377 531 377 531 381 575 c 1,56,57
 381 614 381 614 351 643.5 c 128,-1,58
 321 673 321 673 294 673 c 0,46,47
270 335 m 1,59,60
 246 318 246 318 211 301.5 c 128,-1,61
 176 285 176 285 159 275.5 c 128,-1,62
 142 266 142 266 128 242.5 c 128,-1,63
 114 219 114 219 114 181 c 0,64,65
 114 145 114 145 149.5 105.5 c 128,-1,66
 185 66 185 66 220 66 c 0,67,68
 247 66 247 66 268.5 72.5 c 128,-1,69
 290 79 290 79 311 97 c 128,-1,70
 332 115 332 115 340 123 c 128,-1,71
 348 131 348 131 371 157 c 1,72,73
 355 224 355 224 333 266.5 c 128,-1,74
 311 309 311 309 270 335 c 1,59,60
EndSplineSet
Validated: 3073
EndChar

StartChar: quotesingle
Encoding: 39 39 11
Width: 588
VWidth: 0
Flags: MW
LayerCount: 2
Fore
SplineSet
293 799 m 128,-1,1
 316 799 316 799 333 785 c 128,-1,2
 350 771 350 771 350 753 c 0,3,4
 350 727 350 727 346 679 c 128,-1,5
 342 631 342 631 328 574.5 c 128,-1,6
 314 518 314 518 293 518 c 0,7,8
 277 518 277 518 265 549.5 c 128,-1,9
 253 581 253 581 247.5 626 c 128,-1,10
 242 671 242 671 240 703 c 128,-1,11
 238 735 238 735 238 753 c 128,-1,12
 238 771 238 771 254 785 c 128,-1,0
 270 799 270 799 293 799 c 128,-1,1
EndSplineSet
Validated: 3073
EndChar

StartChar: parenleft
Encoding: 40 40 12
Width: 588
VWidth: 0
Flags: MW
LayerCount: 2
Fore
SplineSet
416 819 m 9,0,-1
 416 737 l 1,1,2
 274 737 274 737 274 365 c 0,3,4
 274 -6 274 -6 416 -6 c 1,5,-1
 416 -88 l 1,6,7
 193 -88 193 -88 193 365 c 0,8,9
 193 413 193 413 194.5 453 c 128,-1,10
 196 493 196 493 201.5 541.5 c 128,-1,11
 207 590 207 590 216.5 627.5 c 128,-1,12
 226 665 226 665 243 702.5 c 128,-1,13
 260 740 260 740 283 764.5 c 128,-1,14
 306 789 306 789 340 804 c 128,-1,15
 374 819 374 819 416 819 c 9,0,-1
EndSplineSet
Validated: 3073
EndChar

StartChar: parenright
Encoding: 41 41 13
Width: 588
VWidth: 0
Flags: MW
LayerCount: 2
Fore
SplineSet
173 819 m 17,0,1
 215 819 215 819 249 804 c 128,-1,2
 283 789 283 789 306 764.5 c 128,-1,3
 329 740 329 740 346 702.5 c 128,-1,4
 363 665 363 665 372.5 627.5 c 128,-1,5
 382 590 382 590 387.5 541.5 c 128,-1,6
 393 493 393 493 394.5 453 c 128,-1,7
 396 413 396 413 396 365 c 0,8,9
 396 -88 396 -88 173 -88 c 1,10,-1
 173 -6 l 1,11,12
 314 -6 314 -6 314 365 c 0,13,14
 314 737 314 737 173 737 c 1,15,-1
 173 819 l 17,0,1
EndSplineSet
Validated: 3073
EndChar

StartChar: asterisk
Encoding: 42 42 14
Width: 588
VWidth: 0
Flags: MW
LayerCount: 2
Fore
SplineSet
352 742 m 1,0,-1
 322 612 l 1,1,-1
 449 683 l 1,2,-1
 481 592 l 1,3,-1
 339 569 l 1,4,-1
 453 467 l 1,5,-1
 372 414 l 1,6,-1
 295 539 l 1,7,-1
 218 414 l 1,8,-1
 135 467 l 1,9,-1
 251 569 l 1,10,-1
 109 592 l 1,11,-1
 139 683 l 1,12,-1
 268 612 l 1,13,-1
 236 742 l 1,14,-1
 352 742 l 1,0,-1
EndSplineSet
Validated: 3073
EndChar

StartChar: plus
Encoding: 43 43 15
Width: 588
VWidth: 0
Flags: MW
LayerCount: 2
Fore
SplineSet
295 587 m 128,-1,1
 336 587 336 587 336 559 c 2,2,-1
 336 397 l 1,3,-1
 495 397 l 2,4,5
 509 397 509 397 517 385.5 c 128,-1,6
 525 374 525 374 525 356 c 128,-1,7
 525 338 525 338 517 326.5 c 128,-1,8
 509 315 509 315 495 315 c 2,9,-1
 336 315 l 1,10,-1
 336 157 l 2,11,12
 336 143 336 143 324.5 134.5 c 128,-1,13
 313 126 313 126 295 126 c 128,-1,14
 277 126 277 126 265.5 134.5 c 128,-1,15
 254 143 254 143 254 157 c 2,16,-1
 254 315 l 1,17,-1
 92 315 l 2,18,19
 65 315 65 315 65 356 c 128,-1,20
 65 397 65 397 92 397 c 2,21,-1
 254 397 l 1,22,-1
 254 559 l 2,23,0
 254 587 254 587 295 587 c 128,-1,1
EndSplineSet
Validated: 3073
EndChar

StartChar: comma
Encoding: 44 44 16
Width: 588
VWidth: 0
Flags: MW
LayerCount: 2
Fore
SplineSet
297 130 m 0,0,1
 325 130 325 130 347 110.5 c 128,-1,2
 369 91 369 91 369 61 c 0,3,4
 368 25 368 25 356 -16.5 c 128,-1,5
 344 -58 344 -58 314 -93.5 c 128,-1,6
 284 -129 284 -129 243 -129 c 0,7,8
 231 -129 231 -129 231 -119 c 0,9,10
 231 -114 231 -114 240.5 -107 c 128,-1,11
 250 -100 250 -100 263 -91.5 c 128,-1,12
 276 -83 276 -83 292 -57.5 c 128,-1,13
 308 -32 308 -32 319 6 c 1,14,15
 313 -6 313 -6 287 -6 c 0,16,17
 264 -6 264 -6 243.5 13.5 c 128,-1,18
 223 33 223 33 223 61 c 0,19,20
 223 86 223 86 244 108 c 128,-1,21
 265 130 265 130 297 130 c 0,0,1
EndSplineSet
Validated: 3073
EndChar

StartChar: hyphen
Encoding: 45 45 17
Width: 588
VWidth: 0
Flags: MW
LayerCount: 2
Fore
SplineSet
495 397 m 2,0,1
 509 397 509 397 517 385.5 c 128,-1,2
 525 374 525 374 525 356 c 128,-1,3
 525 338 525 338 517 326.5 c 128,-1,4
 509 315 509 315 495 315 c 2,5,-1
 92 315 l 2,6,7
 65 315 65 315 65 356 c 128,-1,8
 65 397 65 397 92 397 c 2,9,-1
 495 397 l 2,0,1
EndSplineSet
Validated: 3073
EndChar

StartChar: period
Encoding: 46 46 18
Width: 588
VWidth: 0
Flags: MW
LayerCount: 2
Fore
SplineSet
295 126 m 24,0,1
 324 126 324 126 345.5 106.5 c 128,-1,2
 367 87 367 87 367 59 c 128,-1,3
 367 31 367 31 345.5 12.5 c 128,-1,4
 324 -6 324 -6 295 -6 c 0,5,6
 265 -6 265 -6 243 12.5 c 128,-1,7
 221 31 221 31 221 59 c 0,8,9
 221 88 221 88 243 107 c 128,-1,10
 265 126 265 126 295 126 c 24,0,1
EndSplineSet
Validated: 3073
EndChar

StartChar: two
Encoding: 50 50 19
Width: 588
VWidth: 0
Flags: MW
LayerCount: 2
Fore
SplineSet
295 749 m 0,0,1
 404 749 404 749 469 685.5 c 128,-1,2
 534 622 534 622 535 539 c 1,3,4
 534 490 534 490 498.5 436.5 c 128,-1,5
 463 383 463 383 410 336 c 128,-1,6
 357 289 357 289 302.5 245 c 128,-1,7
 248 201 248 201 202.5 156 c 128,-1,8
 157 111 157 111 143 75 c 1,9,-1
 451 75 l 1,10,-1
 451 141 l 1,11,-1
 535 141 l 1,12,-1
 535 1 l 1,13,-1
 54 1 l 1,14,-1
 54 75 l 1,15,16
 67 118 67 118 113.5 169.5 c 128,-1,17
 160 221 160 221 216 268 c 128,-1,18
 272 315 272 315 326 361 c 128,-1,19
 380 407 380 407 416.5 454 c 128,-1,20
 453 501 453 501 453 539 c 0,21,22
 453 602 453 602 411 638.5 c 128,-1,23
 369 675 369 675 295 675 c 0,24,25
 219 675 219 675 178 628.5 c 128,-1,26
 137 582 137 582 136 507 c 1,27,-1
 54 507 l 1,28,29
 55 604 55 604 120 676 c 128,-1,30
 185 748 185 748 295 749 c 0,0,1
EndSplineSet
Validated: 3073
EndChar

StartChar: three
Encoding: 51 51 20
Width: 588
VWidth: 0
Flags: MW
LayerCount: 2
Fore
SplineSet
524 742 m 29,0,-1
 524 669 l 1,1,-1
 347 507 l 1,2,3
 390 506 390 506 424 493 c 128,-1,4
 458 480 458 480 477 459 c 128,-1,5
 496 438 496 438 508.5 417 c 128,-1,6
 521 396 521 396 526 372.5 c 128,-1,7
 531 349 531 349 532.5 338 c 128,-1,8
 534 327 534 327 534 319 c 0,9,10
 534 258 534 258 512 207.5 c 128,-1,11
 490 157 490 157 456.5 124.5 c 128,-1,12
 423 92 423 92 377 67 c 128,-1,13
 331 42 331 42 288.5 28.5 c 128,-1,14
 246 15 246 15 199.5 7 c 128,-1,15
 153 -1 153 -1 125.5 -3.5 c 128,-1,16
 98 -6 98 -6 75 -6 c 0,17,18
 67 -6 67 -6 58 3 c 128,-1,19
 49 12 49 12 48 18 c 1,20,21
 48 25 48 25 55 35 c 128,-1,22
 62 45 62 45 71 49 c 1,23,24
 109 57 109 57 125.5 60.5 c 128,-1,25
 142 64 142 64 181 74 c 128,-1,26
 220 84 220 84 240 91.5 c 128,-1,27
 260 99 260 99 294 112 c 128,-1,28
 328 125 328 125 346.5 138 c 128,-1,29
 365 151 365 151 388.5 170.5 c 128,-1,30
 412 190 412 190 424 211 c 128,-1,31
 436 232 436 232 445 259 c 128,-1,32
 454 286 454 286 454 317 c 1,33,34
 451 359 451 359 424 395.5 c 128,-1,35
 397 432 397 432 336 433 c 1,36,37
 269 433 269 433 214 397 c 1,38,-1
 158 434 l 1,39,-1
 215 483 l 1,40,-1
 422 669 l 1,41,-1
 137 669 l 1,42,-1
 137 606 l 1,43,-1
 55 606 l 1,44,-1
 55 742 l 1,45,-1
 524 742 l 29,0,-1
EndSplineSet
Validated: 3073
EndChar

StartChar: four
Encoding: 52 52 21
Width: 588
VWidth: 0
Flags: MW
LayerCount: 2
Fore
SplineSet
354 603 m 1,0,-1
 187 305 l 1,1,-1
 354 305 l 1,2,-1
 354 603 l 1,0,-1
436 742 m 1,3,-1
 436 305 l 1,4,-1
 536 305 l 1,5,-1
 536 231 l 1,6,-1
 436 231 l 1,7,-1
 436 0 l 1,8,-1
 354 0 l 1,9,-1
 354 231 l 1,10,-1
 54 231 l 1,11,-1
 354 742 l 1,12,-1
 436 742 l 1,3,-1
EndSplineSet
Validated: 3073
EndChar

StartChar: five
Encoding: 53 53 22
Width: 588
VWidth: 0
Flags: MW
LayerCount: 2
Fore
SplineSet
525 742 m 25,0,-1
 525 669 l 1,1,-1
 138 669 l 1,2,-1
 138 434 l 1,3,4
 141 437 141 437 146 442 c 128,-1,5
 151 447 151 447 169.5 460 c 128,-1,6
 188 473 188 473 209.5 482.5 c 128,-1,7
 231 492 231 492 267.5 500 c 128,-1,8
 304 508 304 508 345 508 c 0,9,10
 391 508 391 508 426.5 492.5 c 128,-1,11
 462 477 462 477 482 455.5 c 128,-1,12
 502 434 502 434 514.5 406 c 128,-1,13
 527 378 527 378 531 357 c 128,-1,14
 535 336 535 336 535 319 c 0,15,16
 535 257 535 257 512.5 206.5 c 128,-1,17
 490 156 490 156 455 123 c 128,-1,18
 420 90 420 90 372.5 65 c 128,-1,19
 325 40 325 40 281.5 27 c 128,-1,20
 238 14 238 14 192 6 c 128,-1,21
 146 -2 146 -2 120 -4 c 128,-1,22
 94 -6 94 -6 76 -6 c 0,23,24
 68 -6 68 -6 58.5 3 c 128,-1,25
 49 12 49 12 48 18 c 1,26,27
 48 25 48 25 55.5 35 c 128,-1,28
 63 45 63 45 72 49 c 1,29,30
 183 72 183 72 260 101 c 128,-1,31
 337 130 337 130 378 164 c 128,-1,32
 419 198 419 198 436 232 c 128,-1,33
 453 266 453 266 453 307 c 0,34,35
 452 359 452 359 425 396 c 128,-1,36
 398 433 398 433 337 434 c 1,37,38
 273 434 273 434 224 405 c 128,-1,39
 175 376 175 376 148 337 c 1,40,-1
 56 379 l 1,41,-1
 56 742 l 1,42,-1
 525 742 l 25,0,-1
EndSplineSet
Validated: 3073
EndChar

StartChar: six
Encoding: 54 54 23
Width: 588
VWidth: 0
Flags: MW
LayerCount: 2
Fore
SplineSet
136 220 m 28,0,1
 136 157 136 157 184 112.5 c 128,-1,2
 232 68 232 68 301 68 c 0,3,4
 366 68 366 68 409.5 113.5 c 128,-1,5
 453 159 453 159 453 220 c 0,6,7
 453 282 453 282 409.5 329 c 128,-1,8
 366 376 366 376 301 376 c 0,9,10
 231 376 231 376 183.5 330 c 128,-1,11
 136 284 136 284 136 220 c 28,0,1
462 724 m 4,12,13
 462 693 462 693 414 693 c 1,14,15
 334 685 334 685 248.5 586.5 c 128,-1,16
 163 488 163 488 153 391 c 1,17,18
 154 392 154 392 164 401.5 c 128,-1,19
 174 411 174 411 178 413.5 c 128,-1,20
 182 416 182 416 192.5 424 c 128,-1,21
 203 432 203 432 212 435 c 128,-1,22
 221 438 221 438 235 442.5 c 128,-1,23
 249 447 249 447 265.5 448.5 c 128,-1,24
 282 450 282 450 301 450 c 0,25,26
 373 450 373 450 427 413.5 c 128,-1,27
 481 377 481 377 506 326.5 c 128,-1,28
 531 276 531 276 535 220 c 1,29,30
 535 128 535 128 465.5 61 c 128,-1,31
 396 -6 396 -6 301 -6 c 0,32,33
 204 -6 204 -6 131.5 61 c 128,-1,34
 59 128 59 128 54 220 c 1,35,36
 54 297 54 297 56.5 333 c 128,-1,37
 59 369 59 369 75 422 c 128,-1,38
 91 475 91 475 126 540 c 1,39,40
 170 626 170 626 254 687.5 c 128,-1,41
 338 749 338 749 407 749 c 1,42,43
 462 748 462 748 462 724 c 4,12,13
EndSplineSet
Validated: 3073
EndChar

StartChar: seven
Encoding: 55 55 24
Width: 588
VWidth: 0
Flags: MW
LayerCount: 2
Fore
SplineSet
535 742 m 25,0,-1
 535 545 l 1,1,2
 532 518 532 518 499.5 469 c 128,-1,3
 467 420 467 420 431 373 c 128,-1,4
 395 326 395 326 365.5 260.5 c 128,-1,5
 336 195 336 195 336 138 c 2,6,-1
 336 0 l 1,7,-1
 249 0 l 1,8,-1
 249 138 l 2,9,10
 249 197 249 197 269.5 252.5 c 128,-1,11
 290 308 290 308 317 346.5 c 128,-1,12
 344 385 344 385 385.5 445.5 c 128,-1,13
 427 506 427 506 453 556 c 1,14,-1
 453 669 l 1,15,-1
 136 669 l 1,16,-1
 136 588 l 1,17,-1
 54 588 l 1,18,-1
 54 742 l 1,19,-1
 535 742 l 25,0,-1
EndSplineSet
Validated: 3073
EndChar

StartChar: eight
Encoding: 56 56 25
Width: 588
VWidth: 0
Flags: MW
LayerCount: 2
Fore
SplineSet
136 206 m 24,0,1
 136 146 136 146 183.5 106.5 c 128,-1,2
 231 67 231 67 295 67 c 0,3,4
 358 67 358 67 405.5 106.5 c 128,-1,5
 453 146 453 146 453 206 c 0,6,7
 453 267 453 267 406 308 c 128,-1,8
 359 349 359 349 295 349 c 128,-1,9
 231 349 231 349 183.5 308 c 128,-1,10
 136 267 136 267 136 206 c 24,0,1
158 548 m 152,-1,12
 158 494 158 494 198.5 458 c 128,-1,13
 239 422 239 422 295 422 c 128,-1,14
 351 422 351 422 391 458 c 128,-1,15
 431 494 431 494 431 548 c 128,-1,16
 431 602 431 602 391 639 c 128,-1,17
 351 676 351 676 295 676 c 128,-1,18
 239 676 239 676 198.5 639 c 128,-1,11
 158 602 158 602 158 548 c 152,-1,12
295 749 m 152,-1,20
 384 749 384 749 448.5 691 c 128,-1,21
 513 633 513 633 513 548 c 0,22,23
 513 443 513 443 416 385 c 1,24,25
 535 322 535 322 535 206 c 0,26,27
 535 115 535 115 463.5 54.5 c 128,-1,28
 392 -6 392 -6 295 -6 c 128,-1,29
 198 -6 198 -6 126 54.5 c 128,-1,30
 54 115 54 115 54 206 c 0,31,32
 54 323 54 323 172 385 c 1,33,34
 76 442 76 442 76 548 c 0,35,36
 76 633 76 633 141 691 c 128,-1,19
 206 749 206 749 295 749 c 152,-1,20
EndSplineSet
Validated: 3073
EndChar

StartChar: nine
Encoding: 57 57 26
Width: 588
VWidth: 0
Flags: MW
LayerCount: 2
Fore
SplineSet
453 519 m 28,0,1
 453 584 453 584 404.5 629.5 c 128,-1,2
 356 675 356 675 289 675 c 0,3,4
 226 675 226 675 181 629 c 128,-1,5
 136 583 136 583 136 519 c 0,6,7
 136 454 136 454 180.5 407 c 128,-1,8
 225 360 225 360 289 360 c 0,9,10
 356 360 356 360 404.5 406.5 c 128,-1,11
 453 453 453 453 453 519 c 28,0,1
289 749 m 28,12,13
 386 749 386 749 458 680 c 128,-1,14
 530 611 530 611 535 519 c 1,15,16
 535 412 535 412 523.5 355.5 c 128,-1,17
 512 299 512 299 462 205 c 0,18,19
 417 119 417 119 334.5 56.5 c 128,-1,20
 252 -6 252 -6 183 -6 c 1,21,22
 128 -5 128 -5 128 19 c 0,23,24
 128 32 128 32 146 40.5 c 128,-1,25
 164 49 164 49 176 49 c 1,26,27
 228 54 228 54 287 100 c 128,-1,28
 346 146 346 146 388.5 213.5 c 128,-1,29
 431 281 431 281 437 344 c 1,30,31
 436 343 436 343 427 335 c 128,-1,32
 418 327 418 327 415.5 325 c 128,-1,33
 413 323 413 323 403.5 316 c 128,-1,34
 394 309 394 309 388 306.5 c 128,-1,35
 382 304 382 304 370.5 299 c 128,-1,36
 359 294 359 294 348 292 c 128,-1,37
 337 290 337 290 321.5 288.5 c 128,-1,38
 306 287 306 287 289 287 c 0,39,40
 184 287 184 287 122 358.5 c 128,-1,41
 60 430 60 430 54 519 c 1,42,43
 54 612 54 612 123.5 680.5 c 128,-1,44
 193 749 193 749 289 749 c 28,12,13
EndSplineSet
Validated: 3073
EndChar

StartChar: colon
Encoding: 58 58 27
Width: 588
VWidth: 0
Flags: MW
LayerCount: 2
Fore
SplineSet
294 469 m 24,0,1
 323 469 323 469 344.5 449.5 c 128,-1,2
 366 430 366 430 366 402 c 128,-1,3
 366 374 366 374 344.5 355.5 c 128,-1,4
 323 337 323 337 294 337 c 0,5,6
 264 337 264 337 242 355.5 c 128,-1,7
 220 374 220 374 220 402 c 0,8,9
 220 431 220 431 242 450 c 128,-1,10
 264 469 264 469 294 469 c 24,0,1
294 126 m 24,11,12
 323 126 323 126 344.5 107 c 128,-1,13
 366 88 366 88 366 60 c 128,-1,14
 366 32 366 32 344.5 13 c 128,-1,15
 323 -6 323 -6 294 -6 c 0,16,17
 264 -6 264 -6 242 12.5 c 128,-1,18
 220 31 220 31 220 60 c 128,-1,19
 220 89 220 89 242 107.5 c 128,-1,20
 264 126 264 126 294 126 c 24,11,12
EndSplineSet
Validated: 3073
EndChar

StartChar: semicolon
Encoding: 59 59 28
Width: 588
VWidth: 0
Flags: MW
LayerCount: 2
Fore
SplineSet
298 130 m 0,0,1
 326 130 326 130 348 110.5 c 128,-1,2
 370 91 370 91 370 61 c 0,3,4
 369 25 369 25 357 -16.5 c 128,-1,5
 345 -58 345 -58 315 -93.5 c 128,-1,6
 285 -129 285 -129 244 -129 c 0,7,8
 232 -129 232 -129 232 -119 c 0,9,10
 232 -114 232 -114 241.5 -107 c 128,-1,11
 251 -100 251 -100 264 -91.5 c 128,-1,12
 277 -83 277 -83 293.5 -57.5 c 128,-1,13
 310 -32 310 -32 321 6 c 1,14,15
 315 -6 315 -6 288 -6 c 0,16,17
 265 -6 265 -6 244.5 13.5 c 128,-1,18
 224 33 224 33 224 61 c 0,19,20
 224 86 224 86 245 108 c 128,-1,21
 266 130 266 130 298 130 c 0,0,1
296 469 m 24,22,23
 325 469 325 469 346.5 449.5 c 128,-1,24
 368 430 368 430 368 402 c 128,-1,25
 368 374 368 374 346.5 355.5 c 128,-1,26
 325 337 325 337 296 337 c 0,27,28
 266 337 266 337 244 355.5 c 128,-1,29
 222 374 222 374 222 402 c 0,30,31
 222 431 222 431 244 450 c 128,-1,32
 266 469 266 469 296 469 c 24,22,23
EndSplineSet
Validated: 3073
EndChar

StartChar: less
Encoding: 60 60 29
Width: 588
VWidth: 0
Flags: MW
LayerCount: 2
Fore
SplineSet
518 819 m 25,0,-1
 518 702 l 1,1,-1
 204 371 l 1,2,-1
 518 29 l 1,3,-1
 518 -88 l 1,4,-1
 87 371 l 1,5,-1
 518 819 l 25,0,-1
EndSplineSet
Validated: 3073
EndChar

StartChar: equal
Encoding: 61 61 30
Width: 588
VWidth: 0
Flags: MW
LayerCount: 2
Fore
SplineSet
495 285 m 2,0,1
 509 285 509 285 517 273.5 c 128,-1,2
 525 262 525 262 525 244 c 128,-1,3
 525 226 525 226 517 214.5 c 128,-1,4
 509 203 509 203 495 203 c 2,5,-1
 92 203 l 2,6,7
 65 203 65 203 65 244 c 128,-1,8
 65 285 65 285 92 285 c 2,9,-1
 495 285 l 2,0,1
495 510 m 2,10,11
 509 510 509 510 517 498.5 c 128,-1,12
 525 487 525 487 525 469 c 128,-1,13
 525 451 525 451 517 439.5 c 128,-1,14
 509 428 509 428 495 428 c 2,15,-1
 92 428 l 2,16,17
 65 428 65 428 65 469 c 128,-1,18
 65 510 65 510 92 510 c 2,19,-1
 495 510 l 2,10,11
EndSplineSet
Validated: 3073
EndChar

StartChar: greater
Encoding: 62 62 31
Width: 588
VWidth: 0
Flags: MW
LayerCount: 2
Fore
SplineSet
71 819 m 25,0,-1
 502 371 l 1,1,-1
 71 -88 l 1,2,-1
 71 29 l 1,3,-1
 385 371 l 1,4,-1
 71 702 l 1,5,-1
 71 819 l 25,0,-1
EndSplineSet
Validated: 3073
EndChar

StartChar: question
Encoding: 63 63 32
Width: 588
VWidth: 0
Flags: MW
LayerCount: 2
Fore
SplineSet
295 126 m 24,0,1
 324 126 324 126 345.5 106.5 c 128,-1,2
 367 87 367 87 367 59 c 128,-1,3
 367 31 367 31 345.5 12.5 c 128,-1,4
 324 -6 324 -6 295 -6 c 0,5,6
 265 -6 265 -6 243 12.5 c 128,-1,7
 221 31 221 31 221 59 c 0,8,9
 221 88 221 88 243 107 c 128,-1,10
 265 126 265 126 295 126 c 24,0,1
295 749 m 0,11,12
 411 749 411 749 473 694.5 c 128,-1,13
 535 640 535 640 535 561 c 0,14,15
 535 528 535 528 503.5 492.5 c 128,-1,16
 472 457 472 457 435 433 c 128,-1,17
 398 409 398 409 366.5 385 c 128,-1,18
 335 361 335 361 335 348 c 2,19,-1
 335 205 l 2,20,21
 335 180 335 180 295 180 c 0,22,23
 253 180 253 180 253 205 c 2,24,-1
 253 376 l 1,25,26
 255 389 255 389 287 415 c 128,-1,27
 319 441 319 441 355.5 465 c 128,-1,28
 392 489 392 489 422.5 516.5 c 128,-1,29
 453 544 453 544 453 561 c 0,30,31
 453 566 453 566 452 573.5 c 128,-1,32
 451 581 451 581 442.5 601 c 128,-1,33
 434 621 434 621 419 636.5 c 128,-1,34
 404 652 404 652 371.5 664.5 c 128,-1,35
 339 677 339 677 295 677 c 0,36,37
 250 677 250 677 217.5 665 c 128,-1,38
 185 653 185 653 170 636 c 128,-1,39
 155 619 155 619 146.5 602 c 128,-1,40
 138 585 138 585 137 573 c 2,41,-1
 136 561 l 1,42,-1
 54 561 l 1,43,44
 54 640 54 640 116 694.5 c 128,-1,45
 178 749 178 749 295 749 c 0,11,12
EndSplineSet
Validated: 3073
EndChar

StartChar: at
Encoding: 64 64 33
Width: 588
VWidth: 0
Flags: MW
LayerCount: 2
Fore
SplineSet
289 659 m 128,-1,1
 362 659 362 659 425.5 607.5 c 128,-1,2
 489 556 489 556 523 481.5 c 128,-1,3
 557 407 557 407 557 333 c 0,4,5
 557 280 557 280 536 222.5 c 128,-1,6
 515 165 515 165 481 123 c 1,7,-1
 424 144 l 1,8,9
 415 151 415 151 406.5 159.5 c 128,-1,10
 398 168 398 168 392.5 176 c 128,-1,11
 387 184 387 184 383 191 c 0,12,13
 378 198 378 198 376 202 c 2,14,-1
 374 207 l 1,15,16
 367 182 367 182 341.5 171.5 c 128,-1,17
 316 161 316 161 289 161 c 0,18,19
 246 161 246 161 207 220.5 c 128,-1,20
 168 280 168 280 168 333 c 0,21,22
 168 387 168 387 206.5 446.5 c 128,-1,23
 245 506 245 506 289 506 c 0,24,25
 346 506 346 506 376 450.5 c 128,-1,26
 406 395 406 395 408 333 c 0,27,28
 409 274 409 274 416.5 250 c 128,-1,29
 424 226 424 226 451 219 c 1,30,31
 477 274 477 274 477 333 c 0,32,33
 477 424 477 424 420.5 506.5 c 128,-1,34
 364 589 364 589 289 589 c 0,35,36
 215 589 215 589 163.5 507.5 c 128,-1,37
 112 426 112 426 112 333 c 0,38,39
 112 276 112 276 131 214.5 c 128,-1,40
 150 153 150 153 181 112 c 128,-1,41
 212 71 212 71 243 71 c 1,42,-1
 301 119 l 1,43,-1
 441 0 l 1,44,-1
 253 0 l 2,45,46
 191 0 191 0 138.5 53.5 c 128,-1,47
 86 107 86 107 59 182.5 c 128,-1,48
 32 258 32 258 32 333 c 128,-1,49
 32 408 32 408 63 482 c 128,-1,50
 94 556 94 556 155 607.5 c 128,-1,0
 216 659 216 659 289 659 c 128,-1,1
289 432 m 128,-1,52
 265 432 265 432 249 402 c 128,-1,53
 233 372 233 372 233 333 c 0,54,55
 233 291 233 291 247 261.5 c 128,-1,56
 261 232 261 232 289 232 c 0,57,58
 341 232 341 232 341 333 c 0,59,60
 341 372 341 372 327 402 c 128,-1,51
 313 432 313 432 289 432 c 128,-1,52
EndSplineSet
Validated: 3073
EndChar

StartChar: A
Encoding: 65 65 34
Width: 588
VWidth: 0
Flags: MW
LayerCount: 2
Back
SplineSet
267 777 m 1,0,-1
 25 33 l 1,1,-1
 103 7 l 1,2,-1
 345 751 l 1,3,-1
 267 777 l 1,0,-1
322 777 m 1,4,-1
 564 33 l 5,5,-1
 486 7 l 1,6,-1
 244 751 l 1,7,-1
 322 777 l 1,4,-1
EndSplineSet
Fore
SplineSet
333 742 m 5,0,-1
 564 33 l 5,1,-1
 564 0 l 5,2,-1
 477 0 l 5,3,-1
 477 33 l 5,4,-1
 418 215 l 5,5,-1
 170 215 l 5,6,-1
 111 33 l 5,7,-1
 111 0 l 5,8,-1
 25 0 l 5,9,-1
 25 33 l 5,10,-1
 256 742 l 5,11,-1
 333 742 l 5,0,-1
194 288 m 5,12,-1
 394 288 l 5,13,-1
 294 595 l 5,14,-1
 194 288 l 5,12,-1
EndSplineSet
Validated: 3073
EndChar

StartChar: B
Encoding: 66 66 35
Width: 588
VWidth: 0
Flags: MW
LayerCount: 2
Fore
SplineSet
470 206 m 0,0,1
 470 277 470 277 426.5 323 c 128,-1,2
 383 369 383 369 328 369 c 2,3,-1
 125 369 l 1,4,-1
 125 74 l 1,5,-1
 341 74 l 2,6,7
 384 74 384 74 427 108.5 c 128,-1,8
 470 143 470 143 470 206 c 0,0,1
409 563 m 0,9,10
 409 604 409 604 389.5 637 c 128,-1,11
 370 670 370 670 335 670 c 2,12,-1
 125 670 l 1,13,-1
 125 442 l 1,14,-1
 324 442 l 2,15,16
 353 442 353 442 381 483.5 c 128,-1,17
 409 525 409 525 409 563 c 0,9,10
324 742 m 2,18,19
 370 742 370 742 404 725.5 c 128,-1,20
 438 709 438 709 456 682 c 128,-1,21
 474 655 474 655 482 625.5 c 128,-1,22
 490 596 490 596 490 563 c 0,23,24
 490 518 490 518 463 469.5 c 128,-1,25
 436 421 436 421 414 416 c 1,26,-1
 414 401 l 1,27,28
 474 379 474 379 513 322.5 c 128,-1,29
 552 266 552 266 552 206 c 0,30,31
 552 115 552 115 495 57.5 c 128,-1,32
 438 0 438 0 343 0 c 2,33,-1
 43 0 l 1,34,-1
 43 742 l 1,35,-1
 324 742 l 2,18,19
EndSplineSet
Validated: 3073
EndChar

StartChar: E
Encoding: 69 69 36
Width: 588
VWidth: 0
Flags: MW
LayerCount: 2
Fore
SplineSet
503 742 m 25,0,-1
 547 670 l 1,1,-1
 125 670 l 1,2,-1
 125 437 l 1,3,-1
 376 437 l 1,4,-1
 420 364 l 1,5,-1
 125 364 l 1,6,-1
 125 74 l 1,7,-1
 503 74 l 1,8,-1
 547 0 l 1,9,-1
 43 0 l 1,10,-1
 43 742 l 1,11,-1
 503 742 l 25,0,-1
EndSplineSet
Validated: 3073
EndChar

StartChar: F
Encoding: 70 70 37
Width: 588
VWidth: 0
Flags: MW
LayerCount: 2
Fore
SplineSet
503 742 m 25,0,-1
 547 670 l 1,1,-1
 125 670 l 1,2,-1
 125 446 l 1,3,-1
 376 446 l 1,4,-1
 420 374 l 1,5,-1
 125 374 l 1,6,-1
 125 0 l 1,7,-1
 43 0 l 1,8,-1
 43 742 l 1,9,-1
 503 742 l 25,0,-1
EndSplineSet
Validated: 3073
EndChar

StartChar: G
Encoding: 71 71 38
Width: 588
VWidth: 0
Flags: MW
LayerCount: 2
Fore
SplineSet
499 742 m 29,0,-1
 543 670 l 5,1,-1
 301 670 l 5,2,3
 252 667 252 667 216 639.5 c 132,-1,4
 180 612 180 612 161 568 c 132,-1,5
 142 524 142 524 133.5 477.5 c 132,-1,6
 125 431 125 431 125 379 c 4,7,8
 125 324 125 324 135 273 c 132,-1,9
 145 222 145 222 165.5 176 c 132,-1,10
 186 130 186 130 224 102 c 132,-1,11
 262 74 262 74 312 74 c 6,12,-1
 465 74 l 5,13,-1
 432 371 l 5,14,-1
 305 371 l 5,15,-1
 274 446 l 5,16,-1
 501 446 l 5,17,-1
 547 74 l 5,18,-1
 547 0 l 5,19,-1
 312 0 l 6,20,21
 226 0 226 0 163 58 c 132,-1,22
 100 116 100 116 71.5 200 c 132,-1,23
 43 284 43 284 43 379 c 4,24,25
 43 470 43 470 69 550 c 132,-1,26
 95 630 95 630 154 686 c 132,-1,27
 213 742 213 742 295 742 c 6,28,-1
 499 742 l 29,0,-1
EndSplineSet
Validated: 3073
EndChar

StartChar: H
Encoding: 72 72 39
Width: 588
VWidth: 0
Flags: MW
LayerCount: 2
Fore
SplineSet
465 437 m 1,0,-1
 465 742 l 1,1,-1
 547 742 l 1,2,-1
 547 0 l 1,3,-1
 465 0 l 1,4,-1
 465 364 l 1,5,-1
 125 364 l 1,6,-1
 125 0 l 1,7,-1
 43 0 l 1,8,-1
 43 742 l 1,9,-1
 125 742 l 1,10,-1
 125 437 l 1,11,-1
 465 437 l 1,0,-1
EndSplineSet
Validated: 3073
EndChar

StartChar: I
Encoding: 73 73 40
Width: 588
VWidth: 0
Flags: MW
LayerCount: 2
Fore
SplineSet
513 742 m 25,0,-1
 557 670 l 1,1,-1
 334 670 l 1,2,-1
 334 74 l 1,3,-1
 513 74 l 1,4,-1
 557 0 l 1,5,-1
 75 0 l 1,6,-1
 31 74 l 1,7,-1
 252 74 l 1,8,-1
 252 670 l 1,9,-1
 75 670 l 1,10,-1
 31 742 l 1,11,-1
 513 742 l 25,0,-1
EndSplineSet
Validated: 3073
EndChar

StartChar: J
Encoding: 74 74 41
Width: 588
VWidth: 0
Flags: MW
LayerCount: 2
Fore
SplineSet
545 741 m 25,0,-1
 589 669 l 5,1,-1
 500 669 l 1,2,-1
 500 247 l 2,3,4
 500 -4 500 -4 295 -4 c 0,5,6
 186 -4 186 -4 135.5 64 c 128,-1,7
 85 132 85 132 85 247 c 1,8,-1
 167 247 l 1,9,10
 167 151 167 151 199 110 c 128,-1,11
 231 69 231 69 295 69 c 0,12,13
 358 69 358 69 388 109.5 c 128,-1,14
 418 150 418 150 418 247 c 2,15,-1
 418 669 l 1,16,-1
 129 669 l 1,17,-1
 85 741 l 1,18,-1
 545 741 l 25,0,-1
EndSplineSet
Validated: 3073
EndChar

StartChar: K
Encoding: 75 75 42
Width: 588
VWidth: 0
Flags: MW
LayerCount: 2
Fore
SplineSet
536 742 m 1,0,-1
 297 401 l 1,1,-1
 547 0 l 1,2,-1
 464 0 l 1,3,-1
 233 364 l 1,4,-1
 125 364 l 1,5,-1
 125 0 l 1,6,-1
 43 0 l 1,7,-1
 43 742 l 1,8,-1
 125 742 l 1,9,-1
 125 437 l 1,10,-1
 233 437 l 1,11,-1
 453 742 l 1,12,-1
 536 742 l 1,0,-1
EndSplineSet
Validated: 3073
EndChar

StartChar: L
Encoding: 76 76 43
Width: 588
VWidth: 0
Flags: MW
LayerCount: 2
Fore
SplineSet
154 742 m 29,0,-1
 154 74 l 5,1,-1
 490 74 l 5,2,-1
 533 0 l 5,3,-1
 72 0 l 5,4,-1
 72 742 l 5,5,-1
 154 742 l 29,0,-1
EndSplineSet
Validated: 3073
EndChar

StartChar: M
Encoding: 77 77 44
Width: 588
VWidth: 0
Flags: MW
LayerCount: 2
Fore
SplineSet
547 741 m 25,0,-1
 547 0 l 1,1,-1
 465 0 l 1,2,-1
 465 615 l 1,3,-1
 295 339 l 1,4,-1
 125 615 l 1,5,-1
 125 0 l 1,6,-1
 43 0 l 1,7,-1
 43 741 l 5,8,-1
 125 741 l 1,9,-1
 295 461 l 1,10,-1
 465 741 l 1,11,-1
 547 741 l 25,0,-1
EndSplineSet
Validated: 3073
EndChar

StartChar: N
Encoding: 78 78 45
Width: 588
VWidth: 0
Flags: MW
LayerCount: 2
Fore
SplineSet
547 742 m 25,0,-1
 547 0 l 1,1,-1
 465 0 l 1,2,-1
 125 600 l 1,3,-1
 125 0 l 1,4,-1
 43 0 l 1,5,-1
 43 742 l 1,6,-1
 125 742 l 1,7,-1
 465 143 l 1,8,-1
 465 742 l 1,9,-1
 547 742 l 25,0,-1
EndSplineSet
Validated: 3073
EndChar

StartChar: O
Encoding: 79 79 46
Width: 588
VWidth: 0
Flags: MW
LayerCount: 2
Fore
SplineSet
295 749 m 4,0,1
 363 749 363 749 416 715 c 4,2,3
 465 684 465 684 498 626 c 5,4,5
 526 579 526 579 539 504 c 4,6,7
 548 454 548 454 549 370 c 5,8,9
 549 275 549 275 529 193 c 4,10,11
 508 109 508 109 446 52 c 4,12,13
 384 -6 384 -6 295 -6 c 4,14,15
 204 -6 204 -6 142 52 c 4,16,17
 80 109 80 109 59 193 c 4,18,19
 39 275 39 275 39 370 c 5,20,21
 40 454 40 454 49 504 c 4,22,23
 62 579 62 579 90 626 c 5,24,25
 123 684 123 684 172 715 c 4,26,27
 225 749 225 749 295 749 c 4,0,1
295 679 m 260,28,29
 174 679 174 679 142 523 c 4,30,31
 126 445 126 445 126 370 c 4,32,33
 127 271 127 271 142 202 c 5,34,35
 174 64 174 64 295 64 c 260,36,37
 416 64 416 64 446 202 c 5,38,39
 461 267 461 267 462 370 c 4,40,41
 462 440 462 440 446 523 c 4,42,43
 416 679 416 679 295 679 c 260,28,29
EndSplineSet
Validated: 3073
EndChar

StartChar: P
Encoding: 80 80 47
Width: 588
VWidth: 0
Flags: MW
LayerCount: 2
Fore
SplineSet
454 548 m 24,0,1
 454 596 454 596 425.5 633 c 128,-1,2
 397 670 397 670 353 670 c 2,3,-1
 135 670 l 1,4,-1
 135 418 l 1,5,-1
 353 418 l 2,6,7
 399 418 399 418 426.5 457 c 128,-1,8
 454 496 454 496 454 548 c 24,0,1
369 742 m 26,9,10
 442 742 442 742 489 684 c 128,-1,11
 536 626 536 626 536 548 c 0,12,13
 536 467 536 467 489 405.5 c 128,-1,14
 442 344 442 344 369 344 c 2,15,-1
 135 344 l 1,16,-1
 135 0 l 1,17,-1
 53 0 l 1,18,-1
 53 742 l 1,19,-1
 369 742 l 26,9,10
EndSplineSet
Validated: 3073
EndChar

StartChar: Q
Encoding: 81 81 48
Width: 588
VWidth: 0
Flags: MW
LayerCount: 2
Fore
SplineSet
295 678 m 0,0,1
 246 678 246 678 210.5 644.5 c 128,-1,2
 175 611 175 611 157.5 559.5 c 128,-1,3
 140 508 140 508 132.5 460.5 c 128,-1,4
 125 413 125 413 125 370 c 0,5,6
 125 60 125 60 295 60 c 0,7,8
 348 60 348 60 376 89 c 1,9,-1
 330 156 l 1,10,-1
 267 156 l 1,11,-1
 214 225 l 1,12,-1
 336 225 l 1,13,-1
 412 126 l 1,14,15
 439 176 439 176 450.5 225 c 128,-1,16
 462 274 462 274 462 370 c 0,17,18
 462 428 462 428 455 477.5 c 128,-1,19
 448 527 448 527 431 575 c 128,-1,20
 414 623 414 623 379.5 650.5 c 128,-1,21
 345 678 345 678 295 678 c 0,0,1
295 752 m 128,-1,23
 358 752 358 752 407.5 717.5 c 128,-1,24
 457 683 457 683 486 626.5 c 128,-1,25
 515 570 515 570 529.5 504.5 c 128,-1,26
 544 439 544 439 544 370 c 0,27,28
 544 176 544 176 461 73 c 1,29,-1
 530 73 l 1,30,-1
 592 -13 l 1,31,-1
 455 -13 l 1,32,-1
 424 35 l 1,33,34
 378 -13 378 -13 295 -13 c 0,35,36
 232 -13 232 -13 182 21.5 c 128,-1,37
 132 56 132 56 102.5 113 c 128,-1,38
 73 170 73 170 58 235.5 c 128,-1,39
 43 301 43 301 43 370 c 128,-1,40
 43 439 43 439 58 504.5 c 128,-1,41
 73 570 73 570 102.5 626.5 c 128,-1,42
 132 683 132 683 182 717.5 c 128,-1,22
 232 752 232 752 295 752 c 128,-1,23
EndSplineSet
Validated: 3073
EndChar

StartChar: R
Encoding: 82 82 49
Width: 588
VWidth: 0
Flags: MW
LayerCount: 2
Fore
SplineSet
329 742 m 2,0,1
 419 742 419 742 468 689.5 c 128,-1,2
 517 637 517 637 517 569 c 0,3,4
 517 468 517 468 423 422 c 1,5,-1
 423 409 l 1,6,7
 483 387 483 387 514.5 332.5 c 128,-1,8
 546 278 546 278 546 206 c 2,9,-1
 546 0 l 1,10,-1
 464 0 l 1,11,-1
 464 206 l 2,12,13
 464 271 464 271 414 322.5 c 128,-1,14
 364 374 364 374 310 374 c 2,15,-1
 125 374 l 1,16,-1
 125 0 l 1,17,-1
 43 0 l 1,18,-1
 43 742 l 1,19,-1
 329 742 l 2,0,1
435 569 m 0,20,21
 435 607 435 607 404.5 638.5 c 128,-1,22
 374 670 374 670 333 670 c 2,23,-1
 125 670 l 1,24,-1
 125 446 l 5,25,-1
 335 446 l 2,26,27
 372 446 372 446 403 482 c 128,-1,28
 434 518 434 518 435 569 c 0,20,21
EndSplineSet
Validated: 3073
EndChar

StartChar: S
Encoding: 83 83 50
Width: 588
VWidth: 0
Flags: MW
LayerCount: 2
Fore
SplineSet
503 742 m 25,0,-1
 547 668 l 1,1,2
 274 668 l 2,3,4
 136 668 136 668 136 548 c 0,5,6
 136 443 136 443 264 443 c 2,7,-1
 320 443 l 2,8,9
 537 443 537 443 547 223 c 257,10,11
 527 0 527 0 295 0 c 9,12,-1
 42 0 l 1,13,-1
 86 74 l 1,14,-1
 295 74 l 17,15,16
 445 74 445 74 465 223 c 257,17,18
 465 369 465 369 331 369 c 2,19,-1
 268 369 l 2,20,21
 55 369 55 369 54 547 c 256,22,23
 54 742 54 742 274 742 c 2,24,-1
 503 742 l 25,0,-1
EndSplineSet
Validated: 3073
EndChar

StartChar: T
Encoding: 84 84 51
Width: 588
VWidth: 0
Flags: MW
LayerCount: 2
Fore
SplineSet
252 669 m 29,0,-1
 75 669 l 5,1,-1
 31 742 l 5,2,-1
 513 742 l 5,3,-1
 557 669 l 5,4,-1
 335 669 l 5,5,6
 335 0 l 5,7,-1
 252 0 l 5,8,-1
 252 669 l 29,0,-1
EndSplineSet
Validated: 3073
EndChar

StartChar: U
Encoding: 85 85 52
Width: 588
VWidth: 0
Flags: MW
LayerCount: 2
Fore
SplineSet
546 740 m 25,0,-1
 546 289 l 1,1,2
 543 148 543 148 477 71 c 128,-1,3
 411 -6 411 -6 295 -6 c 0,4,5
 181 -6 181 -6 113.5 72 c 128,-1,6
 46 150 46 150 43 289 c 1,7,-1
 43 740 l 1,8,-1
 125 740 l 1,9,-1
 125 289 l 1,10,11
 127 183 127 183 170 125 c 128,-1,12
 213 67 213 67 295 67 c 0,13,14
 458 67 458 67 464 289 c 1,15,-1
 464 740 l 1,16,-1
 546 740 l 25,0,-1
EndSplineSet
Validated: 3073
EndChar

StartChar: V
Encoding: 86 86 53
Width: 588
VWidth: 0
Flags: MW
LayerCount: 2
Fore
SplineSet
547 742 m 25,0,-1
 295 -15 l 1,1,-1
 42 742 l 1,2,-1
 130 742 l 1,3,-1
 295 232 l 1,4,-1
 462 742 l 1,5,-1
 547 742 l 25,0,-1
EndSplineSet
Validated: 3073
EndChar

StartChar: W
Encoding: 87 87 54
Width: 588
VWidth: 0
Flags: MW
LayerCount: 2
Fore
SplineSet
547 741 m 25,0,-1
 512 0 l 1,1,-1
 382 0 l 1,2,-1
 295 279 l 1,3,-1
 207 0 l 1,4,-1
 77 0 l 1,5,-1
 42 741 l 1,6,-1
 124 741 l 1,7,-1
 159 74 l 1,8,-1
 295 469 l 1,9,-1
 430 74 l 1,10,-1
 465 741 l 1,11,-1
 547 741 l 25,0,-1
EndSplineSet
Validated: 3073
EndChar

StartChar: X
Encoding: 88 88 55
Width: 588
VWidth: 0
Flags: MW
LayerCount: 2
Fore
SplineSet
295 463 m 1,0,-1
 463 742 l 1,1,-1
 546 742 l 1,2,-1
 343 396 l 1,3,-1
 546 0 l 1,4,-1
 463 0 l 1,5,-1
 295 332 l 1,6,-1
 125 0 l 1,7,-1
 43 0 l 1,8,-1
 245 396 l 1,9,-1
 43 742 l 1,10,-1
 125 742 l 1,11,-1
 295 463 l 1,0,-1
EndSplineSet
Validated: 3073
EndChar

StartChar: Y
Encoding: 89 89 56
Width: 588
VWidth: 0
Flags: MW
LayerCount: 2
Fore
SplineSet
547 742 m 25,0,-1
 336 353 l 1,1,-1
 336 0 l 1,2,-1
 254 0 l 1,3,-1
 254 353 l 1,4,-1
 42 742 l 1,5,-1
 124 742 l 1,6,-1
 295 434 l 1,7,-1
 465 742 l 1,8,-1
 547 742 l 25,0,-1
EndSplineSet
Validated: 3073
EndChar

StartChar: Z
Encoding: 90 90 57
Width: 588
VWidth: 0
Flags: MW
LayerCount: 2
Fore
SplineSet
503 742 m 25,0,-1
 547 669 l 1,1,-1
 136 74 l 1,2,-1
 503 74 l 1,3,-1
 547 0 l 1,4,-1
 87 0 l 1,5,-1
 43 74 l 1,6,-1
 452 669 l 1,7,-1
 87 669 l 1,8,-1
 43 742 l 1,9,-1
 503 742 l 25,0,-1
EndSplineSet
Validated: 3073
EndChar

StartChar: bracketleft
Encoding: 91 91 58
Width: 588
VWidth: 0
Flags: MW
LayerCount: 2
Fore
SplineSet
395 819 m 25,0,-1
 395 737 l 1,1,-1
 276 737 l 1,2,-1
 276 -6 l 1,3,-1
 395 -6 l 1,4,-1
 395 -88 l 1,5,-1
 195 -88 l 1,6,-1
 195 819 l 1,7,-1
 395 819 l 25,0,-1
EndSplineSet
Validated: 3073
EndChar

StartChar: backslash
Encoding: 92 92 59
Width: 588
VWidth: 0
Flags: MW
LayerCount: 2
Fore
SplineSet
135 819 m 25,0,-1
 536 -77 l 1,1,-1
 454 -77 l 1,2,-1
 53 819 l 1,3,-1
 135 819 l 25,0,-1
EndSplineSet
Validated: 3073
EndChar

StartChar: bracketright
Encoding: 93 93 60
Width: 588
VWidth: 0
Flags: MW
LayerCount: 2
Fore
SplineSet
395 819 m 25,0,-1
 395 -88 l 1,1,-1
 195 -88 l 1,2,-1
 195 -6 l 1,3,-1
 313 -6 l 1,4,-1
 313 737 l 1,5,-1
 195 737 l 1,6,-1
 195 819 l 1,7,-1
 395 819 l 25,0,-1
EndSplineSet
Validated: 3073
EndChar

StartChar: asciicircum
Encoding: 94 94 61
Width: 588
VWidth: 0
Flags: MW
LayerCount: 2
Fore
SplineSet
295 799 m 25,0,-1
 538 515 l 1,1,-1
 431 515 l 1,2,-1
 295 682 l 1,3,-1
 158 515 l 1,4,-1
 51 515 l 1,5,-1
 295 799 l 25,0,-1
EndSplineSet
Validated: 3073
EndChar

StartChar: underscore
Encoding: 95 95 62
Width: 588
VWidth: 0
Flags: MW
LayerCount: 2
Fore
SplineSet
536 0 m 25,0,-1
 53 0 l 1,1,-1
 53 73 l 1,2,-1
 536 73 l 1,3,-1
 536 0 l 25,0,-1
EndSplineSet
Validated: 3073
EndChar

StartChar: grave
Encoding: 96 96 63
Width: 588
VWidth: 0
Flags: MW
LayerCount: 2
Fore
SplineSet
274 799 m 1,0,1
 331 780 331 780 375 654 c 1,2,3
 375 582 375 582 358 582 c 0,4,5
 327 582 327 582 270 659.5 c 128,-1,6
 213 737 213 737 213 761 c 0,7,8
 213 770 213 770 233.5 784.5 c 128,-1,9
 254 799 254 799 274 799 c 1,0,1
EndSplineSet
Validated: 3073
EndChar

StartChar: a
Encoding: 97 97 64
Width: 588
VWidth: 0
Flags: MW
LayerCount: 2
Fore
SplineSet
506 473 m 1,0,-1
 480 446 l 1,1,-1
 480 152 l 1,2,3
 480 79 480 79 523 63 c 1,4,-1
 575 63 l 1,5,-1
 516 -8 l 1,6,7
 427 4 427 4 427 129 c 1,8,9
 388 -6 388 -6 295 -6 c 0,10,11
 197 -6 197 -6 133 67 c 0,12,13
 63 146 63 146 63 241 c 0,14,15
 63 327 63 327 121.5 403 c 128,-1,16
 180 479 180 479 266 479 c 4,17,18
 298 479 298 479 341.5 456.5 c 128,-1,19
 385 434 385 434 398 421 c 1,20,-1
 398 473 l 1,21,-1
 506 473 l 1,0,-1
263 410 m 0,22,23
 236 410 236 410 201 385 c 0,24,25
 178 369 178 369 164 335 c 0,26,27
 145 288 145 288 145 227 c 0,28,29
 145 156 145 156 187 102 c 0,30,31
 215 67 215 67 284 67 c 0,32,33
 346 67 346 67 392 196 c 0,34,35
 407 239 407 239 407 296 c 0,36,37
 407 335 407 335 377 362 c 128,-1,38
 347 389 347 389 322 399.5 c 128,-1,39
 297 410 297 410 263 410 c 0,22,23
EndSplineSet
Validated: 3073
EndChar

StartChar: b
Encoding: 98 98 65
Width: 588
VWidth: 0
Flags: MW
LayerCount: 2
Fore
SplineSet
80 742 m 1,0,-1
 187 742 l 1,1,-1
 187 421 l 1,2,3
 197 431 197 431 257 455 c 128,-1,4
 317 479 317 479 340 479 c 0,5,6
 431 479 431 479 482 415.5 c 128,-1,7
 533 352 533 352 533 241 c 0,8,9
 533 143 533 143 450 68.5 c 128,-1,10
 367 -6 367 -6 271 -6 c 0,11,12
 199 -6 199 -6 145 78 c 1,13,14
 144 4 144 4 90 -8 c 1,15,-1
 26 54 l 1,16,-1
 72 54 l 1,17,18
 102 85 102 85 105 142 c 1,19,-1
 105 717 l 1,20,-1
 80 742 l 1,0,-1
359 407 m 0,21,22
 335 407 335 407 294.5 396 c 128,-1,23
 254 385 254 385 218.5 358.5 c 128,-1,24
 183 332 183 332 183 296 c 0,25,26
 183 266 183 266 183.5 249 c 128,-1,27
 184 232 184 232 186 200.5 c 128,-1,28
 188 169 188 169 193 149.5 c 128,-1,29
 198 130 198 130 206.5 109 c 128,-1,30
 215 88 215 88 230 77.5 c 128,-1,31
 245 67 245 67 264 67 c 0,32,33
 335 67 335 67 393.5 119 c 128,-1,34
 452 171 452 171 452 234 c 0,35,36
 452 407 452 407 359 407 c 0,21,22
EndSplineSet
Validated: 3073
EndChar

StartChar: c
Encoding: 99 99 66
Width: 588
VWidth: 0
Flags: MW
LayerCount: 2
Fore
SplineSet
297 479 m 31,0,1
 364 479 364 479 432 430.5 c 128,-1,2
 500 382 500 382 500 345 c 1,3,-1
 413 263 l 1,4,-1
 413 331 l 1,5,6
 402 360 402 360 366.5 383.5 c 128,-1,7
 331 407 331 407 297 407 c 0,8,9
 228 407 228 407 191 359.5 c 128,-1,10
 154 312 154 312 154 243 c 0,11,12
 154 169 154 169 188.5 118 c 128,-1,13
 223 67 223 67 297 67 c 0,14,15
 342 67 342 67 379 93.5 c 128,-1,16
 416 120 416 120 433 159 c 1,17,-1
 526 159 l 1,18,19
 503 97 503 97 438 45.5 c 128,-1,20
 373 -6 373 -6 295 -6 c 0,21,22
 198 -6 198 -6 135 65.5 c 128,-1,23
 72 137 72 137 72 243 c 128,-1,24
 72 349 72 349 136 414 c 128,-1,25
 200 479 200 479 297 479 c 31,0,1
EndSplineSet
Validated: 3073
EndChar

StartChar: d
Encoding: 100 100 67
Width: 588
VWidth: 0
Flags: MW
LayerCount: 2
Fore
SplineSet
508 742 m 5,0,-1
 483 717 l 5,1,-1
 483 142 l 5,2,3
 486 85 486 85 516 54 c 5,4,-1
 562 54 l 5,5,-1
 498 -8 l 5,6,7
 444 4 444 4 443 78 c 5,8,9
 389 -6 389 -6 317 -6 c 4,10,11
 221 -6 221 -6 138 68.5 c 132,-1,12
 55 143 55 143 55 241 c 4,13,14
 55 352 55 352 106 415.5 c 132,-1,15
 157 479 157 479 248 479 c 4,16,17
 271 479 271 479 331 455 c 132,-1,18
 391 431 391 431 401 421 c 5,19,-1
 401 742 l 5,20,-1
 508 742 l 5,0,-1
229 407 m 4,21,22
 136 407 136 407 136 234 c 4,23,24
 136 171 136 171 194.5 119 c 132,-1,25
 253 67 253 67 324 67 c 4,26,27
 343 67 343 67 358 77.5 c 132,-1,28
 373 88 373 88 381.5 109 c 132,-1,29
 390 130 390 130 395 149.5 c 132,-1,30
 400 169 400 169 402 200.5 c 132,-1,31
 404 232 404 232 404.5 249 c 132,-1,32
 405 266 405 266 405 296 c 4,33,34
 405 332 405 332 369.5 358.5 c 132,-1,35
 334 385 334 385 293.5 396 c 132,-1,36
 253 407 253 407 229 407 c 4,21,22
EndSplineSet
Validated: 3073
EndChar

StartChar: e
Encoding: 101 101 68
Width: 588
VWidth: 0
Flags: MW
LayerCount: 2
Fore
SplineSet
295 479 m 4,0,1
 332 479 332 479 366 467 c 132,-1,2
 400 455 400 455 423 437 c 132,-1,3
 446 419 446 419 463.5 397.5 c 132,-1,4
 481 376 481 376 491.5 350 c 132,-1,5
 502 324 502 324 502 310 c 5,6,-1
 176 126 l 5,7,8
 181 107 181 107 210 83 c 4,9,10
 222 73 222 73 245 64.5 c 132,-1,11
 268 56 268 56 295 56 c 4,12,13
 350 56 350 56 390.5 82 c 132,-1,14
 431 108 431 108 431 134 c 5,15,-1
 537 165 l 5,16,17
 512 99 512 99 448.5 46.5 c 132,-1,18
 385 -6 385 -6 295 -6 c 4,19,20
 197 -6 197 -6 134.5 62.5 c 132,-1,21
 72 131 72 131 72 236 c 4,22,23
 72 343 72 343 134.5 411 c 132,-1,24
 197 479 197 479 295 479 c 4,0,1
408 350 m 5,25,26
 408 353 408 353 406.5 357.5 c 132,-1,27
 405 362 405 362 397.5 373.5 c 132,-1,28
 390 385 390 385 379 394 c 132,-1,29
 368 403 368 403 346 410 c 132,-1,30
 324 417 324 417 295 417 c 4,31,32
 242 417 242 417 208.5 386 c 132,-1,33
 175 355 175 355 164.5 317 c 132,-1,34
 154 279 154 279 154 236 c 4,35,36
 154 205 154 205 156 185 c 5,37,-1
 408 350 l 5,25,26
EndSplineSet
Validated: 3073
EndChar

StartChar: f
Encoding: 102 102 69
Width: 588
VWidth: 0
Flags: MW
LayerCount: 2
Fore
SplineSet
377 745 m 0,0,1
 411 745 411 745 439.5 730.5 c 128,-1,2
 468 716 468 716 485.5 694.5 c 128,-1,3
 503 673 503 673 513 654.5 c 128,-1,4
 523 636 523 636 527 620 c 1,5,-1
 445 552 l 1,6,-1
 445 601 l 2,7,8
 445 673 445 673 377 673 c 0,9,10
 305 673 305 673 305 601 c 2,11,-1
 305 463 l 1,12,-1
 499 463 l 1,13,-1
 461 390 l 1,14,-1
 305 390 l 1,15,-1
 305 34 l 1,16,-1
 334 0 l 1,17,-1
 194 0 l 1,18,-1
 223 34 l 1,19,-1
 223 390 l 1,20,-1
 83 390 l 1,21,-1
 83 463 l 1,22,-1
 223 463 l 1,23,-1
 223 621 l 2,24,25
 223 671 223 671 264.5 708 c 128,-1,26
 306 745 306 745 377 745 c 0,0,1
EndSplineSet
Validated: 3073
EndChar

StartChar: g
Encoding: 103 103 70
Width: 588
VWidth: 0
Flags: MW
LayerCount: 2
Fore
SplineSet
418 128 m 1,0,1
 402 86 402 86 367 64.5 c 128,-1,2
 332 43 332 43 291 43 c 0,3,4
 204 43 204 43 144 111.5 c 128,-1,5
 84 180 84 180 84 264 c 0,6,7
 84 349 84 349 143 414 c 128,-1,8
 202 479 202 479 291 479 c 0,9,10
 332 479 332 479 367 459 c 128,-1,11
 402 439 402 439 418 397 c 1,12,-1
 418 473 l 5,13,-1
 514 473 l 1,14,-1
 490 446 l 1,15,-1
 490 -87 l 2,16,17
 490 -123 490 -123 433.5 -158.5 c 128,-1,18
 377 -194 377 -194 293 -195 c 0,19,20
 209 -195 209 -195 153.5 -154.5 c 128,-1,21
 98 -114 98 -114 84 -76 c 1,22,-1
 166 -8 l 1,23,-1
 166 -76 l 1,24,25
 171 -81 171 -81 181 -88.5 c 128,-1,26
 191 -96 191 -96 224 -109 c 128,-1,27
 257 -122 257 -122 293 -122 c 0,28,29
 352 -121 352 -121 385 -101 c 128,-1,30
 418 -81 418 -81 418 -52 c 2,31,-1
 418 128 l 1,0,1
291 407 m 0,32,33
 227 407 227 407 196.5 367.5 c 128,-1,34
 166 328 166 328 166 264 c 128,-1,35
 166 200 166 200 197 158 c 128,-1,36
 228 116 228 116 291 116 c 0,37,38
 402 116 402 116 402 264 c 0,39,40
 402 407 402 407 291 407 c 0,32,33
EndSplineSet
Validated: 3073
EndChar

StartChar: h
Encoding: 104 104 71
Width: 588
VWidth: 0
Flags: MW
LayerCount: 2
Fore
SplineSet
175 742 m 1,0,-1
 175 413 l 1,1,2
 201 442 201 442 239 460.5 c 128,-1,3
 277 479 277 479 311 479 c 0,4,5
 406 479 406 479 455 411.5 c 128,-1,6
 504 344 504 344 505 252 c 1,7,-1
 505 30 l 1,8,-1
 527 0 l 1,9,-1
 396 0 l 1,10,-1
 423 30 l 1,11,-1
 423 252 l 2,12,13
 423 407 423 407 311 407 c 0,14,15
 258 407 258 407 217.5 368 c 128,-1,16
 177 329 177 329 177 255 c 2,17,-1
 177 30 l 1,18,-1
 199 0 l 1,19,-1
 70 0 l 1,20,-1
 93 30 l 1,21,-1
 93 720 l 1,22,-1
 68 742 l 1,23,-1
 175 742 l 1,0,-1
EndSplineSet
Validated: 3073
EndChar

StartChar: i
Encoding: 105 105 72
Width: 588
VWidth: 0
Flags: MW
LayerCount: 2
Fore
SplineSet
270 693 m 152,-1,1
 291 693 291 693 312.5 674 c 128,-1,2
 334 655 334 655 334 630 c 128,-1,3
 334 605 334 605 312.5 586 c 128,-1,4
 291 567 291 567 270 567 c 128,-1,5
 249 567 249 567 227 585.5 c 128,-1,6
 205 604 205 604 205 630 c 128,-1,7
 205 656 205 656 227 674.5 c 128,-1,0
 249 693 249 693 270 693 c 152,-1,1
327 473 m 25,8,-1
 327 83 l 25,9,-1
 413 83 l 25,10,-1
 375 0 l 1,11,-1
 247 0 l 1,12,-1
 247 390 l 1,13,-1
 182 390 l 1,14,-1
 182 473 l 5,15,-1
 327 473 l 25,8,-1
EndSplineSet
Validated: 3073
EndChar

StartChar: j
Encoding: 106 106 73
Width: 588
VWidth: 0
Flags: MW
LayerCount: 2
Fore
SplineSet
444 697 m 24,0,1
 473 697 473 697 494.5 678 c 128,-1,2
 516 659 516 659 516 631 c 128,-1,3
 516 603 516 603 494.5 584 c 128,-1,4
 473 565 473 565 444 565 c 0,5,6
 414 565 414 565 392.5 583.5 c 128,-1,7
 371 602 371 602 371 631 c 128,-1,8
 371 660 371 660 392.5 678.5 c 128,-1,9
 414 697 414 697 444 697 c 24,0,1
102 35 m 0,10,11
 102 61 102 61 117 85 c 128,-1,12
 132 109 132 109 162 109 c 0,13,14
 177 109 177 109 202 99 c 128,-1,15
 227 89 227 89 227 78 c 128,-1,16
 227 67 227 67 205.5 55 c 128,-1,17
 184 43 184 43 184 25 c 0,18,19
 184 -125 184 -125 295 -125 c 0,20,21
 348 -125 348 -125 375.5 -87 c 128,-1,22
 403 -49 403 -49 403 12 c 2,23,-1
 403 443 l 5,24,-1
 380 473 l 5,25,-1
 507 473 l 5,26,-1
 485 443 l 5,27,-1
 485 12 l 2,28,29
 485 -76 485 -76 427 -137 c 128,-1,30
 369 -198 369 -198 295 -198 c 0,31,32
 213 -198 213 -198 157.5 -140.5 c 128,-1,33
 102 -83 102 -83 102 35 c 0,10,11
EndSplineSet
Validated: 3073
EndChar

StartChar: k
Encoding: 107 107 74
Width: 588
VWidth: 0
Flags: MW
LayerCount: 2
Fore
SplineSet
388 441 m 5,0,-1
 364 473 l 1,1,-1
 493 473 l 1,2,-1
 470 441 l 5,3,4
 469 341 469 341 353 274 c 1,5,6
 414 232 414 232 451.5 166.5 c 128,-1,7
 489 101 489 101 493 30 c 1,8,-1
 516 0 l 1,9,-1
 388 0 l 1,10,-1
 414 30 l 1,11,12
 411 154 411 154 302 237 c 1,13,-1
 177 237 l 1,14,-1
 177 30 l 1,15,-1
 199 0 l 1,16,-1
 73 0 l 1,17,-1
 95 30 l 1,18,-1
 95 714 l 1,19,-1
 73 742 l 1,20,-1
 199 742 l 1,21,-1
 177 714 l 1,22,-1
 177 309 l 1,23,-1
 281 309 l 1,24,25
 342 335 342 335 365 367.5 c 128,-1,26
 388 400 388 400 388 441 c 5,0,-1
EndSplineSet
Validated: 3073
EndChar

StartChar: l
Encoding: 108 108 75
Width: 588
VWidth: 0
Flags: MW
LayerCount: 2
Fore
SplineSet
285 742 m 29,0,-1
 260 714 l 1,1,2
 260 158 l 2,3,4
 260 132 260 132 261.5 119.5 c 128,-1,5
 263 107 263 107 269 92.5 c 128,-1,6
 275 78 275 78 289 72.5 c 128,-1,7
 303 67 303 67 327 67 c 0,8,9
 396 67 396 67 396 123 c 2,10,-1
 396 191 l 1,11,-1
 478 108 l 1,12,13
 468 71 468 71 429 32.5 c 128,-1,14
 390 -6 390 -6 327 -6 c 0,15,16
 291 -6 291 -6 265.5 0.5 c 128,-1,17
 240 7 240 7 223.5 23.5 c 128,-1,18
 207 40 207 40 197.5 56.5 c 128,-1,19
 188 73 188 73 184 105.5 c 128,-1,20
 180 138 180 138 179 163 c 128,-1,21
 178 188 178 188 178 234 c 2,22,-1
 178 714 l 1,23,-1
 153 742 l 1,24,-1
 285 742 l 29,0,-1
EndSplineSet
Validated: 3073
EndChar

StartChar: m
Encoding: 109 109 76
Width: 588
VWidth: 0
Flags: MW
LayerCount: 2
Fore
SplineSet
122 473 m 25,0,-1
 122 432 l 1,1,2
 130 448 130 448 155 463.5 c 128,-1,3
 180 479 180 479 197 479 c 4,4,5
 228 478 228 478 250.5 462.5 c 128,-1,6
 273 447 273 447 297 415 c 1,7,8
 345 478 345 478 402 479 c 0,9,10
 445 479 445 479 481.5 451 c 128,-1,11
 518 423 518 423 529.5 380 c 128,-1,12
 541 337 541 337 546 303 c 128,-1,13
 551 269 551 269 551 240 c 2,14,-1
 551 30 l 1,15,-1
 576 0 l 1,16,-1
 446 0 l 1,17,-1
 469 30 l 1,18,-1
 469 240 l 2,19,20
 469 407 469 407 402 407 c 0,21,22
 339 407 339 407 339 240 c 2,23,-1
 339 30 l 1,24,-1
 360 0 l 1,25,-1
 231 0 l 1,26,-1
 257 30 l 1,27,-1
 257 240 l 2,28,29
 257 407 257 407 195 407 c 0,30,31
 122 407 122 407 122 240 c 2,32,-1
 122 30 l 1,33,-1
 145 0 l 1,34,-1
 15 0 l 1,35,-1
 40 30 l 1,36,-1
 40 448 l 1,37,-1
 14 473 l 1,38,-1
 122 473 l 25,0,-1
EndSplineSet
Validated: 3073
EndChar

StartChar: n
Encoding: 110 110 77
Width: 588
VWidth: 0
Flags: MW
LayerCount: 2
Fore
SplineSet
306 479 m 0,0,1
 374 479 374 479 420.5 442 c 128,-1,2
 467 405 467 405 486.5 351.5 c 128,-1,3
 506 298 506 298 506 232 c 2,4,-1
 506 30 l 1,5,-1
 530 0 l 1,6,-1
 399 0 l 1,7,-1
 424 30 l 1,8,-1
 424 232 l 2,9,10
 424 316 424 316 393.5 363.5 c 128,-1,11
 363 411 363 411 306 411 c 0,12,13
 237 411 237 411 211.5 365.5 c 128,-1,14
 186 320 186 320 186 232 c 2,15,-1
 186 30 l 1,16,-1
 210 0 l 1,17,-1
 83 0 l 1,18,-1
 104 30 l 1,19,-1
 104 448 l 1,20,-1
 79 473 l 5,21,-1
 185 473 l 5,22,-1
 185 420 l 1,23,24
 239 479 239 479 306 479 c 0,0,1
EndSplineSet
Validated: 3073
EndChar

StartChar: o
Encoding: 111 111 78
Width: 588
VWidth: 0
Flags: MW
LayerCount: 2
Fore
SplineSet
289 417 m 4,0,1
 164 417 164 417 164 230 c 4,2,3
 164 147 164 147 192 101.5 c 132,-1,4
 220 56 220 56 289 56 c 4,5,6
 359 56 359 56 392 102.5 c 132,-1,7
 425 149 425 149 425 230 c 4,8,9
 425 313 425 313 391.5 365 c 132,-1,10
 358 417 358 417 289 417 c 4,0,1
289 479 m 4,11,12
 384 479 384 479 450.5 402.5 c 132,-1,13
 517 326 517 326 517 230 c 4,14,15
 517 136 517 136 451 65 c 132,-1,16
 385 -6 385 -6 289 -6 c 4,17,18
 194 -6 194 -6 133 64 c 132,-1,19
 72 134 72 134 72 230 c 4,20,21
 72 327 72 327 133.5 403 c 132,-1,22
 195 479 195 479 289 479 c 4,11,12
EndSplineSet
Validated: 3073
EndChar

StartChar: p
Encoding: 112 112 79
Width: 588
VWidth: 0
Flags: MW
LayerCount: 2
Fore
SplineSet
341 479 m 0,0,1
 427 479 427 479 482.5 401 c 128,-1,2
 538 323 538 323 538 234 c 0,3,4
 538 147 538 147 482 70.5 c 128,-1,5
 426 -6 426 -6 341 -6 c 0,6,7
 298 -6 298 -6 259 13.5 c 128,-1,8
 220 33 220 33 204 74 c 1,9,-1
 204 -174 l 1,10,-1
 228 -205 l 1,11,-1
 101 -205 l 1,12,-1
 127 -174 l 1,13,-1
 127 448 l 5,14,-1
 101 473 l 5,15,-1
 204 473 l 5,16,-1
 204 402 l 1,17,18
 234 479 234 479 341 479 c 0,0,1
341 407 m 0,19,20
 280 407 280 407 247 354 c 128,-1,21
 214 301 214 301 214 234 c 0,22,23
 214 169 214 169 247 118 c 128,-1,24
 280 67 280 67 341 67 c 128,-1,25
 402 67 402 67 431.5 116.5 c 128,-1,26
 461 166 461 166 461 234 c 0,27,28
 461 304 461 304 432 355.5 c 128,-1,29
 403 407 403 407 341 407 c 0,19,20
EndSplineSet
Validated: 3073
EndChar

StartChar: q
Encoding: 113 113 80
Width: 588
VWidth: 0
Flags: MW
LayerCount: 2
Fore
SplineSet
496 473 m 5,0,-1
 473 450 l 1,1,-1
 473 4 l 2,2,3
 473 -146 473 -146 524 -147 c 1,4,5
 577 -147 577 -147 577 -61 c 1,6,-1
 658 -89 l 1,7,8
 648 -126 648 -126 611.5 -165.5 c 128,-1,9
 575 -205 575 -205 519 -205 c 0,10,11
 396 -204 396 -204 396 4 c 2,12,-1
 396 74 l 1,13,14
 380 33 380 33 341.5 13.5 c 128,-1,15
 303 -6 303 -6 260 -6 c 0,16,17
 175 -6 175 -6 120.5 70.5 c 128,-1,18
 66 147 66 147 66 234 c 0,19,20
 66 291 66 291 88.5 346 c 128,-1,21
 111 401 111 401 156.5 440 c 128,-1,22
 202 479 202 479 260 479 c 0,23,24
 366 479 366 479 396 402 c 1,25,-1
 396 473 l 1,26,-1
 496 473 l 5,0,-1
260 407 m 128,-1,28
 199 407 199 407 173 356.5 c 128,-1,29
 147 306 147 306 147 234 c 0,30,31
 147 164 147 164 173 115.5 c 128,-1,32
 199 67 199 67 260 67 c 128,-1,33
 321 67 321 67 355 118 c 128,-1,34
 389 169 389 169 389 234 c 0,35,36
 389 301 389 301 355 354 c 128,-1,27
 321 407 321 407 260 407 c 128,-1,28
EndSplineSet
Validated: 3073
EndChar

StartChar: r
Encoding: 114 114 81
Width: 588
VWidth: 0
Flags: MW
LayerCount: 2
Fore
SplineSet
316 479 m 0,0,1
 406 478 406 478 458 424 c 128,-1,2
 510 370 510 370 511 319 c 0,3,4
 511 299 511 299 487.5 284 c 128,-1,5
 464 269 464 269 430 269 c 0,6,7
 419 269 419 269 412.5 278 c 128,-1,8
 406 287 406 287 406 293 c 0,9,10
 406 302 406 302 417.5 312 c 128,-1,11
 429 322 429 322 429 330 c 0,12,13
 429 370 429 370 396 388.5 c 128,-1,14
 363 407 363 407 316 407 c 0,15,16
 276 407 276 407 246 384.5 c 128,-1,17
 216 362 216 362 202 329 c 128,-1,18
 188 296 188 296 181.5 267 c 128,-1,19
 175 238 175 238 175 215 c 2,20,-1
 175 32 l 1,21,-1
 200 0 l 1,22,-1
 71 0 l 1,23,-1
 93 32 l 1,24,-1
 93 450 l 1,25,26
 69 469 69 469 69 473 c 5,27,-1
 175 473 l 1,28,-1
 175 399 l 1,29,30
 185 426 185 426 232.5 452.5 c 128,-1,31
 280 479 280 479 316 479 c 0,0,1
EndSplineSet
Validated: 3073
EndChar

StartChar: s
Encoding: 115 115 82
Width: 588
VWidth: 0
Flags: MW
LayerCount: 2
Fore
SplineSet
386 479 m 6,0,1
 406 479 406 479 454 454 c 4,2,3
 472 445 472 445 486 418 c 132,-1,4
 500 391 500 391 501 369 c 4,5,6
 501 348 501 348 487.5 338.5 c 132,-1,7
 474 329 474 329 441 329 c 4,8,9
 429 329 429 329 419.5 332.5 c 132,-1,10
 410 336 410 336 410 341 c 4,11,12
 410 350 410 350 421.5 355.5 c 132,-1,13
 433 361 433 361 433 369 c 4,14,15
 433 380 433 380 415.5 393.5 c 132,-1,16
 398 407 398 407 377 407 c 6,17,-1
 236 407 l 6,18,19
 203 407 203 407 186 390 c 132,-1,20
 169 373 169 373 169 345 c 4,21,22
 169 316 169 316 186 298.5 c 132,-1,23
 203 281 203 281 236 281 c 6,24,-1
 358 281 l 6,25,26
 418 281 418 281 459.5 239 c 132,-1,27
 501 197 501 197 501 142 c 132,-1,28
 501 87 501 87 458.5 40.5 c 132,-1,29
 416 -6 416 -6 358 -6 c 6,30,-1
 201 -6 l 6,31,32
 186 -6 186 -6 136 19 c 4,33,34
 118 28 118 28 103 55.5 c 132,-1,35
 88 83 88 83 87 104 c 5,36,37
 87 144 87 144 155 144 c 4,38,39
 180 144 180 144 180 132 c 4,40,41
 180 123 180 123 167.5 117.5 c 132,-1,42
 155 112 155 112 155 104 c 4,43,44
 155 94 155 94 173.5 80.5 c 132,-1,45
 192 67 192 67 213 67 c 6,46,-1
 360 67 l 6,47,48
 419 67 419 67 419 136 c 4,49,50
 419 167 419 167 404.5 187.5 c 132,-1,51
 390 208 390 208 358 208 c 6,52,-1
 245 208 l 6,53,54
 184 208 184 208 135.5 250 c 132,-1,55
 87 292 87 292 87 345 c 132,-1,56
 87 398 87 398 135 438.5 c 132,-1,57
 183 479 183 479 245 479 c 6,58,-1
 386 479 l 6,0,1
EndSplineSet
Validated: 3073
EndChar

StartChar: t
Encoding: 116 116 83
Width: 588
VWidth: 0
Flags: MW
LayerCount: 2
Fore
SplineSet
310 742 m 1,0,-1
 288 713 l 1,1,-1
 288 463 l 1,2,-1
 510 463 l 1,3,-1
 472 390 l 1,4,-1
 288 390 l 1,5,-1
 288 164 l 2,6,7
 288 143 288 143 288 132 c 128,-1,8
 288 121 288 121 292 106.5 c 128,-1,9
 296 92 296 92 302.5 85 c 128,-1,10
 309 78 309 78 322 72.5 c 128,-1,11
 335 67 335 67 354 67 c 0,12,13
 376 67 376 67 394 85 c 128,-1,14
 412 103 412 103 420 121 c 2,15,-1
 427 139 l 1,16,-1
 427 208 l 1,17,-1
 501 134 l 1,18,19
 495 112 495 112 477 82 c 128,-1,20
 459 52 459 52 423.5 23 c 128,-1,21
 388 -6 388 -6 349 -6 c 0,22,23
 293 -6 293 -6 249.5 27.5 c 128,-1,24
 206 61 206 61 206 119 c 2,25,-1
 206 390 l 1,26,-1
 78 390 l 1,27,-1
 78 463 l 1,28,-1
 206 463 l 1,29,-1
 206 713 l 1,30,-1
 178 742 l 1,31,-1
 310 742 l 1,0,-1
EndSplineSet
Validated: 3073
EndChar

StartChar: u
Encoding: 117 117 84
Width: 588
VWidth: 0
Flags: MW
LayerCount: 2
Fore
SplineSet
520 473 m 29,0,-1
 498 442 l 5,1,-1
 498 15 l 1,2,-1
 522 -6 l 1,3,-1
 416 -6 l 1,4,-1
 416 63 l 1,5,6
 353 -6 353 -6 289 -6 c 0,7,8
 190 -6 190 -6 140 66.5 c 128,-1,9
 90 139 90 139 90 242 c 2,10,-1
 90 442 l 5,11,-1
 67 473 l 5,12,-1
 198 473 l 5,13,-1
 172 442 l 5,14,15
 172 248 l 2,16,17
 172 163 172 163 202 115 c 128,-1,18
 232 67 232 67 289 67 c 0,19,20
 353 67 353 67 384.5 116 c 128,-1,21
 416 165 416 165 416 248 c 2,22,-1
 416 442 l 5,23,-1
 393 473 l 5,24,-1
 520 473 l 29,0,-1
EndSplineSet
Validated: 3073
EndChar

StartChar: v
Encoding: 118 118 85
Width: 588
VWidth: 0
Flags: MW
LayerCount: 2
Fore
SplineSet
521 473 m 29,0,-1
 496 441 l 5,1,-1
 496 369 l 2,2,3
 496 288 496 288 432.5 163 c 128,-1,4
 369 38 369 38 295 -6 c 1,5,6
 221 38 221 38 157 163 c 128,-1,7
 93 288 93 288 93 369 c 2,8,-1
 93 441 l 5,9,-1
 68 473 l 5,10,-1
 202 473 l 5,11,-1
 175 441 l 5,12,-1
 175 369 l 2,13,14
 175 313 175 313 213.5 213 c 128,-1,15
 252 113 252 113 295 75 c 1,16,17
 337 113 337 113 375.5 213 c 128,-1,18
 414 313 414 313 414 369 c 2,19,-1
 414 441 l 5,20,-1
 385 473 l 5,21,-1
 521 473 l 29,0,-1
EndSplineSet
Validated: 3073
EndChar

StartChar: w
Encoding: 119 119 86
Width: 588
VWidth: 0
Flags: MW
LayerCount: 2
Fore
SplineSet
556 473 m 25,0,-1
 534 441 l 1,1,-1
 534 217 l 2,2,3
 534 37 534 37 400 -6 c 1,4,5
 358 15 358 15 331.5 39 c 128,-1,6
 305 63 305 63 294 99 c 1,7,8
 273 32 273 32 197 -6 c 1,9,10
 55 40 55 40 55 217 c 2,11,-1
 55 441 l 1,12,-1
 33 473 l 5,13,-1
 161 473 l 1,14,-1
 137 441 l 1,15,-1
 137 217 l 2,16,17
 137 156 137 156 147 125 c 128,-1,18
 157 94 157 94 197 67 c 1,19,20
 235 101 235 101 244.5 130 c 128,-1,21
 254 159 254 159 254 217 c 2,22,-1
 254 441 l 1,23,-1
 228 473 l 1,24,-1
 357 473 l 1,25,-1
 335 441 l 1,26,-1
 335 217 l 2,27,28
 335 163 335 163 347.5 133 c 128,-1,29
 360 103 360 103 400 67 c 1,30,31
 425 84 425 84 436.5 109 c 128,-1,32
 448 134 448 134 449.5 153 c 128,-1,33
 451 172 451 172 452 217 c 1,34,-1
 452 441 l 1,35,-1
 427 473 l 1,36,-1
 556 473 l 25,0,-1
EndSplineSet
Validated: 3073
EndChar

StartChar: x
Encoding: 120 120 87
Width: 588
VWidth: 0
Flags: MW
LayerCount: 2
Fore
SplineSet
292 292 m 1,0,-1
 420 447 l 1,1,-1
 425 489 l 1,2,-1
 517 399 l 1,3,-1
 478 394 l 1,4,-1
 346 236 l 1,5,-1
 477 78 l 1,6,-1
 517 74 l 1,7,-1
 425 -27 l 1,8,-1
 420 25 l 1,9,-1
 292 180 l 1,10,-1
 167 25 l 1,11,-1
 162 -27 l 1,12,-1
 70 74 l 1,13,-1
 110 78 l 1,14,-1
 241 236 l 1,15,-1
 109 394 l 1,16,-1
 70 399 l 1,17,-1
 162 489 l 1,18,-1
 167 447 l 1,19,-1
 292 292 l 1,0,-1
EndSplineSet
Validated: 3073
EndChar

StartChar: y
Encoding: 121 121 88
Width: 588
VWidth: 0
Flags: MW
LayerCount: 2
Fore
SplineSet
520 473 m 29,0,-1
 497 442 l 5,1,-1
 497 10 l 2,2,3
 497 -98 497 -98 442.5 -151.5 c 128,-1,4
 388 -205 388 -205 289 -205 c 1,5,6
 218 -204 218 -204 162.5 -166 c 128,-1,7
 107 -128 107 -128 104 -59 c 1,8,-1
 167 -23 l 1,9,10
 167 -132 167 -132 289 -132 c 0,11,12
 358 -132 358 -132 388 -95 c 128,-1,13
 418 -58 418 -58 418 20 c 2,14,-1
 418 110 l 1,15,16
 406 76 406 76 367.5 58.5 c 128,-1,17
 329 41 329 41 289 41 c 0,18,19
 190 41 190 41 141.5 107.5 c 128,-1,20
 93 174 93 174 93 272 c 2,21,-1
 93 442 l 5,22,-1
 70 473 l 5,23,-1
 202 473 l 5,24,-1
 175 442 l 5,25,-1
 175 272 l 2,26,27
 175 190 175 190 203 152 c 128,-1,28
 231 114 231 114 289 114 c 0,29,30
 415 114 415 114 415 272 c 2,31,-1
 415 442 l 5,32,-1
 392 473 l 5,33,-1
 520 473 l 29,0,-1
EndSplineSet
Validated: 3073
EndChar

StartChar: z
Encoding: 122 122 89
Width: 588
VWidth: 0
Flags: MW
LayerCount: 2
Fore
SplineSet
517 471 m 21,0,1
 514 366 514 366 174 78 c 5,2,3
 396 65 l 5,4,5
 433 72 433 72 433 84 c 4,6,7
 433 92 433 92 421 97 c 132,-1,8
 409 102 409 102 409 111 c 4,9,10
 409 124 409 124 433 124 c 4,11,12
 465 124 465 124 483.5 106.5 c 132,-1,13
 502 89 502 89 502 67 c 4,14,15
 500 18 500 18 464 -1 c 4,16,17
 439 -14 439 -14 407 -14 c 5,18,19
 234 5 234 5 152 5 c 4,20,21
 72 5 72 5 72 78 c 5,22,23
 94 107 94 107 166 172 c 132,-1,24
 238 237 238 237 305.5 298.5 c 132,-1,25
 373 360 373 360 393 399 c 5,26,-1
 187 399 l 5,27,28
 152 392 152 392 152 380 c 4,29,30
 152 372 152 372 163 366 c 132,-1,31
 174 360 174 360 174 351 c 4,32,33
 174 337 174 337 152 337 c 4,34,35
 120 337 120 337 101 354 c 132,-1,36
 82 371 82 371 82 393 c 4,37,38
 84 437 84 437 122 457 c 4,39,40
 149 471 149 471 177 471 c 6,41,-1
 517 471 l 21,0,1
EndSplineSet
Validated: 3073
EndChar

StartChar: braceleft
Encoding: 123 123 90
Width: 588
VWidth: 0
Flags: MW
LayerCount: 2
Fore
SplineSet
411 819 m 9,0,-1
 411 737 l 1,1,2
 382 737 382 737 363.5 725 c 128,-1,3
 345 713 345 713 341 701 c 2,4,-1
 337 689 l 1,5,6
 368 553 368 553 368 520 c 0,7,8
 368 502 368 502 352.5 479.5 c 128,-1,9
 337 457 337 457 309.5 425 c 128,-1,10
 282 393 282 393 268 373 c 1,11,12
 282 351 282 351 309.5 315 c 128,-1,13
 337 279 337 279 352.5 254 c 128,-1,14
 368 229 368 229 368 211 c 1,15,-1
 337 42 l 2,16,17
 337 40 337 40 338.5 37 c 128,-1,18
 340 34 340 34 345 25.5 c 128,-1,19
 350 17 350 17 357.5 10.5 c 128,-1,20
 365 4 365 4 379 -1 c 128,-1,21
 393 -6 393 -6 411 -6 c 1,22,-1
 411 -88 l 1,23,24
 379 -88 379 -88 351 -75.5 c 128,-1,25
 323 -63 323 -63 306 -45.5 c 128,-1,26
 289 -28 289 -28 277 -10 c 0,27,28
 264 8 264 8 260 20 c 2,29,-1
 256 32 l 1,30,31
 286 181 286 181 286 211 c 0,32,33
 286 228 286 228 269 253 c 128,-1,34
 252 278 252 278 220.5 314.5 c 128,-1,35
 189 351 189 351 174 373 c 1,36,37
 189 393 189 393 220.5 424.5 c 128,-1,38
 252 456 252 456 269 478.5 c 128,-1,39
 286 501 286 501 286 520 c 1,40,-1
 256 698 l 1,41,42
 258 703 258 703 261.5 711 c 128,-1,43
 265 719 265 719 278 740 c 128,-1,44
 291 761 291 761 307 777 c 128,-1,45
 323 793 323 793 351 806 c 128,-1,46
 379 819 379 819 411 819 c 9,0,-1
EndSplineSet
Validated: 3073
EndChar

StartChar: bar
Encoding: 124 124 91
Width: 588
VWidth: 0
Flags: MW
LayerCount: 2
Fore
SplineSet
335 819 m 29,0,-1
 335 -88 l 1,1,-1
 253 -88 l 1,2,-1
 253 819 l 5,3,-1
 335 819 l 29,0,-1
EndSplineSet
Validated: 3073
EndChar

StartChar: braceright
Encoding: 125 125 92
Width: 588
VWidth: 0
Flags: MW
LayerCount: 2
Fore
SplineSet
178 819 m 17,0,1
 210 819 210 819 237.5 806.5 c 128,-1,2
 265 794 265 794 282 776 c 128,-1,3
 299 758 299 758 311 740 c 128,-1,4
 323 722 323 722 328 710 c 2,5,-1
 333 698 l 1,6,-1
 303 520 l 1,7,8
 303 501 303 501 320 478.5 c 128,-1,9
 337 456 337 456 368.5 424.5 c 128,-1,10
 400 393 400 393 415 373 c 1,11,12
 400 351 400 351 368.5 314.5 c 128,-1,13
 337 278 337 278 320 253 c 128,-1,14
 303 228 303 228 303 211 c 0,15,16
 303 198 303 198 310.5 153 c 128,-1,17
 318 108 318 108 326 70 c 2,18,-1
 333 32 l 1,19,20
 331 27 331 27 328 19 c 128,-1,21
 325 11 325 11 312 -9.5 c 128,-1,22
 299 -30 299 -30 283 -46 c 128,-1,23
 267 -62 267 -62 238.5 -75 c 128,-1,24
 210 -88 210 -88 178 -88 c 1,25,-1
 178 -6 l 1,26,27
 206 -6 206 -6 224 6 c 0,28,29
 244 18 244 18 248 30 c 2,30,-1
 252 42 l 1,31,-1
 221 211 l 1,32,33
 221 229 221 229 236.5 254 c 128,-1,34
 252 279 252 279 279.5 315 c 128,-1,35
 307 351 307 351 321 373 c 1,36,37
 307 393 307 393 279.5 425 c 128,-1,38
 252 457 252 457 236.5 479.5 c 128,-1,39
 221 502 221 502 221 520 c 0,40,41
 221 535 221 535 228.5 577 c 128,-1,42
 236 619 236 619 244 654 c 2,43,-1
 252 689 l 2,44,45
 252 691 252 691 251 694 c 128,-1,46
 250 697 250 697 245 705.5 c 128,-1,47
 240 714 240 714 232.5 720.5 c 128,-1,48
 225 727 225 727 210.5 732 c 128,-1,49
 196 737 196 737 178 737 c 1,50,-1
 178 819 l 17,0,1
EndSplineSet
Validated: 3073
EndChar

StartChar: asciitilde
Encoding: 126 126 93
Width: 588
VWidth: 0
Flags: MW
LayerCount: 2
Fore
SplineSet
505 424 m 1,0,1
 536 424 536 424 536 387 c 0,2,3
 536 361 536 361 491 327 c 128,-1,4
 446 293 446 293 404 293 c 0,5,6
 381 293 381 293 290.5 342 c 128,-1,7
 200 391 200 391 185 391 c 0,8,9
 170 390 170 390 144 376 c 128,-1,10
 118 362 118 362 100 347 c 2,11,-1
 82 332 l 1,12,13
 54 332 54 332 54 369 c 0,14,15
 54 395 54 395 98.5 429 c 128,-1,16
 143 463 143 463 185 463 c 0,17,18
 208 463 208 463 298.5 414.5 c 128,-1,19
 389 366 389 366 404 366 c 128,-1,20
 419 366 419 366 444 380 c 0,21,22
 469 396 469 396 487 410 c 2,23,-1
 505 424 l 1,0,1
EndSplineSet
Validated: 3073
EndChar

StartChar: plusminus
Encoding: 177 177 94
Width: 588
VWidth: 0
Flags: MW
LayerCount: 2
Fore
SplineSet
505 74 m 2,0,1
 536 74 536 74 536 37 c 128,-1,2
 536 0 536 0 505 0 c 2,3,-1
 82 0 l 2,4,5
 54 0 54 0 54 37 c 128,-1,6
 54 74 54 74 82 74 c 2,7,-1
 505 74 l 2,0,1
295 539 m 0,8,9
 335 539 335 539 335 513 c 2,10,-1
 335 359 l 1,11,-1
 505 359 l 2,12,13
 536 359 536 359 536 324 c 0,14,15
 536 288 536 288 505 288 c 2,16,-1
 335 288 l 1,17,-1
 335 134 l 2,18,19
 335 109 335 109 295 109 c 0,20,21
 253 109 253 109 253 134 c 2,22,-1
 253 288 l 1,23,-1
 82 288 l 2,24,25
 54 288 54 288 54 324 c 0,26,27
 54 359 54 359 82 359 c 2,28,-1
 253 359 l 1,29,-1
 253 513 l 2,30,31
 253 539 253 539 295 539 c 0,8,9
EndSplineSet
Validated: 3073
EndChar

StartChar: periodcentered
Encoding: 183 183 95
Width: 588
VWidth: 0
Flags: MW
LayerCount: 2
Fore
SplineSet
295 416 m 152,-1,1
 309 416 309 416 318.5 405.5 c 128,-1,2
 328 395 328 395 328 380 c 128,-1,3
 328 365 328 365 318.5 354.5 c 128,-1,4
 309 344 309 344 295 344 c 128,-1,5
 281 344 281 344 271.5 354.5 c 128,-1,6
 262 365 262 365 262 380 c 128,-1,7
 262 395 262 395 271.5 405.5 c 128,-1,0
 281 416 281 416 295 416 c 152,-1,1
EndSplineSet
Validated: 3073
EndChar

StartChar: exclamdown
Encoding: 161 161 97
Width: 588
VWidth: 0
Flags: MW
LayerCount: 2
Fore
SplineSet
295 564 m 0,0,1
 335 564 335 564 335 539 c 0,2,3
 335 476 335 476 345.5 281 c 128,-1,4
 356 86 356 86 356 23 c 0,5,6
 356 11 356 11 336.5 3.5 c 128,-1,7
 317 -4 317 -4 295 -4 c 128,-1,8
 273 -4 273 -4 252 3.5 c 128,-1,9
 231 11 231 11 231 23 c 0,10,11
 231 86 231 86 242 281 c 128,-1,12
 253 476 253 476 253 539 c 0,13,14
 253 564 253 564 295 564 c 0,0,1
295 741 m 152,-1,16
 318 741 318 741 331.5 725.5 c 128,-1,17
 345 710 345 710 345 687 c 128,-1,18
 345 664 345 664 331.5 647.5 c 128,-1,19
 318 631 318 631 295 631 c 128,-1,20
 272 631 272 631 257.5 647.5 c 128,-1,21
 243 664 243 664 243 687 c 128,-1,22
 243 710 243 710 257.5 725.5 c 128,-1,15
 272 741 272 741 295 741 c 152,-1,16
EndSplineSet
Validated: 3073
EndChar

StartChar: uniFF01
Encoding: 65281 65281 98
Width: 1176
VWidth: 0
Flags: MW
LayerCount: 2
Fore
SplineSet
590 126 m 24,0,1
 648 126 648 126 691 106.5 c 128,-1,2
 734 87 734 87 734 59 c 128,-1,3
 734 31 734 31 691 12.5 c 128,-1,4
 648 -6 648 -6 590 -6 c 0,5,6
 530 -6 530 -6 486 12.5 c 128,-1,7
 442 31 442 31 442 59 c 0,8,9
 442 88 442 88 486 107 c 128,-1,10
 530 126 530 126 590 126 c 24,0,1
590 749 m 128,-1,12
 634 749 634 749 673 741.5 c 128,-1,13
 712 734 712 734 712 722 c 0,14,15
 712 659 712 659 691 464 c 128,-1,16
 670 269 670 269 670 206 c 0,17,18
 670 180 670 180 590 180 c 0,19,20
 506 180 506 180 506 206 c 0,21,22
 506 269 506 269 484 464 c 128,-1,23
 462 659 462 659 462 722 c 0,24,25
 462 734 462 734 504 741.5 c 128,-1,11
 546 749 546 749 590 749 c 128,-1,12
EndSplineSet
Validated: 3073
EndChar

StartChar: uniFF02
Encoding: 65282 65282 99
Width: 1176
VWidth: 0
Flags: MW
LayerCount: 2
Fore
SplineSet
821 799 m 128,-1,1
 867 799 867 799 901 785 c 128,-1,2
 935 771 935 771 935 753 c 0,3,4
 935 727 935 727 927 679 c 128,-1,5
 919 631 919 631 891 574.5 c 128,-1,6
 863 518 863 518 821 518 c 0,7,8
 789 518 789 518 765 549.5 c 128,-1,9
 741 581 741 581 730 625.5 c 128,-1,10
 719 670 719 670 714 703 c 128,-1,11
 709 736 709 736 709 753 c 0,12,13
 709 771 709 771 742 785 c 128,-1,0
 775 799 775 799 821 799 c 128,-1,1
351 799 m 128,-1,15
 397 799 397 799 431 785 c 128,-1,16
 465 771 465 771 465 753 c 0,17,18
 465 727 465 727 457 679 c 128,-1,19
 449 631 449 631 421 574.5 c 128,-1,20
 393 518 393 518 351 518 c 0,21,22
 319 518 319 518 295 549.5 c 128,-1,23
 271 581 271 581 260 626 c 128,-1,24
 249 671 249 671 245 703 c 128,-1,25
 241 735 241 735 241 753 c 128,-1,26
 241 771 241 771 273 785 c 128,-1,14
 305 799 305 799 351 799 c 128,-1,15
EndSplineSet
Validated: 3073
EndChar

StartChar: uniFF03
Encoding: 65283 65283 100
Width: 1176
VWidth: 0
Flags: MW
LayerCount: 2
Fore
SplineSet
802 158 m 1,0,-1
 768 44 l 1,1,-1
 614 44 l 1,2,-1
 646 158 l 1,3,-1
 388 158 l 1,4,-1
 350 44 l 1,5,-1
 192 44 l 1,6,-1
 230 158 l 1,7,-1
 70 158 l 1,8,-1
 88 228 l 1,9,-1
 250 228 l 1,10,-1
 320 439 l 1,11,-1
 128 439 l 1,12,-1
 146 509 l 1,13,-1
 338 509 l 1,14,-1
 368 622 l 1,15,-1
 522 622 l 1,16,-1
 496 509 l 1,17,-1
 754 509 l 1,18,-1
 784 622 l 1,19,-1
 938 622 l 1,20,-1
 912 509 l 1,21,-1
 1106 509 l 1,22,-1
 1084 439 l 1,23,-1
 890 439 l 1,24,-1
 820 228 l 1,25,-1
 1048 228 l 1,26,-1
 1026 158 l 1,27,-1
 802 158 l 1,0,-1
668 228 m 1,28,-1
 738 439 l 1,29,-1
 474 439 l 1,30,-1
 404 228 l 1,31,-1
 668 228 l 1,28,-1
EndSplineSet
Validated: 3073
EndChar

StartChar: uniFF04
Encoding: 65284 65284 101
Width: 1176
VWidth: 0
Flags: MW
LayerCount: 2
Fore
SplineSet
1005 741 m 1,0,-1
 1093 669 l 1,1,-1
 669 669 l 1,2,-1
 669 453 l 1,3,4
 869 453 869 453 981 389 c 128,-1,5
 1093 325 1093 325 1093 228 c 128,-1,6
 1093 131 1093 131 980 65.5 c 128,-1,7
 867 0 867 0 669 0 c 1,8,-1
 669 -88 l 1,9,-1
 505 -88 l 1,10,-1
 505 0 l 1,11,-1
 83 0 l 1,12,-1
 171 74 l 1,13,-1
 505 74 l 1,14,-1
 505 379 l 1,15,16
 333 379 333 379 208 428 c 128,-1,17
 83 477 83 477 83 560 c 128,-1,18
 83 643 83 643 208 691 c 128,-1,19
 333 739 333 739 505 739 c 1,20,-1
 505 819 l 1,21,-1
 669 819 l 1,22,-1
 669 741 l 1,23,-1
 1005 741 l 1,0,-1
505 669 m 1,24,25
 387 669 387 669 317 641.5 c 128,-1,26
 247 614 247 614 247 561 c 128,-1,27
 247 508 247 508 317 480.5 c 128,-1,28
 387 453 387 453 505 453 c 1,29,-1
 505 669 l 1,24,25
669 78 m 1,30,31
 799 78 799 78 864 120 c 128,-1,32
 929 162 929 162 929 228 c 0,33,34
 929 295 929 295 865 337 c 128,-1,35
 801 379 801 379 669 379 c 1,36,-1
 669 78 l 1,30,31
EndSplineSet
Validated: 3073
EndChar

StartChar: uniFF05
Encoding: 65285 65285 102
Width: 1176
VWidth: 0
Flags: MW
LayerCount: 2
Fore
SplineSet
838 231 m 128,-1,1
 802 231 802 231 779 223 c 128,-1,2
 756 215 756 215 747 197.5 c 128,-1,3
 738 180 738 180 736 167.5 c 128,-1,4
 734 155 734 155 734 133 c 128,-1,5
 734 111 734 111 736 99 c 128,-1,6
 738 87 738 87 747 69.5 c 128,-1,7
 756 52 756 52 779 44 c 128,-1,8
 802 36 802 36 838 36 c 128,-1,9
 874 36 874 36 897 44 c 128,-1,10
 920 52 920 52 929 69.5 c 128,-1,11
 938 87 938 87 940 99 c 128,-1,12
 942 111 942 111 942 133 c 128,-1,13
 942 155 942 155 940 167.5 c 128,-1,14
 938 180 938 180 929 197.5 c 128,-1,15
 920 215 920 215 897 223 c 128,-1,0
 874 231 874 231 838 231 c 128,-1,1
838 272 m 128,-1,17
 942 272 942 272 1009 230 c 128,-1,18
 1076 188 1076 188 1076 133 c 128,-1,19
 1076 78 1076 78 1009 36 c 128,-1,20
 942 -6 942 -6 838 -6 c 128,-1,21
 734 -6 734 -6 667 36 c 128,-1,22
 600 78 600 78 600 133 c 128,-1,23
 600 188 600 188 667 230 c 128,-1,16
 734 272 734 272 838 272 c 128,-1,17
1076 678 m 25,24,-1
 272 0 l 1,25,-1
 110 0 l 1,26,-1
 908 678 l 1,27,-1
 1076 678 l 25,24,-1
338 641 m 128,-1,29
 302 641 302 641 279 633 c 128,-1,30
 256 625 256 625 247 607.5 c 128,-1,31
 238 590 238 590 236 578 c 128,-1,32
 234 566 234 566 234 544 c 128,-1,33
 234 522 234 522 236 509.5 c 128,-1,34
 238 497 238 497 247 479.5 c 128,-1,35
 256 462 256 462 279 454 c 128,-1,36
 302 446 302 446 338 446 c 128,-1,37
 374 446 374 446 397 454 c 128,-1,38
 420 462 420 462 429 479.5 c 128,-1,39
 438 497 438 497 440 509.5 c 128,-1,40
 442 522 442 522 442 544 c 128,-1,41
 442 566 442 566 440 578 c 128,-1,42
 438 590 438 590 429 607.5 c 128,-1,43
 420 625 420 625 397 633 c 128,-1,28
 374 641 374 641 338 641 c 128,-1,29
338 684 m 128,-1,45
 442 684 442 684 509 641.5 c 128,-1,46
 576 599 576 599 576 544 c 128,-1,47
 576 489 576 489 509 446.5 c 128,-1,48
 442 404 442 404 338 404 c 128,-1,49
 234 404 234 404 167 446.5 c 128,-1,50
 100 489 100 489 100 544 c 128,-1,51
 100 599 100 599 167 641.5 c 128,-1,44
 234 684 234 684 338 684 c 128,-1,45
EndSplineSet
Validated: 3073
EndChar

StartChar: uniFF06
Encoding: 65286 65286 103
Width: 1176
VWidth: 0
Flags: MW
LayerCount: 2
Fore
SplineSet
583 742 m 0,0,1
 721 742 721 742 816 686 c 128,-1,2
 911 630 911 630 911 575 c 0,3,4
 911 463 911 463 689 368 c 1,5,6
 749 337 749 337 785 307.5 c 128,-1,7
 821 278 821 278 833 259.5 c 128,-1,8
 845 241 845 241 865 201 c 1,9,10
 885 215 885 215 898 223.5 c 128,-1,11
 911 232 911 232 926 239 c 128,-1,12
 941 246 941 246 946 249.5 c 128,-1,13
 951 253 951 253 966 257 c 128,-1,14
 981 261 981 261 984 261.5 c 128,-1,15
 987 262 987 262 1009 266 c 128,-1,16
 1031 270 1031 270 1037 271 c 1,17,-1
 1107 209 l 1,18,19
 1045 208 1045 208 982 184.5 c 128,-1,20
 919 161 919 161 917 136 c 1,21,22
 985 76 985 76 1107 75 c 1,23,-1
 959 -1 l 1,24,25
 895 24 895 24 869 38.5 c 128,-1,26
 843 53 843 53 811 83 c 1,27,28
 793 76 793 76 756 61 c 128,-1,29
 719 46 719 46 701 39 c 128,-1,30
 683 32 683 32 646 21.5 c 128,-1,31
 609 11 609 11 578 6.5 c 128,-1,32
 547 2 547 2 500 -2 c 128,-1,33
 453 -6 453 -6 397 -6 c 0,34,35
 301 -6 301 -6 185 58 c 128,-1,36
 69 122 69 122 69 181 c 0,37,38
 71 241 71 241 145 288 c 128,-1,39
 219 335 219 335 441 391 c 1,40,41
 351 426 351 426 300 484 c 128,-1,42
 249 542 249 542 249 578 c 0,43,44
 249 644 249 644 353 693 c 128,-1,45
 457 742 457 742 583 742 c 0,0,1
587 673 m 0,46,47
 523 673 523 673 465 647 c 128,-1,48
 407 621 407 621 407 578 c 0,49,50
 407 541 407 541 435 510.5 c 128,-1,51
 463 480 463 480 495 463 c 128,-1,52
 527 446 527 446 583 424 c 1,53,54
 659 444 659 444 706 487.5 c 128,-1,55
 753 531 753 531 761 575 c 1,56,57
 761 614 761 614 701 643.5 c 128,-1,58
 641 673 641 673 587 673 c 0,46,47
539 335 m 1,59,60
 491 318 491 318 421 301.5 c 128,-1,61
 351 285 351 285 317 275.5 c 128,-1,62
 283 266 283 266 255 242.5 c 128,-1,63
 227 219 227 219 227 181 c 0,64,65
 227 145 227 145 298 105.5 c 128,-1,66
 369 66 369 66 439 66 c 0,67,68
 493 66 493 66 536 72.5 c 128,-1,69
 579 79 579 79 621 97 c 128,-1,70
 663 115 663 115 679 123 c 128,-1,71
 695 131 695 131 741 157 c 1,72,73
 709 224 709 224 665 266.5 c 128,-1,74
 621 309 621 309 539 335 c 1,59,60
EndSplineSet
Validated: 3073
EndChar

StartChar: uniFF07
Encoding: 65287 65287 104
Width: 1176
VWidth: 0
Flags: MW
LayerCount: 2
Fore
SplineSet
586 799 m 128,-1,1
 632 799 632 799 666 785 c 128,-1,2
 700 771 700 771 700 753 c 0,3,4
 700 727 700 727 692 679 c 128,-1,5
 684 631 684 631 656 574.5 c 128,-1,6
 628 518 628 518 586 518 c 0,7,8
 554 518 554 518 530 549.5 c 128,-1,9
 506 581 506 581 495 626 c 128,-1,10
 484 671 484 671 480 703 c 128,-1,11
 476 735 476 735 476 753 c 128,-1,12
 476 771 476 771 508 785 c 128,-1,0
 540 799 540 799 586 799 c 128,-1,1
EndSplineSet
Validated: 3073
EndChar

StartChar: uniFF08
Encoding: 65288 65288 105
Width: 1176
VWidth: 0
Flags: MW
LayerCount: 2
Fore
SplineSet
811 819 m 9,0,-1
 811 737 l 1,1,2
 527 737 527 737 527 365 c 0,3,4
 527 -6 527 -6 811 -6 c 1,5,-1
 811 -88 l 1,6,7
 365 -88 365 -88 365 365 c 0,8,9
 365 413 365 413 368 453 c 128,-1,10
 371 493 371 493 382 541.5 c 128,-1,11
 393 590 393 590 412 627.5 c 128,-1,12
 431 665 431 665 465 702.5 c 128,-1,13
 499 740 499 740 545 764.5 c 128,-1,14
 591 789 591 789 659 804 c 128,-1,15
 727 819 727 819 811 819 c 9,0,-1
EndSplineSet
Validated: 3073
EndChar

StartChar: uniFF09
Encoding: 65289 65289 106
Width: 1176
VWidth: 0
Flags: MW
LayerCount: 2
Fore
SplineSet
365 819 m 17,0,1
 449 819 449 819 517 804 c 128,-1,2
 585 789 585 789 631 764.5 c 128,-1,3
 677 740 677 740 711 702.5 c 128,-1,4
 745 665 745 665 764 627.5 c 128,-1,5
 783 590 783 590 794 541.5 c 128,-1,6
 805 493 805 493 808 453 c 128,-1,7
 811 413 811 413 811 365 c 0,8,9
 811 -88 811 -88 365 -88 c 1,10,-1
 365 -6 l 1,11,12
 647 -6 647 -6 647 365 c 0,13,14
 647 737 647 737 365 737 c 1,15,-1
 365 819 l 17,0,1
EndSplineSet
Validated: 3073
EndChar

StartChar: uniFF0A
Encoding: 65290 65290 107
Width: 1176
VWidth: 0
Flags: MW
LayerCount: 2
Fore
SplineSet
702 742 m 1,0,-1
 642 612 l 1,1,-1
 896 683 l 1,2,-1
 960 592 l 1,3,-1
 676 569 l 1,4,-1
 904 467 l 1,5,-1
 742 414 l 1,6,-1
 588 539 l 1,7,-1
 434 414 l 1,8,-1
 268 467 l 1,9,-1
 500 569 l 1,10,-1
 216 592 l 1,11,-1
 276 683 l 1,12,-1
 534 612 l 1,13,-1
 470 742 l 1,14,-1
 702 742 l 1,0,-1
EndSplineSet
Validated: 3073
EndChar

StartChar: uniFF0B
Encoding: 65291 65291 108
Width: 1176
VWidth: 0
Flags: MW
LayerCount: 2
Fore
SplineSet
588 587 m 128,-1,1
 670 587 670 587 670 559 c 2,2,-1
 670 397 l 1,3,-1
 988 397 l 2,4,5
 1016 397 1016 397 1032 385.5 c 128,-1,6
 1048 374 1048 374 1048 356 c 128,-1,7
 1048 338 1048 338 1032 326.5 c 128,-1,8
 1016 315 1016 315 988 315 c 2,9,-1
 670 315 l 1,10,-1
 670 157 l 2,11,12
 670 143 670 143 647 134.5 c 128,-1,13
 624 126 624 126 588 126 c 128,-1,14
 552 126 552 126 529 134.5 c 128,-1,15
 506 143 506 143 506 157 c 2,16,-1
 506 315 l 1,17,-1
 182 315 l 2,18,19
 128 315 128 315 128 356 c 128,-1,20
 128 397 128 397 182 397 c 2,21,-1
 506 397 l 1,22,-1
 506 559 l 2,23,0
 506 587 506 587 588 587 c 128,-1,1
EndSplineSet
Validated: 3073
EndChar

StartChar: uniFF0C
Encoding: 65292 65292 109
Width: 1176
VWidth: 0
Flags: MW
LayerCount: 2
Fore
SplineSet
590 130 m 0,0,1
 646 130 646 130 690 110.5 c 128,-1,2
 734 91 734 91 734 61 c 0,3,4
 732 25 732 25 708 -16.5 c 128,-1,5
 684 -58 684 -58 624 -93.5 c 128,-1,6
 564 -129 564 -129 482 -129 c 0,7,8
 458 -129 458 -129 458 -119 c 0,9,10
 458 -114 458 -114 477 -107 c 128,-1,11
 496 -100 496 -100 522 -91.5 c 128,-1,12
 548 -83 548 -83 580 -57.5 c 128,-1,13
 612 -32 612 -32 634 6 c 1,14,15
 622 -6 622 -6 570 -6 c 0,16,17
 524 -6 524 -6 483 13.5 c 128,-1,18
 442 33 442 33 442 61 c 0,19,20
 442 86 442 86 484 108 c 128,-1,21
 526 130 526 130 590 130 c 0,0,1
EndSplineSet
Validated: 3073
EndChar

StartChar: uniFF0D
Encoding: 65293 65293 110
Width: 1176
VWidth: 0
Flags: MW
LayerCount: 2
Fore
SplineSet
988 397 m 2,0,1
 1016 397 1016 397 1032 385.5 c 128,-1,2
 1048 374 1048 374 1048 356 c 128,-1,3
 1048 338 1048 338 1032 326.5 c 128,-1,4
 1016 315 1016 315 988 315 c 2,5,-1
 182 315 l 2,6,7
 128 315 128 315 128 356 c 128,-1,8
 128 397 128 397 182 397 c 2,9,-1
 988 397 l 2,0,1
EndSplineSet
Validated: 3073
EndChar

StartChar: uniFF0E
Encoding: 65294 65294 111
Width: 1176
VWidth: 0
Flags: MW
LayerCount: 2
Fore
SplineSet
590 126 m 24,0,1
 648 126 648 126 691 106.5 c 128,-1,2
 734 87 734 87 734 59 c 128,-1,3
 734 31 734 31 691 12.5 c 128,-1,4
 648 -6 648 -6 590 -6 c 0,5,6
 530 -6 530 -6 486 12.5 c 128,-1,7
 442 31 442 31 442 59 c 0,8,9
 442 88 442 88 486 107 c 128,-1,10
 530 126 530 126 590 126 c 24,0,1
EndSplineSet
Validated: 3073
EndChar

StartChar: uniFF0F
Encoding: 65295 65295 112
Width: 1176
VWidth: 0
Flags: MW
LayerCount: 2
Fore
SplineSet
1071 819 m 25,0,-1
 269 -77 l 1,1,-1
 105 -77 l 1,2,-1
 907 819 l 1,3,-1
 1071 819 l 25,0,-1
EndSplineSet
Validated: 3073
EndChar

StartChar: uniFF10
Encoding: 65296 65296 113
Width: 1176
VWidth: 0
Flags: MW
LayerCount: 2
Fore
SplineSet
1069 749 m 1,0,-1
 945 629 l 1,1,2
 1081 516 1081 516 1081 373 c 0,3,4
 1081 276 1081 276 1030 192 c 128,-1,5
 979 108 979 108 866 51 c 128,-1,6
 753 -6 753 -6 599 -6 c 0,7,8
 453 -6 453 -6 331 57 c 1,9,-1
 257 0 l 1,10,-1
 95 0 l 1,11,-1
 235 120 l 1,12,13
 117 225 117 225 117 373 c 0,14,15
 117 472 117 472 166 555 c 128,-1,16
 215 638 215 638 328 693.5 c 128,-1,17
 441 749 441 749 599 749 c 0,18,19
 731 749 731 749 853 690 c 1,20,-1
 909 749 l 1,21,-1
 1069 749 l 1,0,-1
599 675 m 0,22,23
 511 675 511 675 446 648 c 128,-1,24
 381 621 381 621 347 575.5 c 128,-1,25
 313 530 313 530 297 480 c 128,-1,26
 281 430 281 430 281 373 c 0,27,28
 281 273 281 273 331 204 c 1,29,-1
 769 618 l 1,30,31
 699 675 699 675 599 675 c 0,22,23
411 129 m 1,32,33
 445 108 445 108 466 97.5 c 128,-1,34
 487 87 487 87 523 77.5 c 128,-1,35
 559 68 559 68 599 68 c 0,36,37
 685 68 685 68 750 95.5 c 128,-1,38
 815 123 815 123 850 169.5 c 128,-1,39
 885 216 885 216 901 266.5 c 128,-1,40
 917 317 917 317 917 373 c 0,41,42
 917 466 917 466 853 547 c 1,43,-1
 411 129 l 1,32,33
EndSplineSet
Validated: 3073
EndChar

StartChar: uniFF11
Encoding: 65297 65297 114
Width: 1176
VWidth: 0
Flags: MW
LayerCount: 2
Fore
SplineSet
754 742 m 25,0,-1
 754 0 l 1,1,-1
 590 0 l 1,2,-1
 590 568 l 1,3,-1
 422 568 l 1,4,-1
 632 742 l 1,5,-1
 754 742 l 25,0,-1
EndSplineSet
Validated: 3073
EndChar

StartChar: uniFF12
Encoding: 65298 65298 115
Width: 1176
VWidth: 0
Flags: MW
LayerCount: 2
Fore
SplineSet
589 749 m 0,0,1
 807 749 807 749 937 685.5 c 128,-1,2
 1067 622 1067 622 1069 539 c 1,3,4
 1067 490 1067 490 996 436.5 c 128,-1,5
 925 383 925 383 819 336 c 128,-1,6
 713 289 713 289 604 245 c 128,-1,7
 495 201 495 201 404 156 c 128,-1,8
 313 111 313 111 285 75 c 1,9,-1
 901 75 l 1,10,-1
 901 141 l 1,11,-1
 1069 141 l 1,12,-1
 1069 1 l 1,13,-1
 107 1 l 1,14,-1
 107 75 l 1,15,16
 133 118 133 118 226 169.5 c 128,-1,17
 319 221 319 221 431 268 c 128,-1,18
 543 315 543 315 651 361 c 128,-1,19
 759 407 759 407 832 454 c 128,-1,20
 905 501 905 501 905 539 c 0,21,22
 905 602 905 602 821 638.5 c 128,-1,23
 737 675 737 675 589 675 c 0,24,25
 437 675 437 675 355 628.5 c 128,-1,26
 273 582 273 582 271 507 c 1,27,-1
 107 507 l 1,28,29
 109 604 109 604 239 676 c 128,-1,30
 369 748 369 748 589 749 c 0,0,1
EndSplineSet
Validated: 3073
EndChar

StartChar: uniFF13
Encoding: 65299 65299 116
Width: 1176
VWidth: 0
Flags: MW
LayerCount: 2
Fore
SplineSet
1054 742 m 29,0,-1
 1054 669 l 1,1,-1
 700 507 l 1,2,3
 786 506 786 506 854 493 c 128,-1,4
 922 480 922 480 960 459 c 128,-1,5
 998 438 998 438 1023 417 c 128,-1,6
 1048 396 1048 396 1058 372.5 c 128,-1,7
 1068 349 1068 349 1071 338 c 128,-1,8
 1074 327 1074 327 1074 319 c 0,9,10
 1074 258 1074 258 1030 207.5 c 128,-1,11
 986 157 986 157 919 124.5 c 128,-1,12
 852 92 852 92 760 67 c 128,-1,13
 668 42 668 42 583 28.5 c 128,-1,14
 498 15 498 15 405 7 c 128,-1,15
 312 -1 312 -1 257 -3.5 c 128,-1,16
 202 -6 202 -6 156 -6 c 0,17,18
 140 -6 140 -6 122 3 c 128,-1,19
 104 12 104 12 102 18 c 1,20,21
 102 25 102 25 116 35 c 128,-1,22
 130 45 130 45 148 49 c 1,23,24
 224 57 224 57 257 60.5 c 128,-1,25
 290 64 290 64 368 74 c 128,-1,26
 446 84 446 84 486 91.5 c 128,-1,27
 526 99 526 99 594 112 c 128,-1,28
 662 125 662 125 699 138 c 128,-1,29
 736 151 736 151 783 170.5 c 128,-1,30
 830 190 830 190 854 211 c 128,-1,31
 878 232 878 232 896 259 c 128,-1,32
 914 286 914 286 914 317 c 1,33,34
 908 359 908 359 854 395.5 c 128,-1,35
 800 432 800 432 678 433 c 1,36,37
 544 433 544 433 434 397 c 1,38,-1
 322 434 l 1,39,-1
 436 483 l 1,40,-1
 850 669 l 1,41,-1
 280 669 l 1,42,-1
 280 606 l 1,43,-1
 116 606 l 1,44,-1
 116 742 l 1,45,-1
 1054 742 l 29,0,-1
EndSplineSet
Validated: 3073
EndChar

StartChar: uniFF14
Encoding: 65300 65300 117
Width: 1176
VWidth: 0
Flags: MW
LayerCount: 2
Fore
SplineSet
706 603 m 1,0,-1
 372 305 l 1,1,-1
 706 305 l 1,2,-1
 706 603 l 1,0,-1
870 742 m 1,3,-1
 870 305 l 1,4,-1
 1070 305 l 1,5,-1
 1070 231 l 1,6,-1
 870 231 l 1,7,-1
 870 0 l 1,8,-1
 706 0 l 1,9,-1
 706 231 l 1,10,-1
 106 231 l 1,11,-1
 706 742 l 1,12,-1
 870 742 l 1,3,-1
EndSplineSet
Validated: 3073
EndChar

StartChar: uniFF15
Encoding: 65301 65301 118
Width: 1176
VWidth: 0
Flags: MW
LayerCount: 2
Fore
SplineSet
1055 742 m 25,0,-1
 1055 669 l 1,1,-1
 281 669 l 1,2,-1
 281 434 l 1,3,4
 287 437 287 437 297 442 c 128,-1,5
 307 447 307 447 344 460 c 128,-1,6
 381 473 381 473 424 482.5 c 128,-1,7
 467 492 467 492 540 500 c 128,-1,8
 613 508 613 508 695 508 c 0,9,10
 787 508 787 508 858 492.5 c 128,-1,11
 929 477 929 477 969 455.5 c 128,-1,12
 1009 434 1009 434 1034 406 c 128,-1,13
 1059 378 1059 378 1067 357 c 128,-1,14
 1075 336 1075 336 1075 319 c 0,15,16
 1075 257 1075 257 1030 206.5 c 128,-1,17
 985 156 985 156 915 123 c 128,-1,18
 845 90 845 90 750 65 c 128,-1,19
 655 40 655 40 568 27 c 128,-1,20
 481 14 481 14 389 6 c 128,-1,21
 297 -2 297 -2 245 -4 c 128,-1,22
 193 -6 193 -6 157 -6 c 0,23,24
 141 -6 141 -6 122 3 c 128,-1,25
 103 12 103 12 101 18 c 1,26,27
 101 25 101 25 116 35 c 128,-1,28
 131 45 131 45 149 49 c 1,29,30
 371 72 371 72 525 101 c 128,-1,31
 679 130 679 130 761 164 c 128,-1,32
 843 198 843 198 877 232 c 128,-1,33
 911 266 911 266 911 307 c 0,34,35
 909 359 909 359 855 396 c 128,-1,36
 801 433 801 433 679 434 c 1,37,38
 551 434 551 434 453 405 c 128,-1,39
 355 376 355 376 301 337 c 1,40,-1
 117 379 l 1,41,-1
 117 742 l 1,42,-1
 1055 742 l 25,0,-1
EndSplineSet
Validated: 3073
EndChar

StartChar: uniFF16
Encoding: 65302 65302 119
Width: 1176
VWidth: 0
Flags: MW
LayerCount: 2
Fore
SplineSet
271 220 m 28,0,1
 271 157 271 157 367 112.5 c 128,-1,2
 463 68 463 68 601 68 c 0,3,4
 731 68 731 68 818 113.5 c 128,-1,5
 905 159 905 159 905 220 c 0,6,7
 905 282 905 282 818 329 c 128,-1,8
 731 376 731 376 601 376 c 0,9,10
 461 376 461 376 366 330 c 128,-1,11
 271 284 271 284 271 220 c 28,0,1
923 724 m 4,12,13
 923 693 923 693 827 693 c 1,14,15
 667 685 667 685 496 586.5 c 128,-1,16
 325 488 325 488 305 391 c 1,17,18
 307 392 307 392 327 401.5 c 128,-1,19
 347 411 347 411 355 413.5 c 128,-1,20
 363 416 363 416 384 424 c 128,-1,21
 405 432 405 432 423 435 c 128,-1,22
 441 438 441 438 469 442.5 c 128,-1,23
 497 447 497 447 530 448.5 c 128,-1,24
 563 450 563 450 601 450 c 0,25,26
 745 450 745 450 853 413.5 c 128,-1,27
 961 377 961 377 1011 326.5 c 128,-1,28
 1061 276 1061 276 1069 220 c 1,29,30
 1069 128 1069 128 930 61 c 128,-1,31
 791 -6 791 -6 601 -6 c 0,32,33
 407 -6 407 -6 262 61 c 128,-1,34
 117 128 117 128 107 220 c 1,35,36
 107 297 107 297 112 333 c 128,-1,37
 117 369 117 369 149 422 c 128,-1,38
 181 475 181 475 251 540 c 1,39,40
 339 626 339 626 507 687.5 c 128,-1,41
 675 749 675 749 813 749 c 1,42,43
 923 748 923 748 923 724 c 4,12,13
EndSplineSet
Validated: 3073
EndChar

StartChar: uniFF17
Encoding: 65303 65303 120
Width: 1176
VWidth: 0
Flags: MW
LayerCount: 2
Fore
SplineSet
1069 742 m 25,0,-1
 1069 545 l 1,1,2
 1063 518 1063 518 998 469 c 128,-1,3
 933 420 933 420 861 373 c 128,-1,4
 789 326 789 326 730 260.5 c 128,-1,5
 671 195 671 195 671 138 c 2,6,-1
 671 0 l 1,7,-1
 497 0 l 1,8,-1
 497 138 l 2,9,10
 497 197 497 197 538 252.5 c 128,-1,11
 579 308 579 308 633 346.5 c 128,-1,12
 687 385 687 385 770 445.5 c 128,-1,13
 853 506 853 506 905 556 c 1,14,-1
 905 669 l 1,15,-1
 271 669 l 1,16,-1
 271 588 l 1,17,-1
 107 588 l 1,18,-1
 107 742 l 1,19,-1
 1069 742 l 25,0,-1
EndSplineSet
Validated: 3073
EndChar

StartChar: uniFF18
Encoding: 65304 65304 121
Width: 1176
VWidth: 0
Flags: MW
LayerCount: 2
Fore
SplineSet
271 206 m 24,0,1
 271 146 271 146 366 106.5 c 128,-1,2
 461 67 461 67 589 67 c 0,3,4
 715 67 715 67 810 106.5 c 128,-1,5
 905 146 905 146 905 206 c 0,6,7
 905 267 905 267 811 308 c 128,-1,8
 717 349 717 349 589 349 c 128,-1,9
 461 349 461 349 366 308 c 128,-1,10
 271 267 271 267 271 206 c 24,0,1
315 548 m 152,-1,12
 315 494 315 494 396 458 c 128,-1,13
 477 422 477 422 589 422 c 128,-1,14
 701 422 701 422 781 458 c 128,-1,15
 861 494 861 494 861 548 c 128,-1,16
 861 602 861 602 781 639 c 128,-1,17
 701 676 701 676 589 676 c 128,-1,18
 477 676 477 676 396 639 c 128,-1,11
 315 602 315 602 315 548 c 152,-1,12
589 749 m 152,-1,20
 767 749 767 749 896 691 c 128,-1,21
 1025 633 1025 633 1025 548 c 0,22,23
 1025 443 1025 443 831 385 c 1,24,25
 1069 322 1069 322 1069 206 c 0,26,27
 1069 115 1069 115 926 54.5 c 128,-1,28
 783 -6 783 -6 589 -6 c 128,-1,29
 395 -6 395 -6 251 54.5 c 128,-1,30
 107 115 107 115 107 206 c 0,31,32
 107 323 107 323 343 385 c 1,33,34
 151 442 151 442 151 548 c 0,35,36
 151 633 151 633 281 691 c 128,-1,19
 411 749 411 749 589 749 c 152,-1,20
EndSplineSet
Validated: 3073
EndChar

StartChar: uniFF19
Encoding: 65305 65305 122
Width: 1176
VWidth: 0
Flags: MW
LayerCount: 2
Fore
SplineSet
905 519 m 28,0,1
 905 584 905 584 808 629.5 c 128,-1,2
 711 675 711 675 577 675 c 0,3,4
 451 675 451 675 361 629 c 128,-1,5
 271 583 271 583 271 519 c 0,6,7
 271 454 271 454 360 407 c 128,-1,8
 449 360 449 360 577 360 c 0,9,10
 711 360 711 360 808 406.5 c 128,-1,11
 905 453 905 453 905 519 c 28,0,1
577 749 m 28,12,13
 771 749 771 749 915 680 c 128,-1,14
 1059 611 1059 611 1069 519 c 1,15,16
 1069 412 1069 412 1046 355.5 c 128,-1,17
 1023 299 1023 299 923 205 c 0,18,19
 833 119 833 119 668 56.5 c 128,-1,20
 503 -6 503 -6 365 -6 c 1,21,22
 255 -5 255 -5 255 19 c 0,23,24
 255 32 255 32 291 40.5 c 128,-1,25
 327 49 327 49 351 49 c 1,26,27
 455 54 455 54 573 100 c 128,-1,28
 691 146 691 146 776 213.5 c 128,-1,29
 861 281 861 281 873 344 c 1,30,31
 871 343 871 343 853 335 c 128,-1,32
 835 327 835 327 830 325 c 128,-1,33
 825 323 825 323 806 316 c 128,-1,34
 787 309 787 309 775 306.5 c 128,-1,35
 763 304 763 304 740 299 c 128,-1,36
 717 294 717 294 695 292 c 128,-1,37
 673 290 673 290 642 288.5 c 128,-1,38
 611 287 611 287 577 287 c 0,39,40
 367 287 367 287 243 358.5 c 128,-1,41
 119 430 119 430 107 519 c 1,42,43
 107 612 107 612 246 680.5 c 128,-1,44
 385 749 385 749 577 749 c 28,12,13
EndSplineSet
Validated: 3073
EndChar

StartChar: uniFF1A
Encoding: 65306 65306 123
Width: 1176
VWidth: 0
Flags: MW
LayerCount: 2
Fore
SplineSet
590 469 m 24,0,1
 648 469 648 469 691 449.5 c 128,-1,2
 734 430 734 430 734 402 c 128,-1,3
 734 374 734 374 691 355.5 c 128,-1,4
 648 337 648 337 590 337 c 0,5,6
 530 337 530 337 486 355.5 c 128,-1,7
 442 374 442 374 442 402 c 0,8,9
 442 431 442 431 486 450 c 128,-1,10
 530 469 530 469 590 469 c 24,0,1
590 126 m 24,11,12
 648 126 648 126 691 107 c 128,-1,13
 734 88 734 88 734 60 c 128,-1,14
 734 32 734 32 691 13 c 128,-1,15
 648 -6 648 -6 590 -6 c 0,16,17
 530 -6 530 -6 486 12.5 c 128,-1,18
 442 31 442 31 442 60 c 128,-1,19
 442 89 442 89 486 107.5 c 128,-1,20
 530 126 530 126 590 126 c 24,11,12
EndSplineSet
Validated: 3073
EndChar

StartChar: uniFF1B
Encoding: 65307 65307 124
Width: 1176
VWidth: 0
Flags: MW
LayerCount: 2
Fore
SplineSet
592 130 m 0,0,1
 648 130 648 130 692 110.5 c 128,-1,2
 736 91 736 91 736 61 c 0,3,4
 734 25 734 25 710 -16.5 c 128,-1,5
 686 -58 686 -58 626 -93.5 c 128,-1,6
 566 -129 566 -129 484 -129 c 0,7,8
 460 -129 460 -129 460 -119 c 0,9,10
 460 -114 460 -114 479 -107 c 128,-1,11
 498 -100 498 -100 524 -91.5 c 128,-1,12
 550 -83 550 -83 583 -57.5 c 128,-1,13
 616 -32 616 -32 638 6 c 1,14,15
 626 -6 626 -6 572 -6 c 0,16,17
 526 -6 526 -6 485 13.5 c 128,-1,18
 444 33 444 33 444 61 c 0,19,20
 444 86 444 86 486 108 c 128,-1,21
 528 130 528 130 592 130 c 0,0,1
588 469 m 24,22,23
 646 469 646 469 689 449.5 c 128,-1,24
 732 430 732 430 732 402 c 128,-1,25
 732 374 732 374 689 355.5 c 128,-1,26
 646 337 646 337 588 337 c 0,27,28
 528 337 528 337 484 355.5 c 128,-1,29
 440 374 440 374 440 402 c 0,30,31
 440 431 440 431 484 450 c 128,-1,32
 528 469 528 469 588 469 c 24,22,23
EndSplineSet
Validated: 3073
EndChar

StartChar: uniFF1C
Encoding: 65308 65308 125
Width: 1176
VWidth: 0
Flags: MW
LayerCount: 2
Fore
SplineSet
1019 819 m 25,0,-1
 1019 702 l 1,1,-1
 391 371 l 1,2,-1
 1019 29 l 1,3,-1
 1019 -88 l 1,4,-1
 157 371 l 1,5,-1
 1019 819 l 25,0,-1
EndSplineSet
Validated: 3073
EndChar

StartChar: uniFF1D
Encoding: 65309 65309 126
Width: 1176
VWidth: 0
Flags: MW
LayerCount: 2
Fore
SplineSet
988 285 m 2,0,1
 1016 285 1016 285 1032 273.5 c 128,-1,2
 1048 262 1048 262 1048 244 c 128,-1,3
 1048 226 1048 226 1032 214.5 c 128,-1,4
 1016 203 1016 203 988 203 c 2,5,-1
 182 203 l 2,6,7
 128 203 128 203 128 244 c 128,-1,8
 128 285 128 285 182 285 c 2,9,-1
 988 285 l 2,0,1
988 510 m 2,10,11
 1016 510 1016 510 1032 498.5 c 128,-1,12
 1048 487 1048 487 1048 469 c 128,-1,13
 1048 451 1048 451 1032 439.5 c 128,-1,14
 1016 428 1016 428 988 428 c 2,15,-1
 182 428 l 2,16,17
 128 428 128 428 128 469 c 128,-1,18
 128 510 128 510 182 510 c 2,19,-1
 988 510 l 2,10,11
EndSplineSet
Validated: 3073
EndChar

StartChar: uniFF1E
Encoding: 65310 65310 127
Width: 1176
VWidth: 0
Flags: MW
LayerCount: 2
Fore
SplineSet
157 819 m 25,0,-1
 1019 371 l 1,1,-1
 157 -88 l 1,2,-1
 157 29 l 1,3,-1
 785 371 l 1,4,-1
 157 702 l 1,5,-1
 157 819 l 25,0,-1
EndSplineSet
Validated: 3073
EndChar

StartChar: uniFF1F
Encoding: 65311 65311 128
Width: 1176
VWidth: 0
Flags: MW
LayerCount: 2
Fore
SplineSet
589 126 m 24,0,1
 647 126 647 126 690 106.5 c 128,-1,2
 733 87 733 87 733 59 c 128,-1,3
 733 31 733 31 690 12.5 c 128,-1,4
 647 -6 647 -6 589 -6 c 0,5,6
 529 -6 529 -6 485 12.5 c 128,-1,7
 441 31 441 31 441 59 c 0,8,9
 441 88 441 88 485 107 c 128,-1,10
 529 126 529 126 589 126 c 24,0,1
589 749 m 0,11,12
 821 749 821 749 945 694.5 c 128,-1,13
 1069 640 1069 640 1069 561 c 0,14,15
 1069 528 1069 528 1006 492.5 c 128,-1,16
 943 457 943 457 869 433 c 128,-1,17
 795 409 795 409 732 385 c 128,-1,18
 669 361 669 361 669 348 c 2,19,-1
 669 205 l 2,20,21
 669 180 669 180 589 180 c 0,22,23
 505 180 505 180 505 205 c 2,24,-1
 505 376 l 1,25,26
 509 389 509 389 573 415 c 128,-1,27
 637 441 637 441 710 465 c 128,-1,28
 783 489 783 489 844 516.5 c 128,-1,29
 905 544 905 544 905 561 c 0,30,31
 905 566 905 566 903 573.5 c 128,-1,32
 901 581 901 581 884 601 c 128,-1,33
 867 621 867 621 837 636.5 c 128,-1,34
 807 652 807 652 742 664.5 c 128,-1,35
 677 677 677 677 589 677 c 0,36,37
 499 677 499 677 434 665 c 128,-1,38
 369 653 369 653 339 636 c 128,-1,39
 309 619 309 619 292 602 c 128,-1,40
 275 585 275 585 273 573 c 2,41,-1
 271 561 l 1,42,-1
 107 561 l 1,43,44
 107 640 107 640 231 694.5 c 128,-1,45
 355 749 355 749 589 749 c 0,11,12
EndSplineSet
Validated: 3073
EndChar

StartChar: uniFF20
Encoding: 65312 65312 129
Width: 1176
VWidth: 0
Flags: MW
LayerCount: 2
Fore
SplineSet
577 659 m 128,-1,1
 723 659 723 659 850 607.5 c 128,-1,2
 977 556 977 556 1045 481.5 c 128,-1,3
 1113 407 1113 407 1113 333 c 0,4,5
 1113 280 1113 280 1071 222.5 c 128,-1,6
 1029 165 1029 165 961 123 c 1,7,-1
 847 144 l 1,8,9
 829 151 829 151 812 159.5 c 128,-1,10
 795 168 795 168 784 176 c 128,-1,11
 773 184 773 184 765 191 c 0,12,13
 755 198 755 198 751 202 c 2,14,-1
 747 207 l 1,15,16
 733 182 733 182 682 171.5 c 128,-1,17
 631 161 631 161 577 161 c 0,18,19
 491 161 491 161 413 220.5 c 128,-1,20
 335 280 335 280 335 333 c 0,21,22
 335 387 335 387 412 446.5 c 128,-1,23
 489 506 489 506 577 506 c 0,24,25
 691 506 691 506 751 450.5 c 128,-1,26
 811 395 811 395 815 333 c 0,27,28
 817 274 817 274 832 250 c 128,-1,29
 847 226 847 226 901 219 c 1,30,31
 953 274 953 274 953 333 c 0,32,33
 953 424 953 424 840 506.5 c 128,-1,34
 727 589 727 589 577 589 c 0,35,36
 429 589 429 589 326 507.5 c 128,-1,37
 223 426 223 426 223 333 c 0,38,39
 223 276 223 276 261 214.5 c 128,-1,40
 299 153 299 153 361 112 c 128,-1,41
 423 71 423 71 485 71 c 1,42,-1
 601 119 l 1,43,-1
 881 0 l 1,44,-1
 505 0 l 2,45,46
 381 0 381 0 276 53.5 c 128,-1,47
 171 107 171 107 117 182.5 c 128,-1,48
 63 258 63 258 63 333 c 128,-1,49
 63 408 63 408 125 482 c 128,-1,50
 187 556 187 556 309 607.5 c 128,-1,0
 431 659 431 659 577 659 c 128,-1,1
577 432 m 128,-1,52
 529 432 529 432 497 402 c 128,-1,53
 465 372 465 372 465 333 c 0,54,55
 465 291 465 291 493 261.5 c 128,-1,56
 521 232 521 232 577 232 c 0,57,58
 681 232 681 232 681 333 c 0,59,60
 681 372 681 372 653 402 c 128,-1,51
 625 432 625 432 577 432 c 128,-1,52
EndSplineSet
Validated: 3073
EndChar

StartChar: uniFF21
Encoding: 65313 65313 130
Width: 1176
VWidth: 0
Flags: MW
LayerCount: 2
Fore
SplineSet
665 742 m 5,0,-1
 1127 33 l 5,1,-1
 1127 0 l 5,2,-1
 953 0 l 5,3,-1
 953 33 l 5,4,-1
 835 215 l 5,5,-1
 339 215 l 5,6,-1
 221 33 l 5,7,-1
 221 0 l 5,8,-1
 49 0 l 5,9,-1
 49 33 l 5,10,-1
 511 742 l 5,11,-1
 665 742 l 5,0,-1
387 288 m 5,12,-1
 787 288 l 5,13,-1
 587 595 l 5,14,-1
 387 288 l 5,12,-1
EndSplineSet
Validated: 3073
EndChar

StartChar: uniFF22
Encoding: 65314 65314 131
Width: 1176
VWidth: 0
Flags: MW
LayerCount: 2
Fore
SplineSet
933 206 m 0,0,1
 933 277 933 277 846 323 c 128,-1,2
 759 369 759 369 649 369 c 2,3,-1
 243 369 l 1,4,-1
 243 74 l 1,5,-1
 675 74 l 2,6,7
 761 74 761 74 847 108.5 c 128,-1,8
 933 143 933 143 933 206 c 0,0,1
811 563 m 0,9,10
 811 604 811 604 772 637 c 128,-1,11
 733 670 733 670 663 670 c 2,12,-1
 243 670 l 1,13,-1
 243 442 l 1,14,-1
 641 442 l 2,15,16
 699 442 699 442 755 483.5 c 128,-1,17
 811 525 811 525 811 563 c 0,9,10
641 742 m 2,18,19
 733 742 733 742 801 725.5 c 128,-1,20
 869 709 869 709 905 682 c 128,-1,21
 941 655 941 655 957 625.5 c 128,-1,22
 973 596 973 596 973 563 c 0,23,24
 973 518 973 518 919 469.5 c 128,-1,25
 865 421 865 421 821 416 c 1,26,-1
 821 401 l 1,27,28
 941 379 941 379 1019 322.5 c 128,-1,29
 1097 266 1097 266 1097 206 c 0,30,31
 1097 115 1097 115 983 57.5 c 128,-1,32
 869 0 869 0 679 0 c 2,33,-1
 79 0 l 1,34,-1
 79 742 l 1,35,-1
 641 742 l 2,18,19
EndSplineSet
Validated: 3073
EndChar

StartChar: uniFF23
Encoding: 65315 65315 132
Width: 1176
VWidth: 0
Flags: MW
LayerCount: 2
Fore
SplineSet
1004 742 m 1,0,-1
 1092 670 l 1,1,-1
 622 670 l 2,2,3
 488 670 488 670 368 587.5 c 128,-1,4
 248 505 248 505 248 406 c 0,5,6
 248 277 248 277 381 175.5 c 128,-1,7
 514 74 514 74 684 74 c 2,8,-1
 1004 74 l 1,9,-1
 1092 0 l 1,10,-1
 710 0 l 2,11,12
 436 0 436 0 260 115 c 128,-1,13
 84 230 84 230 84 406 c 0,14,15
 84 483 84 483 152 560.5 c 128,-1,16
 220 638 220 638 341 690 c 128,-1,17
 462 742 462 742 596 742 c 2,18,-1
 1004 742 l 1,0,-1
EndSplineSet
Validated: 3073
EndChar

StartChar: uniFF24
Encoding: 65316 65316 133
Width: 1176
VWidth: 0
Flags: MW
LayerCount: 2
Fore
SplineSet
677 742 m 2,0,1
 749 742 749 742 841 694 c 128,-1,2
 933 646 933 646 997 583 c 0,3,4
 1093 488 1093 488 1093 353 c 0,5,6
 1093 230 1093 230 977 131 c 0,7,8
 919 82 919 82 822 41 c 128,-1,9
 725 0 725 0 677 0 c 2,10,-1
 83 0 l 1,11,-1
 83 742 l 1,12,-1
 677 742 l 2,0,1
929 353 m 0,13,14
 929 463 929 463 851 539 c 0,15,16
 797 591 797 591 727 630.5 c 128,-1,17
 657 670 657 670 601 670 c 2,18,-1
 247 670 l 1,19,-1
 247 74 l 1,20,-1
 601 74 l 2,21,22
 639 74 639 74 713 110 c 128,-1,23
 787 146 787 146 837 187 c 0,24,25
 929 265 929 265 929 353 c 0,13,14
EndSplineSet
Validated: 3073
EndChar

StartChar: uniFF25
Encoding: 65317 65317 134
Width: 1176
VWidth: 0
Flags: MW
LayerCount: 2
Fore
SplineSet
1004 742 m 25,0,-1
 1092 670 l 1,1,-1
 248 670 l 1,2,-1
 248 437 l 1,3,-1
 750 437 l 1,4,-1
 838 364 l 1,5,-1
 248 364 l 1,6,-1
 248 74 l 1,7,-1
 1004 74 l 1,8,-1
 1092 0 l 1,9,-1
 84 0 l 1,10,-1
 84 742 l 1,11,-1
 1004 742 l 25,0,-1
EndSplineSet
Validated: 3073
EndChar

StartChar: uniFF26
Encoding: 65318 65318 135
Width: 1176
VWidth: 0
Flags: MW
LayerCount: 2
Fore
SplineSet
1004 742 m 25,0,-1
 1092 670 l 1,1,-1
 248 670 l 1,2,-1
 248 446 l 1,3,-1
 750 446 l 1,4,-1
 838 374 l 1,5,-1
 248 374 l 1,6,-1
 248 0 l 1,7,-1
 84 0 l 1,8,-1
 84 742 l 1,9,-1
 1004 742 l 25,0,-1
EndSplineSet
Validated: 3073
EndChar

StartChar: uniFF27
Encoding: 65319 65319 136
Width: 1176
VWidth: 0
Flags: MW
LayerCount: 2
Fore
SplineSet
996 742 m 29,0,-1
 1084 670 l 5,1,-1
 600 670 l 5,2,3
 502 667 502 667 430 639.5 c 132,-1,4
 358 612 358 612 320 568 c 132,-1,5
 282 524 282 524 265 477.5 c 132,-1,6
 248 431 248 431 248 379 c 4,7,8
 248 324 248 324 268 273 c 132,-1,9
 288 222 288 222 329 176 c 132,-1,10
 370 130 370 130 446 102 c 132,-1,11
 522 74 522 74 622 74 c 6,12,-1
 928 74 l 5,13,-1
 862 371 l 5,14,-1
 608 371 l 5,15,-1
 546 446 l 5,16,-1
 1000 446 l 5,17,-1
 1092 74 l 5,18,-1
 1092 0 l 5,19,-1
 622 0 l 6,20,21
 450 0 450 0 324 58 c 132,-1,22
 198 116 198 116 141 200 c 132,-1,23
 84 284 84 284 84 379 c 4,24,25
 84 470 84 470 136 550 c 132,-1,26
 188 630 188 630 306 686 c 132,-1,27
 424 742 424 742 588 742 c 6,28,-1
 996 742 l 29,0,-1
EndSplineSet
Validated: 3073
EndChar

StartChar: uniFF28
Encoding: 65320 65320 137
Width: 1176
VWidth: 0
Flags: MW
LayerCount: 2
Fore
SplineSet
928 437 m 1,0,-1
 928 742 l 1,1,-1
 1092 742 l 1,2,-1
 1092 0 l 1,3,-1
 928 0 l 1,4,-1
 928 364 l 1,5,-1
 248 364 l 1,6,-1
 248 0 l 1,7,-1
 84 0 l 1,8,-1
 84 742 l 1,9,-1
 248 742 l 1,10,-1
 248 437 l 1,11,-1
 928 437 l 1,0,-1
EndSplineSet
Validated: 3073
EndChar

StartChar: uniFF29
Encoding: 65321 65321 138
Width: 1176
VWidth: 0
Flags: MW
LayerCount: 2
Fore
SplineSet
1004 742 m 25,0,-1
 1092 670 l 1,1,-1
 666 670 l 1,2,-1
 666 74 l 1,3,-1
 1004 74 l 1,4,-1
 1092 0 l 1,5,-1
 172 0 l 1,6,-1
 84 74 l 1,7,-1
 502 74 l 1,8,-1
 502 670 l 1,9,-1
 172 670 l 1,10,-1
 84 742 l 5,11,-1
 1004 742 l 25,0,-1
EndSplineSet
Validated: 3073
EndChar

StartChar: uniFF2A
Encoding: 65322 65322 139
Width: 1176
VWidth: 0
Flags: MW
LayerCount: 2
Fore
SplineSet
1004 741 m 25,0,-1
 1092 669 l 5,1,-1
 914 669 l 1,2,-1
 914 247 l 2,3,4
 914 -4 914 -4 504 -4 c 0,5,6
 286 -4 286 -4 185 64 c 128,-1,7
 84 132 84 132 84 247 c 1,8,-1
 248 247 l 1,9,10
 248 151 248 151 312 110 c 128,-1,11
 376 69 376 69 504 69 c 0,12,13
 630 69 630 69 690 109.5 c 128,-1,14
 750 150 750 150 750 247 c 2,15,-1
 750 669 l 1,16,-1
 172 669 l 1,17,-1
 84 741 l 1,18,-1
 1004 741 l 25,0,-1
EndSplineSet
Validated: 3073
EndChar

StartChar: uniFF2B
Encoding: 65323 65323 140
Width: 1176
VWidth: 0
Flags: MW
LayerCount: 2
Fore
SplineSet
1070 742 m 1,0,-1
 592 401 l 1,1,-1
 1092 0 l 1,2,-1
 926 0 l 1,3,-1
 464 364 l 1,4,-1
 248 364 l 1,5,-1
 248 0 l 1,6,-1
 84 0 l 1,7,-1
 84 742 l 1,8,-1
 248 742 l 1,9,-1
 248 437 l 1,10,-1
 464 437 l 1,11,-1
 904 742 l 1,12,-1
 1070 742 l 1,0,-1
EndSplineSet
Validated: 3073
EndChar

StartChar: uniFF2C
Encoding: 65324 65324 141
Width: 1176
VWidth: 0
Flags: MW
LayerCount: 2
Fore
SplineSet
248 742 m 25,0,-1
 248 74 l 1,1,-1
 1004 74 l 1,2,-1
 1092 0 l 1,3,-1
 84 0 l 1,4,-1
 84 742 l 1,5,-1
 248 742 l 25,0,-1
EndSplineSet
Validated: 3073
EndChar

StartChar: uniFF2D
Encoding: 65325 65325 142
Width: 1176
VWidth: 0
Flags: MW
LayerCount: 2
Fore
SplineSet
1092 741 m 25,0,-1
 1092 0 l 1,1,-1
 928 0 l 1,2,-1
 928 615 l 1,3,-1
 588 339 l 1,4,-1
 248 615 l 1,5,-1
 248 0 l 1,6,-1
 84 0 l 1,7,-1
 84 741 l 1,8,-1
 248 741 l 1,9,-1
 588 461 l 1,10,-1
 928 741 l 1,11,-1
 1092 741 l 25,0,-1
EndSplineSet
Validated: 3073
EndChar

StartChar: uniFF2E
Encoding: 65326 65326 143
Width: 1176
VWidth: 0
Flags: MW
LayerCount: 2
Fore
SplineSet
1092 742 m 25,0,-1
 1092 0 l 1,1,-1
 928 0 l 1,2,-1
 248 600 l 1,3,-1
 248 0 l 1,4,-1
 84 0 l 1,5,-1
 84 742 l 1,6,-1
 248 742 l 1,7,-1
 928 143 l 1,8,-1
 928 742 l 1,9,-1
 1092 742 l 25,0,-1
EndSplineSet
Validated: 3073
EndChar

StartChar: uniFF2F
Encoding: 65327 65327 144
Width: 1176
VWidth: 0
Flags: MW
LayerCount: 2
Fore
SplineSet
589 677 m 3,0,1
 491 677 491 677 418 642.5 c 128,-1,2
 345 608 345 608 309 555.5 c 128,-1,3
 273 503 273 503 256 456 c 128,-1,4
 239 409 239 409 239 370 c 0,5,6
 239 326 239 326 249 285 c 128,-1,7
 259 244 259 244 284 203 c 128,-1,8
 309 162 309 162 347 132.5 c 128,-1,9
 385 103 385 103 447 84.5 c 128,-1,10
 509 66 509 66 589 66 c 0,11,12
 687 66 687 66 758 93.5 c 128,-1,13
 829 121 829 121 866 167.5 c 128,-1,14
 903 214 903 214 920 264.5 c 128,-1,15
 937 315 937 315 937 370 c 0,16,17
 937 426 937 426 921 476.5 c 128,-1,18
 905 527 905 527 868 574 c 128,-1,19
 831 621 831 621 760 649 c 128,-1,20
 689 677 689 677 589 677 c 3,0,1
589 749 m 7,21,22
 755 749 755 749 878 690 c 128,-1,23
 1001 631 1001 631 1056 547 c 128,-1,24
 1111 463 1111 463 1111 370 c 0,25,26
 1111 276 1111 276 1057 193 c 128,-1,27
 1003 110 1003 110 880 52 c 128,-1,28
 757 -6 757 -6 589 -6 c 0,29,30
 419 -6 419 -6 296 52 c 128,-1,31
 173 110 173 110 119 193 c 128,-1,32
 65 276 65 276 65 370 c 0,33,34
 65 438 65 438 98 504 c 128,-1,35
 131 570 131 570 194 625.5 c 128,-1,36
 257 681 257 681 360 715 c 128,-1,37
 463 749 463 749 589 749 c 7,21,22
EndSplineSet
Validated: 3073
EndChar

StartChar: uniFF30
Encoding: 65328 65328 145
Width: 1176
VWidth: 0
Flags: MW
LayerCount: 2
Fore
SplineSet
907 548 m 24,0,1
 907 596 907 596 850 633 c 128,-1,2
 793 670 793 670 705 670 c 2,3,-1
 269 670 l 1,4,-1
 269 418 l 1,5,-1
 705 418 l 2,6,7
 797 418 797 418 852 457 c 128,-1,8
 907 496 907 496 907 548 c 24,0,1
737 742 m 26,9,10
 883 742 883 742 977 684 c 128,-1,11
 1071 626 1071 626 1071 548 c 0,12,13
 1071 467 1071 467 977 405.5 c 128,-1,14
 883 344 883 344 737 344 c 2,15,-1
 269 344 l 1,16,-1
 269 0 l 1,17,-1
 105 0 l 1,18,-1
 105 742 l 1,19,-1
 737 742 l 26,9,10
EndSplineSet
Validated: 3073
EndChar

StartChar: uniFF31
Encoding: 65329 65329 146
Width: 1176
VWidth: 0
Flags: MW
LayerCount: 2
Fore
SplineSet
543 678 m 0,0,1
 445 678 445 678 374 644.5 c 128,-1,2
 303 611 303 611 268 559.5 c 128,-1,3
 233 508 233 508 218 460.5 c 128,-1,4
 203 413 203 413 203 370 c 0,5,6
 203 60 203 60 543 60 c 0,7,8
 649 60 649 60 705 89 c 1,9,-1
 613 156 l 1,10,-1
 487 156 l 1,11,-1
 381 225 l 1,12,-1
 625 225 l 1,13,-1
 777 126 l 1,14,15
 831 176 831 176 854 225 c 128,-1,16
 877 274 877 274 877 370 c 0,17,18
 877 428 877 428 863 477.5 c 128,-1,19
 849 527 849 527 815 575 c 128,-1,20
 781 623 781 623 712 650.5 c 128,-1,21
 643 678 643 678 543 678 c 0,0,1
543 752 m 128,-1,23
 669 752 669 752 768 717.5 c 128,-1,24
 867 683 867 683 925 626.5 c 128,-1,25
 983 570 983 570 1012 504.5 c 128,-1,26
 1041 439 1041 439 1041 370 c 0,27,28
 1041 176 1041 176 875 73 c 1,29,-1
 1013 73 l 1,30,-1
 1137 -13 l 1,31,-1
 863 -13 l 1,32,-1
 801 35 l 1,33,34
 709 -13 709 -13 543 -13 c 0,35,36
 417 -13 417 -13 317 21.5 c 128,-1,37
 217 56 217 56 158 113 c 128,-1,38
 99 170 99 170 69 235.5 c 128,-1,39
 39 301 39 301 39 370 c 128,-1,40
 39 439 39 439 69 504.5 c 128,-1,41
 99 570 99 570 158 626.5 c 128,-1,42
 217 683 217 683 317 717.5 c 128,-1,22
 417 752 417 752 543 752 c 128,-1,23
EndSplineSet
Validated: 3073
EndChar

StartChar: uniFF32
Encoding: 65330 65330 147
Width: 1176
VWidth: 0
Flags: MW
LayerCount: 2
Fore
SplineSet
657 742 m 2,0,1
 837 742 837 742 935 689.5 c 128,-1,2
 1033 637 1033 637 1033 569 c 0,3,4
 1033 468 1033 468 845 422 c 1,5,-1
 845 409 l 1,6,7
 965 387 965 387 1028 332.5 c 128,-1,8
 1091 278 1091 278 1091 206 c 2,9,-1
 1091 0 l 1,10,-1
 927 0 l 1,11,-1
 927 206 l 2,12,13
 927 271 927 271 827 322.5 c 128,-1,14
 727 374 727 374 619 374 c 2,15,-1
 249 374 l 1,16,-1
 249 0 l 1,17,-1
 85 0 l 1,18,-1
 85 742 l 1,19,-1
 657 742 l 2,0,1
869 569 m 0,20,21
 869 607 869 607 808 638.5 c 128,-1,22
 747 670 747 670 665 670 c 2,23,-1
 249 670 l 1,24,-1
 249 446 l 5,25,-1
 669 446 l 2,26,27
 743 446 743 446 805 482 c 128,-1,28
 867 518 867 518 869 569 c 0,20,21
EndSplineSet
Validated: 3073
EndChar

StartChar: uniFF33
Encoding: 65331 65331 148
Width: 1176
VWidth: 0
Flags: MW
LayerCount: 2
Fore
SplineSet
1005 742 m 29,0,-1
 1093 668 l 5,1,2
 547 668 l 6,3,4
 247 668 247 668 247 564 c 4,5,6
 247 451 247 451 461 451 c 6,7,-1
 739 451 l 6,8,9
 1093 451 1093 451 1093 230 c 4,10,11
 1093 121 1093 121 955 60.5 c 132,-1,12
 817 0 817 0 589 0 c 6,13,-1
 83 0 l 5,14,-1
 171 74 l 5,15,-1
 579 74 l 6,16,17
 733 74 733 74 817 112 c 4,18,19
 901 151 901 151 919 200 c 4,20,21
 929 229 929 229 929 252 c 4,22,23
 929 377 929 377 701 377 c 6,24,-1
 475 377 l 6,25,26
 263 377 263 377 163 443 c 4,27,28
 83 495 83 495 83 563 c 4,29,30
 83 742 83 742 547 742 c 6,31,-1
 1005 742 l 29,0,-1
EndSplineSet
Validated: 3073
EndChar

StartChar: uniFF34
Encoding: 65332 65332 149
Width: 1176
VWidth: 0
Flags: MW
LayerCount: 2
Fore
SplineSet
502 669 m 29,0,-1
 172 669 l 5,1,-1
 84 742 l 5,2,-1
 1004 742 l 5,3,-1
 1092 669 l 5,4,-1
 668 669 l 5,5,6
 668 0 l 1,7,-1
 502 0 l 1,8,-1
 502 669 l 29,0,-1
EndSplineSet
Validated: 3073
EndChar

StartChar: uniFF35
Encoding: 65333 65333 150
Width: 1176
VWidth: 0
Flags: MW
LayerCount: 2
Fore
SplineSet
1091 740 m 25,0,-1
 1091 289 l 1,1,2
 1085 148 1085 148 953 71 c 128,-1,3
 821 -6 821 -6 589 -6 c 0,4,5
 361 -6 361 -6 226 72 c 128,-1,6
 91 150 91 150 85 289 c 1,7,-1
 85 740 l 1,8,-1
 249 740 l 1,9,-1
 249 289 l 1,10,11
 253 183 253 183 339 125 c 128,-1,12
 425 67 425 67 589 67 c 0,13,14
 915 67 915 67 927 289 c 1,15,-1
 927 740 l 1,16,-1
 1091 740 l 25,0,-1
EndSplineSet
Validated: 3073
EndChar

StartChar: uniFF36
Encoding: 65334 65334 151
Width: 1176
VWidth: 0
Flags: MW
LayerCount: 2
Fore
SplineSet
1093 742 m 25,0,-1
 589 -15 l 1,1,-1
 83 742 l 1,2,-1
 259 742 l 1,3,-1
 589 232 l 1,4,-1
 923 742 l 1,5,-1
 1093 742 l 25,0,-1
EndSplineSet
Validated: 3073
EndChar

StartChar: uniFF37
Encoding: 65335 65335 152
Width: 1176
VWidth: 0
Flags: MW
LayerCount: 2
Fore
SplineSet
1093 741 m 25,0,-1
 1023 0 l 1,1,-1
 763 0 l 1,2,-1
 589 279 l 1,3,-1
 413 0 l 1,4,-1
 153 0 l 1,5,-1
 83 741 l 1,6,-1
 247 741 l 1,7,-1
 317 74 l 1,8,-1
 589 469 l 1,9,-1
 859 74 l 1,10,-1
 929 741 l 1,11,-1
 1093 741 l 25,0,-1
EndSplineSet
Validated: 3073
EndChar

StartChar: uniFF38
Encoding: 65336 65336 153
Width: 1176
VWidth: 0
Flags: MW
LayerCount: 2
Fore
SplineSet
589 463 m 1,0,-1
 925 742 l 1,1,-1
 1091 742 l 1,2,-1
 685 396 l 1,3,-1
 1091 0 l 1,4,-1
 925 0 l 1,5,-1
 589 332 l 1,6,-1
 249 0 l 1,7,-1
 85 0 l 1,8,-1
 489 396 l 1,9,-1
 85 742 l 1,10,-1
 249 742 l 1,11,-1
 589 463 l 1,0,-1
EndSplineSet
Validated: 3073
EndChar

StartChar: uniFF39
Encoding: 65337 65337 154
Width: 1176
VWidth: 0
Flags: MW
LayerCount: 2
Fore
SplineSet
1093 742 m 25,0,-1
 671 353 l 1,1,-1
 671 0 l 1,2,-1
 507 0 l 1,3,-1
 507 353 l 1,4,-1
 83 742 l 1,5,-1
 247 742 l 1,6,-1
 589 434 l 1,7,-1
 929 742 l 1,8,-1
 1093 742 l 25,0,-1
EndSplineSet
Validated: 3073
EndChar

StartChar: uniFF3A
Encoding: 65338 65338 155
Width: 1176
VWidth: 0
Flags: MW
LayerCount: 2
Fore
SplineSet
1004 742 m 25,0,-1
 1092 669 l 1,1,-1
 270 74 l 1,2,-1
 1004 74 l 1,3,-1
 1092 0 l 1,4,-1
 172 0 l 1,5,-1
 84 74 l 1,6,-1
 902 669 l 1,7,-1
 172 669 l 1,8,-1
 84 742 l 1,9,-1
 1004 742 l 25,0,-1
EndSplineSet
Validated: 3073
EndChar

StartChar: uniFF3B
Encoding: 65339 65339 156
Width: 1176
VWidth: 0
Flags: MW
LayerCount: 2
Fore
SplineSet
788 819 m 25,0,-1
 788 737 l 1,1,-1
 550 737 l 1,2,-1
 550 -6 l 1,3,-1
 788 -6 l 1,4,-1
 788 -88 l 1,5,-1
 388 -88 l 1,6,-1
 388 819 l 1,7,-1
 788 819 l 25,0,-1
EndSplineSet
Validated: 3073
EndChar

StartChar: uniFF3C
Encoding: 65340 65340 157
Width: 1176
VWidth: 0
Flags: MW
LayerCount: 2
Fore
SplineSet
269 819 m 25,0,-1
 1071 -77 l 1,1,-1
 907 -77 l 1,2,-1
 105 819 l 1,3,-1
 269 819 l 25,0,-1
EndSplineSet
Validated: 3073
EndChar

StartChar: uniFF3D
Encoding: 65341 65341 158
Width: 1176
VWidth: 0
Flags: MW
LayerCount: 2
Fore
SplineSet
788 819 m 25,0,-1
 788 -88 l 1,1,-1
 388 -88 l 1,2,-1
 388 -6 l 1,3,-1
 624 -6 l 1,4,-1
 624 737 l 1,5,-1
 388 737 l 1,6,-1
 388 819 l 1,7,-1
 788 819 l 25,0,-1
EndSplineSet
Validated: 3073
EndChar

StartChar: uniFF3E
Encoding: 65342 65342 159
Width: 1176
VWidth: 0
Flags: MW
LayerCount: 2
Fore
SplineSet
589 799 m 25,0,-1
 1075 515 l 1,1,-1
 861 515 l 1,2,-1
 589 682 l 1,3,-1
 315 515 l 1,4,-1
 101 515 l 1,5,-1
 589 799 l 25,0,-1
EndSplineSet
Validated: 3073
EndChar

StartChar: uniFF3F
Encoding: 65343 65343 160
Width: 1176
VWidth: 0
Flags: MW
LayerCount: 2
Fore
SplineSet
1071 0 m 25,0,-1
 105 0 l 1,1,-1
 105 73 l 1,2,-1
 1071 73 l 1,3,-1
 1071 0 l 25,0,-1
EndSplineSet
Validated: 3073
EndChar

StartChar: uniFF40
Encoding: 65344 65344 161
Width: 1176
VWidth: 0
Flags: MW
LayerCount: 2
Fore
SplineSet
548 799 m 1,0,1
 662 780 662 780 750 654 c 1,2,3
 750 582 750 582 716 582 c 0,4,5
 654 582 654 582 540 659.5 c 128,-1,6
 426 737 426 737 426 761 c 0,7,8
 426 770 426 770 467 784.5 c 128,-1,9
 508 799 508 799 548 799 c 1,0,1
EndSplineSet
Validated: 3073
EndChar

StartChar: uniFF41
Encoding: 65345 65345 162
Width: 1176
VWidth: 0
Flags: MW
LayerCount: 2
Fore
SplineSet
962 473 m 1,0,-1
 910 446 l 1,1,-1
 910 152 l 1,2,3
 910 79 910 79 996 63 c 1,4,-1
 1100 63 l 1,5,-1
 982 -8 l 1,6,7
 804 4 804 4 804 129 c 1,8,9
 726 -6 726 -6 540 -6 c 0,10,11
 344 -6 344 -6 216 67 c 0,12,13
 76 146 76 146 76 241 c 0,14,15
 76 327 76 327 193 403 c 128,-1,16
 310 479 310 479 482 479 c 4,17,18
 546 479 546 479 633 456.5 c 128,-1,19
 720 434 720 434 746 421 c 1,20,-1
 746 473 l 1,21,-1
 962 473 l 1,0,-1
476 410 m 0,22,23
 422 410 422 410 352 385 c 0,24,25
 306 369 306 369 278 335 c 0,26,27
 240 288 240 288 240 227 c 0,28,29
 240 156 240 156 324 102 c 0,30,31
 380 67 380 67 518 67 c 0,32,33
 642 67 642 67 734 196 c 0,34,35
 764 239 764 239 764 296 c 0,36,37
 764 335 764 335 704 362 c 128,-1,38
 644 389 644 389 594 399.5 c 128,-1,39
 544 410 544 410 476 410 c 0,22,23
EndSplineSet
Validated: 3073
EndChar

StartChar: uniFF42
Encoding: 65346 65346 163
Width: 1176
VWidth: 0
Flags: MW
LayerCount: 2
Fore
SplineSet
189 742 m 1,0,-1
 403 742 l 1,1,-1
 403 421 l 1,2,3
 423 431 423 431 543 455 c 128,-1,4
 663 479 663 479 709 479 c 0,5,6
 891 479 891 479 993 415.5 c 128,-1,7
 1095 352 1095 352 1095 241 c 0,8,9
 1095 143 1095 143 929 68.5 c 128,-1,10
 763 -6 763 -6 571 -6 c 0,11,12
 427 -6 427 -6 319 78 c 1,13,14
 317 4 317 4 209 -8 c 1,15,-1
 81 54 l 1,16,-1
 173 54 l 1,17,18
 233 85 233 85 239 142 c 1,19,-1
 239 717 l 1,20,-1
 189 742 l 1,0,-1
747 407 m 0,21,22
 699 407 699 407 618 396 c 128,-1,23
 537 385 537 385 466 358.5 c 128,-1,24
 395 332 395 332 395 296 c 0,25,26
 395 266 395 266 396 249 c 128,-1,27
 397 232 397 232 401 200.5 c 128,-1,28
 405 169 405 169 415 149.5 c 128,-1,29
 425 130 425 130 442 109 c 128,-1,30
 459 88 459 88 489 77.5 c 128,-1,31
 519 67 519 67 557 67 c 0,32,33
 699 67 699 67 816 119 c 128,-1,34
 933 171 933 171 933 234 c 0,35,36
 933 407 933 407 747 407 c 0,21,22
EndSplineSet
Validated: 3073
EndChar

StartChar: uniFF43
Encoding: 65347 65347 164
Width: 1176
VWidth: 0
Flags: MW
LayerCount: 2
Fore
SplineSet
584 479 m 31,0,1
 718 479 718 479 854 430.5 c 128,-1,2
 990 382 990 382 990 345 c 1,3,-1
 816 263 l 1,4,-1
 816 331 l 1,5,6
 794 360 794 360 723 383.5 c 128,-1,7
 652 407 652 407 584 407 c 0,8,9
 446 407 446 407 372 359.5 c 128,-1,10
 298 312 298 312 298 243 c 0,11,12
 298 169 298 169 367 118 c 128,-1,13
 436 67 436 67 584 67 c 0,14,15
 674 67 674 67 748 93.5 c 128,-1,16
 822 120 822 120 856 159 c 1,17,-1
 1042 159 l 1,18,19
 996 97 996 97 866 45.5 c 128,-1,20
 736 -6 736 -6 580 -6 c 0,21,22
 386 -6 386 -6 260 65.5 c 128,-1,23
 134 137 134 137 134 243 c 128,-1,24
 134 349 134 349 262 414 c 128,-1,25
 390 479 390 479 584 479 c 31,0,1
EndSplineSet
Validated: 3073
EndChar

StartChar: uniFF44
Encoding: 65348 65348 165
Width: 1176
VWidth: 0
Flags: MW
LayerCount: 2
Fore
SplineSet
987 742 m 5,0,-1
 937 717 l 5,1,-1
 937 142 l 5,2,3
 943 85 943 85 1003 54 c 5,4,-1
 1095 54 l 5,5,-1
 967 -8 l 5,6,7
 859 4 859 4 857 78 c 5,8,9
 749 -6 749 -6 605 -6 c 4,10,11
 413 -6 413 -6 247 68.5 c 132,-1,12
 81 143 81 143 81 241 c 4,13,14
 81 352 81 352 183 415.5 c 132,-1,15
 285 479 285 479 467 479 c 4,16,17
 513 479 513 479 633 455 c 132,-1,18
 753 431 753 431 773 421 c 5,19,-1
 773 742 l 5,20,-1
 987 742 l 5,0,-1
429 407 m 4,21,22
 243 407 243 407 243 234 c 4,23,24
 243 171 243 171 360 119 c 132,-1,25
 477 67 477 67 619 67 c 4,26,27
 657 67 657 67 687 77.5 c 132,-1,28
 717 88 717 88 734 109 c 132,-1,29
 751 130 751 130 761 149.5 c 132,-1,30
 771 169 771 169 775 200.5 c 132,-1,31
 779 232 779 232 780 249 c 132,-1,32
 781 266 781 266 781 296 c 4,33,34
 781 332 781 332 710 358.5 c 132,-1,35
 639 385 639 385 558 396 c 132,-1,36
 477 407 477 407 429 407 c 4,21,22
EndSplineSet
Validated: 3073
EndChar

StartChar: uniFF45
Encoding: 65349 65349 166
Width: 1176
VWidth: 0
Flags: MW
LayerCount: 2
Fore
SplineSet
569 479 m 4,0,1
 643 479 643 479 711 467 c 132,-1,2
 779 455 779 455 825 437 c 132,-1,3
 871 419 871 419 906 397.5 c 132,-1,4
 941 376 941 376 962 350 c 132,-1,5
 983 324 983 324 983 310 c 5,6,-1
 331 126 l 5,7,8
 341 107 341 107 399 83 c 4,9,10
 423 73 423 73 469 64.5 c 132,-1,11
 515 56 515 56 569 56 c 4,12,13
 679 56 679 56 760 82 c 132,-1,14
 841 108 841 108 841 134 c 5,15,-1
 1053 165 l 5,16,17
 1003 99 1003 99 876 46.5 c 132,-1,18
 749 -6 749 -6 569 -6 c 4,19,20
 373 -6 373 -6 248 62.5 c 132,-1,21
 123 131 123 131 123 236 c 4,22,23
 123 343 123 343 248 411 c 132,-1,24
 373 479 373 479 569 479 c 4,0,1
795 350 m 5,25,26
 795 353 795 353 792 357.5 c 132,-1,27
 789 362 789 362 774 373.5 c 132,-1,28
 759 385 759 385 737 394 c 132,-1,29
 715 403 715 403 671 410 c 132,-1,30
 627 417 627 417 569 417 c 4,31,32
 463 417 463 417 396 386 c 132,-1,33
 329 355 329 355 308 317 c 132,-1,34
 287 279 287 279 287 236 c 4,35,36
 287 205 287 205 291 185 c 5,37,-1
 795 350 l 5,25,26
EndSplineSet
Validated: 3073
EndChar

StartChar: uniFF46
Encoding: 65350 65350 167
Width: 1176
VWidth: 0
Flags: MW
LayerCount: 2
Fore
SplineSet
732 745 m 0,0,1
 800 745 800 745 857 730.5 c 128,-1,2
 914 716 914 716 949 694.5 c 128,-1,3
 984 673 984 673 1004 654.5 c 128,-1,4
 1024 636 1024 636 1032 620 c 1,5,-1
 868 552 l 1,6,-1
 868 601 l 2,7,8
 868 673 868 673 732 673 c 0,9,10
 588 673 588 673 588 601 c 2,11,-1
 588 463 l 1,12,-1
 976 463 l 1,13,-1
 900 390 l 1,14,-1
 588 390 l 1,15,-1
 588 34 l 1,16,-1
 646 0 l 1,17,-1
 366 0 l 1,18,-1
 424 34 l 1,19,-1
 424 390 l 1,20,-1
 144 390 l 1,21,-1
 144 463 l 1,22,-1
 424 463 l 1,23,-1
 424 621 l 2,24,25
 424 671 424 671 507 708 c 128,-1,26
 590 745 590 745 732 745 c 0,0,1
EndSplineSet
Validated: 3073
EndChar

StartChar: uniFF47
Encoding: 65351 65351 168
Width: 1176
VWidth: 0
Flags: MW
LayerCount: 2
Fore
SplineSet
826 128 m 1,0,1
 794 86 794 86 724 64.5 c 128,-1,2
 654 43 654 43 572 43 c 0,3,4
 398 43 398 43 278 111.5 c 128,-1,5
 158 180 158 180 158 264 c 0,6,7
 158 349 158 349 276 414 c 128,-1,8
 394 479 394 479 572 479 c 0,9,10
 654 479 654 479 724 459 c 128,-1,11
 794 439 794 439 826 397 c 1,12,-1
 826 473 l 5,13,-1
 1018 473 l 1,14,-1
 970 446 l 1,15,-1
 970 -87 l 2,16,17
 970 -123 970 -123 857 -158.5 c 128,-1,18
 744 -194 744 -194 576 -195 c 0,19,20
 408 -195 408 -195 297 -154.5 c 128,-1,21
 186 -114 186 -114 158 -76 c 1,22,-1
 322 -8 l 1,23,-1
 322 -76 l 1,24,25
 332 -81 332 -81 352 -88.5 c 128,-1,26
 372 -96 372 -96 438 -109 c 128,-1,27
 504 -122 504 -122 576 -122 c 0,28,29
 694 -121 694 -121 760 -101 c 128,-1,30
 826 -81 826 -81 826 -52 c 2,31,-1
 826 128 l 1,0,1
572 407 m 0,32,33
 444 407 444 407 383 367.5 c 128,-1,34
 322 328 322 328 322 264 c 128,-1,35
 322 200 322 200 384 158 c 128,-1,36
 446 116 446 116 572 116 c 0,37,38
 794 116 794 116 794 264 c 0,39,40
 794 407 794 407 572 407 c 0,32,33
EndSplineSet
Validated: 3073
EndChar

StartChar: uniFF48
Encoding: 65352 65352 169
Width: 1176
VWidth: 0
Flags: MW
LayerCount: 2
Fore
SplineSet
343 742 m 1,0,-1
 343 413 l 1,1,2
 395 442 395 442 471 460.5 c 128,-1,3
 547 479 547 479 615 479 c 0,4,5
 805 479 805 479 903 411.5 c 128,-1,6
 1001 344 1001 344 1003 252 c 1,7,-1
 1003 30 l 1,8,-1
 1047 0 l 1,9,-1
 785 0 l 1,10,-1
 839 30 l 1,11,-1
 839 252 l 2,12,13
 839 407 839 407 615 407 c 0,14,15
 509 407 509 407 428 368 c 128,-1,16
 347 329 347 329 347 255 c 2,17,-1
 347 30 l 1,18,-1
 391 0 l 1,19,-1
 133 0 l 1,20,-1
 179 30 l 1,21,-1
 179 720 l 1,22,-1
 129 742 l 1,23,-1
 343 742 l 1,0,-1
EndSplineSet
Validated: 3073
EndChar

StartChar: uniFF49
Encoding: 65353 65353 170
Width: 1176
VWidth: 0
Flags: MW
LayerCount: 2
Fore
SplineSet
533 693 m 152,-1,1
 575 693 575 693 618 674 c 128,-1,2
 661 655 661 655 661 630 c 128,-1,3
 661 605 661 605 618 586 c 128,-1,4
 575 567 575 567 533 567 c 128,-1,5
 491 567 491 567 447 585.5 c 128,-1,6
 403 604 403 604 403 630 c 128,-1,7
 403 656 403 656 447 674.5 c 128,-1,0
 491 693 491 693 533 693 c 152,-1,1
647 473 m 25,8,-1
 647 83 l 25,9,-1
 819 83 l 25,10,-1
 743 0 l 1,11,-1
 487 0 l 1,12,-1
 487 390 l 1,13,-1
 357 390 l 1,14,-1
 357 473 l 5,15,-1
 647 473 l 25,8,-1
EndSplineSet
Validated: 3073
EndChar

StartChar: uniFF4A
Encoding: 65354 65354 171
Width: 1176
VWidth: 0
Flags: MW
LayerCount: 2
Fore
SplineSet
858 697 m 24,0,1
 916 697 916 697 959 678 c 128,-1,2
 1002 659 1002 659 1002 631 c 128,-1,3
 1002 603 1002 603 959 584 c 128,-1,4
 916 565 916 565 858 565 c 0,5,6
 798 565 798 565 755 583.5 c 128,-1,7
 712 602 712 602 712 631 c 128,-1,8
 712 660 712 660 755 678.5 c 128,-1,9
 798 697 798 697 858 697 c 24,0,1
174 35 m 0,10,11
 174 61 174 61 204 85 c 128,-1,12
 234 109 234 109 294 109 c 0,13,14
 324 109 324 109 374 99 c 128,-1,15
 424 89 424 89 424 78 c 128,-1,16
 424 67 424 67 381 55 c 128,-1,17
 338 43 338 43 338 25 c 0,18,19
 338 -125 338 -125 560 -125 c 0,20,21
 666 -125 666 -125 721 -87 c 128,-1,22
 776 -49 776 -49 776 12 c 2,23,-1
 776 443 l 5,24,-1
 730 473 l 5,25,-1
 984 473 l 5,26,-1
 940 443 l 5,27,-1
 940 12 l 2,28,29
 940 -76 940 -76 824 -137 c 128,-1,30
 708 -198 708 -198 560 -198 c 0,31,32
 396 -198 396 -198 285 -140.5 c 128,-1,33
 174 -83 174 -83 174 35 c 0,10,11
EndSplineSet
Validated: 3073
EndChar

StartChar: uniFF4B
Encoding: 65355 65355 172
Width: 1176
VWidth: 0
Flags: MW
LayerCount: 2
Fore
SplineSet
775 441 m 5,0,-1
 727 473 l 1,1,-1
 985 473 l 1,2,-1
 939 441 l 5,3,4
 937 341 937 341 705 274 c 1,5,6
 827 232 827 232 902 166.5 c 128,-1,7
 977 101 977 101 985 30 c 1,8,-1
 1031 0 l 1,9,-1
 775 0 l 1,10,-1
 827 30 l 1,11,12
 821 154 821 154 603 237 c 1,13,-1
 353 237 l 1,14,-1
 353 30 l 1,15,-1
 397 0 l 1,16,-1
 145 0 l 1,17,-1
 189 30 l 1,18,-1
 189 714 l 1,19,-1
 145 742 l 1,20,-1
 397 742 l 1,21,-1
 353 714 l 1,22,-1
 353 309 l 1,23,-1
 561 309 l 1,24,25
 683 335 683 335 729 367.5 c 128,-1,26
 775 400 775 400 775 441 c 5,0,-1
EndSplineSet
Validated: 3073
EndChar

StartChar: uniFF4C
Encoding: 65356 65356 173
Width: 1176
VWidth: 0
Flags: MW
LayerCount: 2
Fore
SplineSet
527 742 m 29,0,-1
 477 714 l 1,1,2
 477 158 l 2,3,4
 477 132 477 132 480 119.5 c 128,-1,5
 483 107 483 107 495 92.5 c 128,-1,6
 507 78 507 78 535 72.5 c 128,-1,7
 563 67 563 67 611 67 c 0,8,9
 749 67 749 67 749 123 c 2,10,-1
 749 191 l 1,11,-1
 913 108 l 1,12,13
 893 71 893 71 815 32.5 c 128,-1,14
 737 -6 737 -6 611 -6 c 0,15,16
 539 -6 539 -6 488 0.5 c 128,-1,17
 437 7 437 7 404 23.5 c 128,-1,18
 371 40 371 40 352 56.5 c 128,-1,19
 333 73 333 73 325 105.5 c 128,-1,20
 317 138 317 138 315 163 c 128,-1,21
 313 188 313 188 313 234 c 2,22,-1
 313 714 l 1,23,-1
 263 742 l 1,24,-1
 527 742 l 29,0,-1
EndSplineSet
Validated: 3073
EndChar

StartChar: uniFF4D
Encoding: 65357 65357 174
Width: 1176
VWidth: 0
Flags: MW
LayerCount: 2
Fore
SplineSet
242 473 m 25,0,-1
 242 432 l 1,1,2
 258 448 258 448 308 463.5 c 128,-1,3
 358 479 358 479 392 479 c 4,4,5
 454 478 454 478 499 462.5 c 128,-1,6
 544 447 544 447 592 415 c 1,7,8
 688 478 688 478 802 479 c 0,9,10
 888 479 888 479 961 451 c 128,-1,11
 1034 423 1034 423 1057 380 c 128,-1,12
 1080 337 1080 337 1090 303 c 128,-1,13
 1100 269 1100 269 1100 240 c 2,14,-1
 1100 30 l 1,15,-1
 1150 0 l 1,16,-1
 890 0 l 1,17,-1
 936 30 l 1,18,-1
 936 240 l 2,19,20
 936 407 936 407 802 407 c 0,21,22
 676 407 676 407 676 240 c 2,23,-1
 676 30 l 1,24,-1
 718 0 l 1,25,-1
 460 0 l 1,26,-1
 512 30 l 1,27,-1
 512 240 l 2,28,29
 512 407 512 407 388 407 c 0,30,31
 242 407 242 407 242 240 c 2,32,-1
 242 30 l 1,33,-1
 288 0 l 1,34,-1
 28 0 l 1,35,-1
 78 30 l 1,36,-1
 78 448 l 1,37,-1
 26 473 l 1,38,-1
 242 473 l 25,0,-1
EndSplineSet
Validated: 3073
EndChar

StartChar: uniFF4E
Encoding: 65358 65358 175
Width: 1176
VWidth: 0
Flags: MW
LayerCount: 2
Fore
SplineSet
591 479 m 0,0,1
 727 479 727 479 820 442 c 128,-1,2
 913 405 913 405 952 351.5 c 128,-1,3
 991 298 991 298 991 232 c 2,4,-1
 991 30 l 1,5,-1
 1039 0 l 1,6,-1
 777 0 l 1,7,-1
 827 30 l 1,8,-1
 827 232 l 2,9,10
 827 316 827 316 766 363.5 c 128,-1,11
 705 411 705 411 591 411 c 0,12,13
 453 411 453 411 402 365.5 c 128,-1,14
 351 320 351 320 351 232 c 2,15,-1
 351 30 l 1,16,-1
 399 0 l 1,17,-1
 145 0 l 1,18,-1
 187 30 l 1,19,-1
 187 448 l 1,20,-1
 137 473 l 5,21,-1
 349 473 l 5,22,-1
 349 420 l 1,23,24
 457 479 457 479 591 479 c 0,0,1
EndSplineSet
Validated: 3073
EndChar

StartChar: uniFF4F
Encoding: 65359 65359 176
Width: 1176
VWidth: 0
Flags: MW
LayerCount: 2
Fore
SplineSet
577 417 m 4,0,1
 327 417 327 417 327 230 c 4,2,3
 327 147 327 147 383 101.5 c 132,-1,4
 439 56 439 56 577 56 c 4,5,6
 717 56 717 56 783 102.5 c 132,-1,7
 849 149 849 149 849 230 c 4,8,9
 849 313 849 313 782 365 c 132,-1,10
 715 417 715 417 577 417 c 4,0,1
577 479 m 4,11,12
 767 479 767 479 900 402.5 c 132,-1,13
 1033 326 1033 326 1033 230 c 4,14,15
 1033 136 1033 136 901 65 c 132,-1,16
 769 -6 769 -6 577 -6 c 4,17,18
 387 -6 387 -6 265 64 c 132,-1,19
 143 134 143 134 143 230 c 4,20,21
 143 327 143 327 266 403 c 132,-1,22
 389 479 389 479 577 479 c 4,11,12
EndSplineSet
Validated: 3073
EndChar

StartChar: uniFF50
Encoding: 65360 65360 177
Width: 1176
VWidth: 0
Flags: MW
LayerCount: 2
Fore
SplineSet
631 479 m 0,0,1
 803 479 803 479 914 401 c 128,-1,2
 1025 323 1025 323 1025 234 c 0,3,4
 1025 147 1025 147 913 70.5 c 128,-1,5
 801 -6 801 -6 631 -6 c 0,6,7
 545 -6 545 -6 467 13.5 c 128,-1,8
 389 33 389 33 357 74 c 1,9,-1
 357 -174 l 1,10,-1
 405 -205 l 1,11,-1
 151 -205 l 1,12,-1
 203 -174 l 1,13,-1
 203 448 l 5,14,-1
 151 473 l 5,15,-1
 357 473 l 5,16,-1
 357 402 l 1,17,18
 417 479 417 479 631 479 c 0,0,1
631 407 m 0,19,20
 509 407 509 407 443 354 c 128,-1,21
 377 301 377 301 377 234 c 0,22,23
 377 169 377 169 443 118 c 128,-1,24
 509 67 509 67 631 67 c 128,-1,25
 753 67 753 67 812 116.5 c 128,-1,26
 871 166 871 166 871 234 c 0,27,28
 871 304 871 304 813 355.5 c 128,-1,29
 755 407 755 407 631 407 c 0,19,20
EndSplineSet
Validated: 3073
EndChar

StartChar: uniFF51
Encoding: 65361 65361 178
Width: 1176
VWidth: 0
Flags: MW
LayerCount: 2
Fore
SplineSet
856 473 m 5,0,-1
 810 450 l 1,1,-1
 810 4 l 2,2,3
 810 -146 810 -146 912 -147 c 1,4,5
 1018 -147 1018 -147 1018 -61 c 1,6,-1
 1180 -89 l 1,7,8
 1160 -126 1160 -126 1087 -165.5 c 128,-1,9
 1014 -205 1014 -205 902 -205 c 0,10,11
 656 -204 656 -204 656 4 c 2,12,-1
 656 74 l 1,13,14
 624 33 624 33 547 13.5 c 128,-1,15
 470 -6 470 -6 384 -6 c 0,16,17
 214 -6 214 -6 105 70.5 c 128,-1,18
 -4 147 -4 147 -4 234 c 0,19,20
 -4 291 -4 291 41 346 c 128,-1,21
 86 401 86 401 177 440 c 128,-1,22
 268 479 268 479 384 479 c 0,23,24
 596 479 596 479 656 402 c 1,25,-1
 656 473 l 1,26,-1
 856 473 l 5,0,-1
384 407 m 128,-1,28
 262 407 262 407 210 356.5 c 128,-1,29
 158 306 158 306 158 234 c 0,30,31
 158 164 158 164 210 115.5 c 128,-1,32
 262 67 262 67 384 67 c 128,-1,33
 506 67 506 67 574 118 c 128,-1,34
 642 169 642 169 642 234 c 0,35,36
 642 301 642 301 574 354 c 128,-1,27
 506 407 506 407 384 407 c 128,-1,28
EndSplineSet
Validated: 3073
EndChar

StartChar: uniFF52
Encoding: 65362 65362 179
Width: 1176
VWidth: 0
Flags: MW
LayerCount: 2
Fore
SplineSet
640 479 m 0,0,1
 820 478 820 478 924 424 c 128,-1,2
 1028 370 1028 370 1030 319 c 0,3,4
 1030 299 1030 299 983 284 c 128,-1,5
 936 269 936 269 868 269 c 0,6,7
 846 269 846 269 833 278 c 128,-1,8
 820 287 820 287 820 293 c 0,9,10
 820 302 820 302 843 312 c 128,-1,11
 866 322 866 322 866 330 c 0,12,13
 866 370 866 370 800 388.5 c 128,-1,14
 734 407 734 407 640 407 c 0,15,16
 560 407 560 407 500 384.5 c 128,-1,17
 440 362 440 362 412 329 c 128,-1,18
 384 296 384 296 371 267 c 128,-1,19
 358 238 358 238 358 215 c 2,20,-1
 358 32 l 1,21,-1
 408 0 l 1,22,-1
 150 0 l 1,23,-1
 194 32 l 1,24,-1
 194 450 l 1,25,26
 146 469 146 469 146 473 c 5,27,-1
 358 473 l 1,28,-1
 358 399 l 1,29,30
 378 426 378 426 473 452.5 c 128,-1,31
 568 479 568 479 640 479 c 0,0,1
EndSplineSet
Validated: 3073
EndChar

StartChar: uniFF53
Encoding: 65363 65363 180
Width: 1176
VWidth: 0
Flags: MW
LayerCount: 2
Fore
SplineSet
772 479 m 6,0,1
 812 479 812 479 908 454 c 4,2,3
 944 445 944 445 972 418 c 132,-1,4
 1000 391 1000 391 1002 369 c 4,5,6
 1002 348 1002 348 975 338.5 c 132,-1,7
 948 329 948 329 882 329 c 4,8,9
 858 329 858 329 839 332.5 c 132,-1,10
 820 336 820 336 820 341 c 4,11,12
 820 350 820 350 843 355.5 c 132,-1,13
 866 361 866 361 866 369 c 4,14,15
 866 380 866 380 831 393.5 c 132,-1,16
 796 407 796 407 754 407 c 6,17,-1
 472 407 l 6,18,19
 406 407 406 407 372 390 c 132,-1,20
 338 373 338 373 338 345 c 4,21,22
 338 316 338 316 372 298.5 c 132,-1,23
 406 281 406 281 472 281 c 6,24,-1
 716 281 l 6,25,26
 836 281 836 281 919 239 c 132,-1,27
 1002 197 1002 197 1002 142 c 132,-1,28
 1002 87 1002 87 917 40.5 c 132,-1,29
 832 -6 832 -6 716 -6 c 6,30,-1
 402 -6 l 6,31,32
 372 -6 372 -6 272 19 c 4,33,34
 236 28 236 28 206 55.5 c 132,-1,35
 176 83 176 83 174 104 c 5,36,37
 174 144 174 144 310 144 c 4,38,39
 360 144 360 144 360 132 c 4,40,41
 360 123 360 123 335 117.5 c 132,-1,42
 310 112 310 112 310 104 c 4,43,44
 310 94 310 94 347 80.5 c 132,-1,45
 384 67 384 67 426 67 c 6,46,-1
 720 67 l 6,47,48
 838 67 838 67 838 136 c 4,49,50
 838 167 838 167 809 187.5 c 132,-1,51
 780 208 780 208 716 208 c 6,52,-1
 490 208 l 6,53,54
 368 208 368 208 271 250 c 132,-1,55
 174 292 174 292 174 345 c 132,-1,56
 174 398 174 398 270 438.5 c 132,-1,57
 366 479 366 479 490 479 c 6,58,-1
 772 479 l 6,0,1
EndSplineSet
Validated: 3073
EndChar

StartChar: uniFF54
Encoding: 65364 65364 181
Width: 1176
VWidth: 0
Flags: MW
LayerCount: 2
Fore
SplineSet
620 742 m 1,0,-1
 576 713 l 1,1,-1
 576 463 l 1,2,-1
 1020 463 l 1,3,-1
 944 390 l 1,4,-1
 576 390 l 1,5,-1
 576 164 l 2,6,7
 576 143 576 143 576 132 c 128,-1,8
 576 121 576 121 584 106.5 c 128,-1,9
 592 92 592 92 605 85 c 128,-1,10
 618 78 618 78 644 72.5 c 128,-1,11
 670 67 670 67 708 67 c 0,12,13
 752 67 752 67 788 85 c 128,-1,14
 824 103 824 103 840 121 c 2,15,-1
 854 139 l 1,16,-1
 854 208 l 1,17,-1
 1002 134 l 1,18,19
 990 112 990 112 954 82 c 128,-1,20
 918 52 918 52 847 23 c 128,-1,21
 776 -6 776 -6 698 -6 c 0,22,23
 586 -6 586 -6 499 27.5 c 128,-1,24
 412 61 412 61 412 119 c 2,25,-1
 412 390 l 1,26,-1
 156 390 l 1,27,-1
 156 463 l 1,28,-1
 412 463 l 1,29,-1
 412 713 l 1,30,-1
 356 742 l 1,31,-1
 620 742 l 1,0,-1
EndSplineSet
Validated: 3073
EndChar

StartChar: uniFF55
Encoding: 65365 65365 182
Width: 1176
VWidth: 0
Flags: MW
LayerCount: 2
Fore
SplineSet
1039 473 m 29,0,-1
 995 442 l 5,1,-1
 995 15 l 1,2,-1
 1043 -6 l 1,3,-1
 831 -6 l 1,4,-1
 831 63 l 1,5,6
 705 -6 705 -6 577 -6 c 0,7,8
 379 -6 379 -6 279 66.5 c 128,-1,9
 179 139 179 139 179 242 c 2,10,-1
 179 442 l 5,11,-1
 133 473 l 5,12,-1
 395 473 l 5,13,-1
 343 442 l 5,14,15
 343 248 l 2,16,17
 343 163 343 163 403 115 c 128,-1,18
 463 67 463 67 577 67 c 0,19,20
 705 67 705 67 768 116 c 128,-1,21
 831 165 831 165 831 248 c 2,22,-1
 831 442 l 5,23,-1
 785 473 l 5,24,-1
 1039 473 l 29,0,-1
EndSplineSet
Validated: 3073
EndChar

StartChar: uniFF56
Encoding: 65366 65366 183
Width: 1176
VWidth: 0
Flags: MW
LayerCount: 2
Fore
SplineSet
1041 473 m 29,0,-1
 991 441 l 5,1,-1
 991 369 l 2,2,3
 991 288 991 288 864 163 c 128,-1,4
 737 38 737 38 589 -6 c 1,5,6
 441 38 441 38 313 163 c 128,-1,7
 185 288 185 288 185 369 c 2,8,-1
 185 441 l 5,9,-1
 135 473 l 5,10,-1
 403 473 l 5,11,-1
 349 441 l 5,12,-1
 349 369 l 2,13,14
 349 313 349 313 426 213 c 128,-1,15
 503 113 503 113 589 75 c 1,16,17
 673 113 673 113 750 213 c 128,-1,18
 827 313 827 313 827 369 c 2,19,-1
 827 441 l 5,20,-1
 769 473 l 5,21,-1
 1041 473 l 29,0,-1
EndSplineSet
Validated: 3073
EndChar

StartChar: uniFF57
Encoding: 65367 65367 184
Width: 1176
VWidth: 0
Flags: MW
LayerCount: 2
Fore
SplineSet
1111 473 m 25,0,-1
 1067 441 l 1,1,-1
 1067 217 l 2,2,3
 1067 37 1067 37 799 -6 c 1,4,5
 715 15 715 15 662 39 c 128,-1,6
 609 63 609 63 587 99 c 1,7,8
 545 32 545 32 393 -6 c 1,9,10
 109 40 109 40 109 217 c 2,11,-1
 109 441 l 1,12,-1
 65 473 l 5,13,-1
 321 473 l 1,14,-1
 273 441 l 1,15,-1
 273 217 l 2,16,17
 273 156 273 156 293 125 c 128,-1,18
 313 94 313 94 393 67 c 1,19,20
 469 101 469 101 488 130 c 128,-1,21
 507 159 507 159 507 217 c 2,22,-1
 507 441 l 1,23,-1
 455 473 l 1,24,-1
 713 473 l 1,25,-1
 669 441 l 1,26,-1
 669 217 l 2,27,28
 669 163 669 163 694 133 c 128,-1,29
 719 103 719 103 799 67 c 1,30,31
 849 84 849 84 872 109 c 128,-1,32
 895 134 895 134 898 153 c 128,-1,33
 901 172 901 172 903 217 c 1,34,-1
 903 441 l 1,35,-1
 853 473 l 1,36,-1
 1111 473 l 25,0,-1
EndSplineSet
Validated: 3073
EndChar

StartChar: uniFF58
Encoding: 65368 65368 185
Width: 1176
VWidth: 0
Flags: MW
LayerCount: 2
Fore
SplineSet
585 292 m 1,0,-1
 841 447 l 1,1,-1
 851 489 l 1,2,-1
 1035 399 l 1,3,-1
 957 394 l 1,4,-1
 693 236 l 1,5,-1
 955 78 l 1,6,-1
 1035 74 l 1,7,-1
 851 -27 l 1,8,-1
 841 25 l 1,9,-1
 585 180 l 1,10,-1
 335 25 l 1,11,-1
 325 -27 l 1,12,-1
 141 74 l 1,13,-1
 221 78 l 1,14,-1
 483 236 l 1,15,-1
 219 394 l 1,16,-1
 141 399 l 1,17,-1
 325 489 l 1,18,-1
 335 447 l 1,19,-1
 585 292 l 1,0,-1
EndSplineSet
Validated: 3073
EndChar

StartChar: uniFF59
Encoding: 65369 65369 186
Width: 1176
VWidth: 0
Flags: MW
LayerCount: 2
Fore
SplineSet
1038 473 m 29,0,-1
 992 442 l 5,1,-1
 992 10 l 2,2,3
 992 -98 992 -98 883 -151.5 c 128,-1,4
 774 -205 774 -205 576 -205 c 1,5,6
 434 -204 434 -204 323 -166 c 128,-1,7
 212 -128 212 -128 206 -59 c 1,8,-1
 332 -23 l 1,9,10
 332 -132 332 -132 576 -132 c 0,11,12
 714 -132 714 -132 774 -95 c 128,-1,13
 834 -58 834 -58 834 20 c 2,14,-1
 834 110 l 1,15,16
 810 76 810 76 733 58.5 c 128,-1,17
 656 41 656 41 576 41 c 0,18,19
 378 41 378 41 281 107.5 c 128,-1,20
 184 174 184 174 184 272 c 2,21,-1
 184 442 l 5,22,-1
 138 473 l 5,23,-1
 402 473 l 5,24,-1
 348 442 l 5,25,-1
 348 272 l 2,26,27
 348 190 348 190 404 152 c 128,-1,28
 460 114 460 114 576 114 c 0,29,30
 828 114 828 114 828 272 c 2,31,-1
 828 442 l 5,32,-1
 782 473 l 5,33,-1
 1038 473 l 29,0,-1
EndSplineSet
Validated: 3073
EndChar

StartChar: uniFF5A
Encoding: 65370 65370 187
Width: 1176
VWidth: 0
Flags: MW
LayerCount: 2
Fore
SplineSet
1033 471 m 21,0,1
 1027 366 1027 366 347 78 c 5,2,3
 791 65 l 5,4,5
 865 72 865 72 865 84 c 4,6,7
 865 92 865 92 841 97 c 132,-1,8
 817 102 817 102 817 111 c 4,9,10
 817 124 817 124 865 124 c 4,11,12
 929 124 929 124 966 106.5 c 132,-1,13
 1003 89 1003 89 1003 67 c 4,14,15
 999 18 999 18 927 -1 c 4,16,17
 877 -14 877 -14 813 -14 c 5,18,19
 467 5 467 5 303 5 c 4,20,21
 143 5 143 5 143 78 c 5,22,23
 187 107 187 107 331 172 c 132,-1,24
 475 237 475 237 610 298.5 c 132,-1,25
 745 360 745 360 785 399 c 5,26,-1
 373 399 l 5,27,28
 303 392 303 392 303 380 c 4,29,30
 303 372 303 372 325 366 c 132,-1,31
 347 360 347 360 347 351 c 4,32,33
 347 337 347 337 303 337 c 4,34,35
 239 337 239 337 201 354 c 132,-1,36
 163 371 163 371 163 393 c 4,37,38
 167 437 167 437 243 457 c 4,39,40
 297 471 297 471 353 471 c 6,41,-1
 1033 471 l 21,0,1
EndSplineSet
Validated: 3073
EndChar

StartChar: uniFF5B
Encoding: 65371 65371 188
Width: 1176
VWidth: 0
Flags: MW
LayerCount: 2
Fore
SplineSet
825 819 m 9,0,-1
 825 737 l 1,1,2
 767 737 767 737 730 725 c 128,-1,3
 693 713 693 713 685 701 c 2,4,-1
 677 689 l 1,5,6
 739 553 739 553 739 520 c 0,7,8
 739 502 739 502 708 479.5 c 128,-1,9
 677 457 677 457 622 425 c 128,-1,10
 567 393 567 393 539 373 c 1,11,12
 567 351 567 351 622 315 c 128,-1,13
 677 279 677 279 708 254 c 128,-1,14
 739 229 739 229 739 211 c 1,15,-1
 677 42 l 2,16,17
 677 40 677 40 680 37 c 128,-1,18
 683 34 683 34 693 25.5 c 128,-1,19
 703 17 703 17 718 10.5 c 128,-1,20
 733 4 733 4 761 -1 c 128,-1,21
 789 -6 789 -6 825 -6 c 1,22,-1
 825 -88 l 1,23,24
 761 -88 761 -88 705 -75.5 c 128,-1,25
 649 -63 649 -63 615 -45.5 c 128,-1,26
 581 -28 581 -28 557 -10 c 0,27,28
 531 8 531 8 523 20 c 2,29,-1
 515 32 l 1,30,31
 575 181 575 181 575 211 c 0,32,33
 575 228 575 228 541 253 c 128,-1,34
 507 278 507 278 444 314.5 c 128,-1,35
 381 351 381 351 351 373 c 1,36,37
 381 393 381 393 444 424.5 c 128,-1,38
 507 456 507 456 541 478.5 c 128,-1,39
 575 501 575 501 575 520 c 1,40,-1
 515 698 l 1,41,42
 519 703 519 703 526 711 c 128,-1,43
 533 719 533 719 559 740 c 128,-1,44
 585 761 585 761 617 777 c 128,-1,45
 649 793 649 793 705 806 c 128,-1,46
 761 819 761 819 825 819 c 9,0,-1
EndSplineSet
Validated: 3073
EndChar

StartChar: uniFF5C
Encoding: 65372 65372 189
Width: 1176
VWidth: 0
Flags: MW
LayerCount: 2
Fore
SplineSet
670 819 m 25,0,-1
 670 -88 l 1,1,-1
 506 -88 l 1,2,-1
 506 819 l 1,3,-1
 670 819 l 25,0,-1
EndSplineSet
Validated: 3073
EndChar

StartChar: uniFF5D
Encoding: 65373 65373 190
Width: 1176
VWidth: 0
Flags: MW
LayerCount: 2
Fore
SplineSet
351 819 m 17,0,1
 415 819 415 819 470 806.5 c 128,-1,2
 525 794 525 794 559 776 c 128,-1,3
 593 758 593 758 617 740 c 128,-1,4
 641 722 641 722 651 710 c 2,5,-1
 661 698 l 1,6,-1
 601 520 l 1,7,8
 601 501 601 501 635 478.5 c 128,-1,9
 669 456 669 456 732 424.5 c 128,-1,10
 795 393 795 393 825 373 c 1,11,12
 795 351 795 351 732 314.5 c 128,-1,13
 669 278 669 278 635 253 c 128,-1,14
 601 228 601 228 601 211 c 0,15,16
 601 198 601 198 616 153 c 128,-1,17
 631 108 631 108 647 70 c 2,18,-1
 661 32 l 1,19,20
 657 27 657 27 651 19 c 128,-1,21
 645 11 645 11 619 -9.5 c 128,-1,22
 593 -30 593 -30 561 -46 c 128,-1,23
 529 -62 529 -62 472 -75 c 128,-1,24
 415 -88 415 -88 351 -88 c 1,25,-1
 351 -6 l 1,26,27
 407 -6 407 -6 443 6 c 0,28,29
 483 18 483 18 491 30 c 2,30,-1
 499 42 l 1,31,-1
 437 211 l 1,32,33
 437 229 437 229 468 254 c 128,-1,34
 499 279 499 279 554 315 c 128,-1,35
 609 351 609 351 637 373 c 1,36,37
 609 393 609 393 554 425 c 128,-1,38
 499 457 499 457 468 479.5 c 128,-1,39
 437 502 437 502 437 520 c 0,40,41
 437 535 437 535 452 577 c 128,-1,42
 467 619 467 619 483 654 c 2,43,-1
 499 689 l 2,44,45
 499 691 499 691 497 694 c 128,-1,46
 495 697 495 697 485 705.5 c 128,-1,47
 475 714 475 714 460 720.5 c 128,-1,48
 445 727 445 727 416 732 c 128,-1,49
 387 737 387 737 351 737 c 1,50,-1
 351 819 l 17,0,1
EndSplineSet
Validated: 3073
EndChar

StartChar: uniFF5E
Encoding: 65374 65374 191
Width: 1176
VWidth: 0
Flags: MW
LayerCount: 2
Fore
SplineSet
1008 424 m 1,0,1
 1070 424 1070 424 1070 387 c 0,2,3
 1070 361 1070 361 980 327 c 128,-1,4
 890 293 890 293 806 293 c 0,5,6
 760 293 760 293 579 342 c 128,-1,7
 398 391 398 391 368 391 c 0,8,9
 338 390 338 390 286 376 c 128,-1,10
 234 362 234 362 198 347 c 2,11,-1
 162 332 l 1,12,13
 106 332 106 332 106 369 c 0,14,15
 106 395 106 395 195 429 c 128,-1,16
 284 463 284 463 368 463 c 0,17,18
 414 463 414 463 595 414.5 c 128,-1,19
 776 366 776 366 806 366 c 128,-1,20
 836 366 836 366 886 380 c 0,21,22
 936 396 936 396 972 410 c 2,23,-1
 1008 424 l 1,0,1
EndSplineSet
Validated: 3073
EndChar

StartChar: SF430000
Encoding: 9552 9552 192
Width: 588
VWidth: 1000
Flags: MW
LayerCount: 2
Fore
SplineSet
0 333 m 1,0,-1
 0 399 l 1,1,-1
 588 399 l 1,2,-1
 588 333 l 1,3,-1
 0 333 l 1,0,-1
0 200 m 1,4,-1
 0 266 l 1,5,-1
 588 266 l 1,6,-1
 588 200 l 1,7,-1
 0 200 l 1,4,-1
EndSplineSet
Validated: 3073
EndChar

StartChar: SF240000
Encoding: 9553 9553 193
Width: 588
VWidth: 1000
Flags: MW
LayerCount: 2
Fore
SplineSet
256 -277 m 1,0,-1
 162 -277 l 1,1,-1
 162 876 l 5,2,-1
 256 876 l 5,3,-1
 256 -277 l 1,0,-1
426 -277 m 1,4,-1
 332 -277 l 1,5,-1
 332 876 l 1,6,-1
 426 876 l 1,7,-1
 426 -277 l 1,4,-1
EndSplineSet
Validated: 3073
EndChar

StartChar: SF510000
Encoding: 9554 9554 194
Width: 588
VWidth: 1000
Flags: MW
LayerCount: 2
Fore
SplineSet
247 -277 m 1,0,-1
 247 399 l 1,1,-1
 588 399 l 1,2,-1
 588 333 l 1,3,-1
 341 333 l 1,4,-1
 341 266 l 1,5,-1
 588 266 l 1,6,-1
 588 200 l 1,7,-1
 341 200 l 1,8,-1
 341 -277 l 1,9,-1
 247 -277 l 1,0,-1
EndSplineSet
Validated: 3073
EndChar

StartChar: SF520000
Encoding: 9555 9555 195
Width: 588
VWidth: 1000
Flags: MW
LayerCount: 2
Fore
SplineSet
162 -277 m 1,0,-1
 162 333 l 1,1,-1
 588 333 l 1,2,-1
 588 266 l 1,3,-1
 426 266 l 1,4,-1
 426 -277 l 1,5,-1
 332 -277 l 1,6,-1
 332 266 l 1,7,-1
 256 266 l 1,8,-1
 256 -277 l 1,9,-1
 162 -277 l 1,0,-1
EndSplineSet
Validated: 3073
EndChar

StartChar: SF390000
Encoding: 9556 9556 196
Width: 588
VWidth: 1000
Flags: MW
LayerCount: 2
Fore
SplineSet
256 -277 m 1,0,-1
 162 -277 l 1,1,-1
 162 399 l 1,2,-1
 588 399 l 1,3,-1
 588 333 l 1,4,-1
 256 333 l 1,5,-1
 256 -277 l 1,0,-1
332 -277 m 1,6,-1
 332 266 l 1,7,-1
 588 266 l 1,8,-1
 588 200 l 1,9,-1
 426 200 l 1,10,-1
 426 -277 l 1,11,-1
 332 -277 l 1,6,-1
EndSplineSet
Validated: 3073
EndChar

StartChar: SF220000
Encoding: 9557 9557 197
Width: 588
VWidth: 1000
Flags: MW
LayerCount: 2
Fore
SplineSet
341 -277 m 1,0,-1
 247 -277 l 1,1,-1
 247 200 l 1,2,-1
 0 200 l 1,3,-1
 0 266 l 1,4,-1
 247 266 l 1,5,-1
 247 333 l 1,6,-1
 0 333 l 1,7,-1
 0 399 l 1,8,-1
 341 399 l 1,9,-1
 341 -277 l 1,0,-1
EndSplineSet
Validated: 3073
EndChar

StartChar: SF210000
Encoding: 9558 9558 198
Width: 588
VWidth: 1000
Flags: MW
LayerCount: 2
Fore
SplineSet
256 -277 m 1,0,-1
 162 -277 l 1,1,-1
 162 266 l 1,2,-1
 0 266 l 1,3,-1
 0 333 l 1,4,-1
 426 333 l 1,5,-1
 426 -277 l 1,6,-1
 332 -277 l 1,7,-1
 332 266 l 1,8,-1
 256 266 l 1,9,-1
 256 -277 l 1,0,-1
EndSplineSet
Validated: 3073
EndChar

StartChar: SF250000
Encoding: 9559 9559 199
Width: 588
VWidth: 1000
Flags: MW
LayerCount: 2
Fore
SplineSet
426 -277 m 1,0,-1
 332 -277 l 1,1,-1
 332 333 l 1,2,-1
 0 333 l 1,3,-1
 0 399 l 1,4,-1
 426 399 l 1,5,-1
 426 -277 l 1,0,-1
256 -277 m 1,6,-1
 162 -277 l 1,7,-1
 162 200 l 1,8,-1
 0 200 l 1,9,-1
 0 266 l 1,10,-1
 256 266 l 1,11,-1
 256 -277 l 1,6,-1
EndSplineSet
Validated: 3073
EndChar

StartChar: SF500000
Encoding: 9560 9560 200
Width: 588
VWidth: 1000
Flags: MW
LayerCount: 2
Fore
SplineSet
588 200 m 1,0,-1
 247 200 l 1,1,-1
 247 876 l 1,2,-1
 341 876 l 1,3,-1
 341 399 l 1,4,-1
 588 399 l 1,5,-1
 588 333 l 1,6,-1
 341 333 l 1,7,-1
 341 266 l 1,8,-1
 588 266 l 1,9,-1
 588 200 l 1,0,-1
EndSplineSet
Validated: 3073
EndChar

StartChar: SF490000
Encoding: 9561 9561 201
Width: 588
VWidth: 1000
Flags: MW
LayerCount: 2
Fore
SplineSet
162 266 m 1,0,-1
 162 876 l 1,1,-1
 256 876 l 1,2,-1
 256 333 l 1,3,-1
 332 333 l 1,4,-1
 332 876 l 1,5,-1
 426 876 l 1,6,-1
 426 333 l 1,7,-1
 588 333 l 1,8,-1
 588 266 l 1,9,-1
 162 266 l 1,0,-1
EndSplineSet
Validated: 3073
EndChar

StartChar: SF280000
Encoding: 9563 9563 202
Width: 588
VWidth: 1000
Flags: MW
LayerCount: 2
Fore
SplineSet
0 200 m 1,0,-1
 0 266 l 1,1,-1
 247 266 l 1,2,-1
 247 333 l 1,3,-1
 0 333 l 1,4,-1
 0 399 l 1,5,-1
 247 399 l 1,6,-1
 247 876 l 1,7,-1
 341 876 l 1,8,-1
 341 200 l 1,9,-1
 0 200 l 1,0,-1
EndSplineSet
Validated: 3073
EndChar

StartChar: SF270000
Encoding: 9564 9564 203
Width: 588
VWidth: 1000
Flags: MW
LayerCount: 2
Fore
SplineSet
0 266 m 1,0,-1
 0 333 l 1,1,-1
 162 333 l 1,2,-1
 162 876 l 1,3,-1
 256 876 l 1,4,-1
 256 333 l 1,5,-1
 332 333 l 1,6,-1
 332 876 l 1,7,-1
 426 876 l 1,8,-1
 426 266 l 1,9,-1
 0 266 l 1,0,-1
EndSplineSet
Validated: 3073
EndChar

StartChar: SF260000
Encoding: 9565 9565 204
Width: 588
VWidth: 1000
Flags: MW
LayerCount: 2
Fore
SplineSet
0 333 m 1,0,-1
 0 399 l 1,1,-1
 162 399 l 1,2,-1
 162 876 l 1,3,-1
 256 876 l 1,4,-1
 256 333 l 1,5,-1
 0 333 l 1,0,-1
0 200 m 1,6,-1
 0 266 l 1,7,-1
 332 266 l 1,8,-1
 332 876 l 1,9,-1
 426 876 l 1,10,-1
 426 200 l 1,11,-1
 0 200 l 1,6,-1
EndSplineSet
Validated: 3073
EndChar

StartChar: SF360000
Encoding: 9566 9566 205
Width: 588
VWidth: 1000
Flags: MW
LayerCount: 2
Fore
SplineSet
247 -277 m 1,0,-1
 247 876 l 1,1,-1
 341 876 l 1,2,-1
 341 399 l 1,3,-1
 588 399 l 1,4,-1
 588 333 l 1,5,-1
 341 333 l 1,6,-1
 341 266 l 1,7,-1
 588 266 l 1,8,-1
 588 200 l 1,9,-1
 341 200 l 1,10,-1
 341 -277 l 1,11,-1
 247 -277 l 1,0,-1
EndSplineSet
Validated: 3073
EndChar

StartChar: SF370000
Encoding: 9567 9567 206
Width: 588
VWidth: 1000
Flags: MW
LayerCount: 2
Fore
SplineSet
256 -277 m 1,0,-1
 162 -277 l 1,1,-1
 162 876 l 1,2,-1
 256 876 l 1,3,-1
 256 -277 l 1,0,-1
332 -277 m 1,4,-1
 332 876 l 1,5,-1
 426 876 l 1,6,-1
 426 333 l 1,7,-1
 588 333 l 1,8,-1
 588 266 l 1,9,-1
 426 266 l 1,10,-1
 426 -277 l 1,11,-1
 332 -277 l 1,4,-1
EndSplineSet
Validated: 3073
EndChar

StartChar: SF420000
Encoding: 9568 9568 207
Width: 588
VWidth: 1000
Flags: MW
LayerCount: 2
Fore
SplineSet
256 -277 m 1,0,-1
 162 -277 l 1,1,-1
 162 876 l 1,2,-1
 256 876 l 1,3,-1
 256 -277 l 1,0,-1
332 333 m 1,4,-1
 332 876 l 1,5,-1
 426 876 l 1,6,-1
 426 399 l 1,7,-1
 588 399 l 1,8,-1
 588 333 l 1,9,-1
 332 333 l 1,4,-1
332 -277 m 1,10,-1
 332 266 l 1,11,-1
 588 266 l 1,12,-1
 588 200 l 1,13,-1
 426 200 l 1,14,-1
 426 -277 l 1,15,-1
 332 -277 l 1,10,-1
EndSplineSet
Validated: 3073
EndChar

StartChar: SF190000
Encoding: 9569 9569 208
Width: 588
VWidth: 1000
Flags: MW
LayerCount: 2
Fore
SplineSet
341 -277 m 1,0,-1
 247 -277 l 1,1,-1
 247 200 l 1,2,-1
 0 200 l 1,3,-1
 0 266 l 1,4,-1
 247 266 l 1,5,-1
 247 333 l 1,6,-1
 0 333 l 1,7,-1
 0 399 l 1,8,-1
 247 399 l 1,9,-1
 247 876 l 1,10,-1
 341 876 l 1,11,-1
 341 -277 l 1,0,-1
EndSplineSet
Validated: 3073
EndChar

StartChar: SF200000
Encoding: 9570 9570 209
Width: 588
VWidth: 1000
Flags: MW
LayerCount: 2
Fore
SplineSet
256 -277 m 1,0,-1
 162 -277 l 1,1,-1
 162 266 l 1,2,-1
 0 266 l 1,3,-1
 0 333 l 1,4,-1
 162 333 l 1,5,-1
 162 876 l 1,6,-1
 256 876 l 1,7,-1
 256 -277 l 1,0,-1
426 -277 m 1,8,-1
 332 -277 l 1,9,-1
 332 876 l 1,10,-1
 426 876 l 1,11,-1
 426 -277 l 1,8,-1
EndSplineSet
Validated: 3073
EndChar

StartChar: SF230000
Encoding: 9571 9571 210
Width: 588
VWidth: 1000
Flags: MW
LayerCount: 2
Fore
SplineSet
0 333 m 1,0,-1
 0 399 l 1,1,-1
 162 399 l 1,2,-1
 162 876 l 1,3,-1
 256 876 l 1,4,-1
 256 333 l 1,5,-1
 0 333 l 1,0,-1
426 -277 m 1,6,-1
 332 -277 l 1,7,-1
 332 876 l 1,8,-1
 426 876 l 1,9,-1
 426 -277 l 1,6,-1
256 -277 m 1,10,-1
 162 -277 l 1,11,-1
 162 200 l 1,12,-1
 0 200 l 1,13,-1
 0 266 l 1,14,-1
 256 266 l 1,15,-1
 256 -277 l 1,10,-1
EndSplineSet
Validated: 3073
EndChar

StartChar: SF470000
Encoding: 9572 9572 211
Width: 588
VWidth: 1000
Flags: MW
LayerCount: 2
Fore
SplineSet
0 333 m 1,0,-1
 0 399 l 1,1,-1
 588 399 l 1,2,-1
 588 333 l 1,3,-1
 0 333 l 1,0,-1
341 -277 m 1,4,-1
 247 -277 l 1,5,-1
 247 200 l 1,6,-1
 0 200 l 1,7,-1
 0 266 l 1,8,-1
 588 266 l 1,9,-1
 588 200 l 1,10,-1
 341 200 l 1,11,-1
 341 -277 l 1,4,-1
EndSplineSet
Validated: 3073
EndChar

StartChar: SF480000
Encoding: 9573 9573 212
Width: 588
VWidth: 1000
Flags: MW
LayerCount: 2
Fore
SplineSet
256 -277 m 1,0,-1
 162 -277 l 1,1,-1
 162 266 l 1,2,-1
 0 266 l 1,3,-1
 0 333 l 1,4,-1
 588 333 l 1,5,-1
 588 266 l 1,6,-1
 426 266 l 1,7,-1
 426 -277 l 1,8,-1
 332 -277 l 1,9,-1
 332 266 l 1,10,-1
 256 266 l 1,11,-1
 256 -277 l 1,0,-1
EndSplineSet
Validated: 3073
EndChar

StartChar: SF410000
Encoding: 9574 9574 213
Width: 588
VWidth: 1000
Flags: MW
LayerCount: 2
Fore
SplineSet
0 333 m 1,0,-1
 0 399 l 1,1,-1
 588 399 l 1,2,-1
 588 333 l 1,3,-1
 0 333 l 1,0,-1
256 -277 m 1,4,-1
 162 -277 l 1,5,-1
 162 200 l 1,6,-1
 0 200 l 1,7,-1
 0 266 l 1,8,-1
 256 266 l 1,9,-1
 256 -277 l 1,4,-1
332 -277 m 1,10,-1
 332 266 l 1,11,-1
 588 266 l 1,12,-1
 588 200 l 1,13,-1
 426 200 l 1,14,-1
 426 -277 l 1,15,-1
 332 -277 l 1,10,-1
EndSplineSet
Validated: 3073
EndChar

StartChar: SF450000
Encoding: 9575 9575 214
Width: 588
VWidth: 1000
Flags: MW
LayerCount: 2
Fore
SplineSet
0 333 m 1,0,-1
 0 399 l 1,1,-1
 247 399 l 1,2,-1
 247 876 l 1,3,-1
 341 876 l 1,4,-1
 341 399 l 1,5,-1
 588 399 l 1,6,-1
 588 333 l 1,7,-1
 0 333 l 1,0,-1
0 200 m 1,8,-1
 0 266 l 1,9,-1
 588 266 l 1,10,-1
 588 200 l 1,11,-1
 0 200 l 1,8,-1
EndSplineSet
Validated: 3073
EndChar

StartChar: SF460000
Encoding: 9576 9576 215
Width: 588
VWidth: 1000
Flags: MW
LayerCount: 2
Fore
SplineSet
0 266 m 1,0,-1
 0 333 l 1,1,-1
 162 333 l 1,2,-1
 162 876 l 1,3,-1
 256 876 l 1,4,-1
 256 333 l 1,5,-1
 332 333 l 1,6,-1
 332 876 l 1,7,-1
 426 876 l 1,8,-1
 426 333 l 1,9,-1
 588 333 l 1,10,-1
 588 266 l 1,11,-1
 0 266 l 1,0,-1
EndSplineSet
Validated: 3073
EndChar

StartChar: SF400000
Encoding: 9577 9577 216
Width: 588
VWidth: 1000
Flags: MW
LayerCount: 2
Fore
SplineSet
0 333 m 1,0,-1
 0 399 l 1,1,-1
 162 399 l 1,2,-1
 162 876 l 1,3,-1
 256 876 l 1,4,-1
 256 333 l 1,5,-1
 0 333 l 1,0,-1
332 333 m 1,6,-1
 332 876 l 1,7,-1
 426 876 l 1,8,-1
 426 399 l 1,9,-1
 588 399 l 1,10,-1
 588 333 l 1,11,-1
 332 333 l 1,6,-1
0 200 m 1,12,-1
 0 266 l 1,13,-1
 588 266 l 1,14,-1
 588 200 l 1,15,-1
 0 200 l 1,12,-1
EndSplineSet
Validated: 3073
EndChar

StartChar: SF540000
Encoding: 9578 9578 217
Width: 588
VWidth: 1000
Flags: MW
LayerCount: 2
Fore
SplineSet
0 333 m 1,0,-1
 0 399 l 1,1,-1
 247 399 l 1,2,-1
 247 876 l 1,3,-1
 341 876 l 1,4,-1
 341 399 l 1,5,-1
 588 399 l 1,6,-1
 588 333 l 1,7,-1
 0 333 l 1,0,-1
341 -277 m 1,8,-1
 247 -277 l 1,9,-1
 247 200 l 1,10,-1
 0 200 l 1,11,-1
 0 266 l 1,12,-1
 588 266 l 1,13,-1
 588 200 l 1,14,-1
 341 200 l 1,15,-1
 341 -277 l 1,8,-1
EndSplineSet
Validated: 3073
EndChar

StartChar: SF530000
Encoding: 9579 9579 218
Width: 588
VWidth: 1000
Flags: MW
LayerCount: 2
Fore
SplineSet
256 -277 m 1,0,-1
 162 -277 l 1,1,-1
 162 266 l 1,2,-1
 0 266 l 1,3,-1
 0 333 l 1,4,-1
 162 333 l 1,5,-1
 162 876 l 1,6,-1
 256 876 l 1,7,-1
 256 -277 l 1,0,-1
332 -277 m 1,8,-1
 332 876 l 1,9,-1
 426 876 l 1,10,-1
 426 333 l 1,11,-1
 588 333 l 1,12,-1
 588 266 l 1,13,-1
 426 266 l 1,14,-1
 426 -277 l 1,15,-1
 332 -277 l 1,8,-1
EndSplineSet
Validated: 3073
EndChar

StartChar: SF440000
Encoding: 9580 9580 219
Width: 588
VWidth: 1000
Flags: MW
LayerCount: 2
Fore
SplineSet
0 333 m 1,0,-1
 0 399 l 1,1,-1
 162 399 l 1,2,-1
 162 876 l 1,3,-1
 256 876 l 1,4,-1
 256 333 l 1,5,-1
 0 333 l 1,0,-1
332 333 m 1,6,-1
 332 876 l 1,7,-1
 426 876 l 1,8,-1
 426 399 l 1,9,-1
 588 399 l 1,10,-1
 588 333 l 1,11,-1
 332 333 l 1,6,-1
256 -277 m 1,12,-1
 162 -277 l 1,13,-1
 162 200 l 1,14,-1
 0 200 l 1,15,-1
 0 266 l 1,16,-1
 256 266 l 1,17,-1
 256 -277 l 1,12,-1
332 -277 m 1,18,-1
 332 266 l 1,19,-1
 588 266 l 1,20,-1
 588 200 l 1,21,-1
 426 200 l 1,22,-1
 426 -277 l 1,23,-1
 332 -277 l 1,18,-1
EndSplineSet
Validated: 3073
EndChar

StartChar: uni256D
Encoding: 9581 9581 221
Width: 588
VWidth: 1000
Flags: MW
LayerCount: 2
Fore
SplineSet
247 -277 m 1,0,-1
 247 84 l 2,1,2
 247 163 247 163 289 220 c 0,3,4
 325 270 325 270 390 300 c 0,5,6
 464 333 464 333 569 333 c 2,7,-1
 588 333 l 1,8,-1
 588 266 l 1,9,-1
 569 266 l 2,10,11
 497 266 497 266 445 243 c 1,12,13
 400 222 400 222 372 186 c 1,14,15
 341 143 341 143 341 84 c 2,16,-1
 341 -277 l 1,17,-1
 247 -277 l 1,0,-1
EndSplineSet
Validated: 3073
EndChar

StartChar: uni256E
Encoding: 9582 9582 222
Width: 588
VWidth: 1000
Flags: MW
LayerCount: 2
Fore
SplineSet
247 -277 m 1,0,-1
 247 84 l 2,1,2
 247 143 247 143 216 186 c 1,3,4
 188 222 188 222 143 243 c 1,5,6
 90 266 90 266 19 266 c 2,7,-1
 0 266 l 1,8,-1
 0 333 l 1,9,-1
 19 333 l 2,10,11
 124 333 124 333 198 300 c 0,12,13
 263 270 263 270 299 220 c 0,14,15
 341 163 341 163 341 84 c 2,16,-1
 341 -277 l 1,17,-1
 247 -277 l 1,0,-1
EndSplineSet
Validated: 3073
EndChar

StartChar: uni256F
Encoding: 9583 9583 223
Width: 588
VWidth: 1000
Flags: MW
LayerCount: 2
Fore
SplineSet
0 266 m 1,0,-1
 0 333 l 1,1,-1
 19 333 l 2,2,3
 91 333 91 333 143 357 c 0,4,5
 188 378 188 378 216 414 c 1,6,7
 247 456 247 456 247 516 c 2,8,-1
 247 876 l 1,9,-1
 341 876 l 1,10,-1
 341 516 l 2,11,12
 341 437 341 437 299 380 c 0,13,14
 263 330 263 330 198 301 c 0,15,16
 124 267 124 267 19 266 c 2,17,-1
 0 266 l 1,0,-1
EndSplineSet
Validated: 3073
EndChar

StartChar: uni2570
Encoding: 9584 9584 224
Width: 588
VWidth: 1000
Flags: MW
LayerCount: 2
Fore
SplineSet
569 266 m 2,0,1
 464 266 464 266 390 301 c 0,2,3
 325 331 325 331 289 380 c 0,4,5
 247 436 247 436 247 516 c 2,6,-1
 247 876 l 1,7,-1
 341 876 l 1,8,-1
 341 516 l 2,9,10
 341 457 341 457 372 414 c 1,11,12
 400 378 400 378 445 357 c 0,13,14
 498 333 498 333 569 333 c 2,15,-1
 588 333 l 1,16,-1
 588 266 l 1,17,-1
 569 266 l 2,0,1
EndSplineSet
Validated: 3073
EndChar

StartChar: upblock
Encoding: 9600 9600 225
Width: 588
VWidth: 1000
Flags: MW
LayerCount: 2
Fore
SplineSet
588 300 m 1,0,-1
 0 300 l 1,1,-1
 0 876 l 1,2,-1
 588 876 l 1,3,-1
 588 300 l 1,0,-1
EndSplineSet
Validated: 3073
EndChar

StartChar: uni2581
Encoding: 9601 9601 226
Width: 588
VWidth: 1000
Flags: MW
LayerCount: 2
Fore
SplineSet
588 -277 m 1,0,-1
 0 -277 l 1,1,-1
 0 -132 l 1,2,-1
 588 -132 l 1,3,-1
 588 -277 l 1,0,-1
EndSplineSet
Validated: 3073
EndChar

StartChar: uni2582
Encoding: 9602 9602 227
Width: 588
VWidth: 1000
Flags: MW
LayerCount: 2
Fore
SplineSet
588 -277 m 1,0,-1
 0 -277 l 1,1,-1
 0 12 l 1,2,-1
 588 12 l 1,3,-1
 588 -277 l 1,0,-1
EndSplineSet
Validated: 3073
EndChar

StartChar: uni2583
Encoding: 9603 9603 228
Width: 588
VWidth: 1000
Flags: MW
LayerCount: 2
Fore
SplineSet
588 -277 m 1,0,-1
 0 -277 l 1,1,-1
 0 156 l 1,2,-1
 588 156 l 1,3,-1
 588 -277 l 1,0,-1
EndSplineSet
Validated: 3073
EndChar

StartChar: dnblock
Encoding: 9604 9604 229
Width: 588
VWidth: 1000
Flags: MW
LayerCount: 2
Fore
SplineSet
588 -277 m 1,0,-1
 0 -277 l 1,1,-1
 0 300 l 1,2,-1
 588 300 l 1,3,-1
 588 -277 l 1,0,-1
EndSplineSet
Validated: 3073
EndChar

StartChar: uni2585
Encoding: 9605 9605 230
Width: 588
VWidth: 1000
Flags: MW
LayerCount: 2
Fore
SplineSet
588 -277 m 1,0,-1
 0 -277 l 1,1,-1
 0 445 l 1,2,-1
 588 445 l 1,3,-1
 588 -277 l 1,0,-1
EndSplineSet
Validated: 3073
EndChar

StartChar: uni2586
Encoding: 9606 9606 231
Width: 588
VWidth: 1000
Flags: MW
LayerCount: 2
Fore
SplineSet
588 -277 m 1,0,-1
 0 -277 l 1,1,-1
 0 588 l 1,2,-1
 588 588 l 1,3,-1
 588 -277 l 1,0,-1
EndSplineSet
Validated: 3073
EndChar

StartChar: uni2587
Encoding: 9607 9607 232
Width: 588
VWidth: 1000
Flags: MW
LayerCount: 2
Fore
SplineSet
588 -277 m 1,0,-1
 0 -277 l 1,1,-1
 0 732 l 1,2,-1
 588 732 l 1,3,-1
 588 -277 l 1,0,-1
EndSplineSet
Validated: 3073
EndChar

StartChar: block
Encoding: 9608 9608 233
Width: 588
VWidth: 1000
Flags: MW
LayerCount: 2
Fore
SplineSet
588 -277 m 1,0,-1
 0 -277 l 1,1,-1
 0 876 l 1,2,-1
 588 876 l 1,3,-1
 588 -277 l 1,0,-1
EndSplineSet
Validated: 3073
EndChar

StartChar: uni2589
Encoding: 9609 9609 234
Width: 588
VWidth: 1000
Flags: MW
LayerCount: 2
Fore
SplineSet
515 -277 m 1,0,-1
 0 -277 l 1,1,-1
 0 876 l 1,2,-1
 515 876 l 1,3,-1
 515 -277 l 1,0,-1
EndSplineSet
Validated: 3073
EndChar

StartChar: uni258A
Encoding: 9610 9610 235
Width: 588
VWidth: 1000
Flags: MW
LayerCount: 2
Fore
SplineSet
441 -277 m 1,0,-1
 0 -277 l 1,1,-1
 0 876 l 1,2,-1
 441 876 l 1,3,-1
 441 -277 l 1,0,-1
EndSplineSet
Validated: 3073
EndChar

StartChar: uni258B
Encoding: 9611 9611 236
Width: 588
VWidth: 1000
Flags: MW
LayerCount: 2
Fore
SplineSet
368 -277 m 1,0,-1
 0 -277 l 1,1,-1
 0 876 l 1,2,-1
 368 876 l 1,3,-1
 368 -277 l 1,0,-1
EndSplineSet
Validated: 3073
EndChar

StartChar: lfblock
Encoding: 9612 9612 237
Width: 588
VWidth: 1000
Flags: MW
LayerCount: 2
Fore
SplineSet
294 -277 m 1,0,-1
 0 -277 l 1,1,-1
 0 876 l 1,2,-1
 294 876 l 1,3,-1
 294 -277 l 1,0,-1
EndSplineSet
Validated: 3073
EndChar

StartChar: uni258D
Encoding: 9613 9613 238
Width: 588
VWidth: 1000
Flags: MW
LayerCount: 2
Fore
SplineSet
221 -277 m 1,0,-1
 0 -277 l 1,1,-1
 0 876 l 1,2,-1
 221 876 l 1,3,-1
 221 -277 l 1,0,-1
EndSplineSet
Validated: 3073
EndChar

StartChar: uni258E
Encoding: 9614 9614 239
Width: 588
VWidth: 1000
Flags: MW
LayerCount: 2
Fore
SplineSet
147 -277 m 1,0,-1
 0 -277 l 1,1,-1
 0 876 l 1,2,-1
 147 876 l 1,3,-1
 147 -277 l 1,0,-1
EndSplineSet
Validated: 3073
EndChar

StartChar: uni258F
Encoding: 9615 9615 240
Width: 588
VWidth: 1000
Flags: MW
LayerCount: 2
Fore
SplineSet
74 -277 m 1,0,-1
 0 -277 l 1,1,-1
 0 876 l 1,2,-1
 74 876 l 1,3,-1
 74 -277 l 1,0,-1
EndSplineSet
Validated: 3073
EndChar

StartChar: rtblock
Encoding: 9616 9616 241
Width: 588
VWidth: 1000
Flags: MW
LayerCount: 2
Fore
SplineSet
588 -277 m 1,0,-1
 294 -277 l 1,1,-1
 294 876 l 1,2,-1
 588 876 l 1,3,-1
 588 -277 l 1,0,-1
EndSplineSet
Validated: 3073
EndChar

StartChar: ltshade
Encoding: 9617 9617 242
Width: 588
VWidth: 1000
Flags: MW
LayerCount: 2
Fore
SplineSet
0 -277 m 1,0,-1
 0 -241 l 1,1,-1
 569 876 l 1,2,-1
 588 876 l 5,3,-1
 588 840 l 5,4,-1
 19 -277 l 1,5,-1
 0 -277 l 1,0,-1
0 264 m 1,6,-1
 0 336 l 1,7,-1
 275 876 l 1,8,-1
 313 876 l 1,9,-1
 0 264 l 1,6,-1
0 840 m 1,10,-1
 0 876 l 1,11,-1
 19 876 l 1,12,-1
 0 840 l 1,10,-1
275 -277 m 1,13,-1
 588 336 l 5,14,-1
 588 264 l 5,15,-1
 313 -277 l 1,16,-1
 275 -277 l 1,13,-1
569 -277 m 1,17,-1
 588 -241 l 5,18,-1
 588 -277 l 5,19,-1
 569 -277 l 1,17,-1
EndSplineSet
Validated: 3073
EndChar

StartChar: shade
Encoding: 9618 9618 243
Width: 588
VWidth: 1000
Flags: MW
LayerCount: 2
Fore
SplineSet
0 -277 m 1,0,-1
 0 -241 l 1,1,-1
 569 876 l 1,2,-1
 588 876 l 5,3,-1
 588 840 l 5,4,-1
 19 -277 l 1,5,-1
 0 -277 l 1,0,-1
0 -24 m 1,6,-1
 0 48 l 1,7,-1
 422 876 l 1,8,-1
 460 876 l 1,9,-1
 0 -24 l 1,6,-1
0 264 m 1,10,-1
 0 336 l 1,11,-1
 275 876 l 1,12,-1
 313 876 l 1,13,-1
 0 264 l 1,10,-1
0 552 m 1,14,-1
 0 624 l 1,15,-1
 128 876 l 1,16,-1
 166 876 l 1,17,-1
 0 552 l 1,14,-1
0 840 m 1,18,-1
 0 876 l 1,19,-1
 19 876 l 1,20,-1
 0 840 l 1,18,-1
128 -277 m 1,21,-1
 588 624 l 5,22,-1
 588 552 l 5,23,-1
 166 -277 l 1,24,-1
 128 -277 l 1,21,-1
275 -277 m 1,25,-1
 588 336 l 5,26,-1
 588 264 l 5,27,-1
 313 -277 l 1,28,-1
 275 -277 l 1,25,-1
422 -277 m 1,29,-1
 588 48 l 5,30,-1
 588 -24 l 5,31,-1
 460 -277 l 1,32,-1
 422 -277 l 1,29,-1
569 -277 m 1,33,-1
 588 -241 l 5,34,-1
 588 -277 l 5,35,-1
 569 -277 l 1,33,-1
EndSplineSet
Validated: 3073
EndChar

StartChar: dkshade
Encoding: 9619 9619 244
Width: 588
VWidth: 1000
Flags: MW
LayerCount: 2
Fore
SplineSet
0 -277 m 1,0,-1
 0 -241 l 1,1,-1
 569 876 l 1,2,-1
 588 876 l 5,3,-1
 588 840 l 5,4,-1
 19 -277 l 1,5,-1
 0 -277 l 1,0,-1
0 -168 m 1,6,-1
 0 -96 l 1,7,-1
 496 876 l 1,8,-1
 533 876 l 1,9,-1
 0 -168 l 1,6,-1
0 -24 m 1,10,-1
 0 48 l 1,11,-1
 422 876 l 1,12,-1
 460 876 l 1,13,-1
 0 -24 l 1,10,-1
0 120 m 1,14,-1
 0 192 l 1,15,-1
 349 876 l 1,16,-1
 386 876 l 1,17,-1
 0 120 l 1,14,-1
0 264 m 1,18,-1
 0 336 l 1,19,-1
 275 876 l 1,20,-1
 313 876 l 1,21,-1
 0 264 l 1,18,-1
0 409 m 1,22,-1
 0 480 l 1,23,-1
 202 876 l 1,24,-1
 239 876 l 1,25,-1
 0 409 l 1,22,-1
0 552 m 1,26,-1
 0 624 l 1,27,-1
 128 876 l 1,28,-1
 166 876 l 1,29,-1
 0 552 l 1,26,-1
0 696 m 1,30,-1
 0 768 l 1,31,-1
 55 876 l 1,32,-1
 92 876 l 1,33,-1
 0 696 l 1,30,-1
0 840 m 1,34,-1
 0 876 l 1,35,-1
 19 876 l 1,36,-1
 0 840 l 1,34,-1
55 -277 m 1,37,-1
 588 768 l 5,38,-1
 588 696 l 5,39,-1
 92 -277 l 1,40,-1
 55 -277 l 1,37,-1
128 -277 m 1,41,-1
 588 624 l 5,42,-1
 588 552 l 5,43,-1
 166 -277 l 1,44,-1
 128 -277 l 1,41,-1
202 -277 m 1,45,-1
 588 480 l 5,46,-1
 588 409 l 5,47,-1
 239 -277 l 1,48,-1
 202 -277 l 1,45,-1
275 -277 m 1,49,-1
 588 336 l 5,50,-1
 588 264 l 5,51,-1
 313 -277 l 1,52,-1
 275 -277 l 1,49,-1
349 -277 m 1,53,-1
 588 192 l 5,54,-1
 588 120 l 5,55,-1
 386 -277 l 1,56,-1
 349 -277 l 1,53,-1
422 -277 m 1,57,-1
 588 48 l 5,58,-1
 588 -24 l 5,59,-1
 460 -277 l 1,60,-1
 422 -277 l 1,57,-1
496 -277 m 1,61,-1
 588 -96 l 5,62,-1
 588 -168 l 5,63,-1
 533 -277 l 1,64,-1
 496 -277 l 1,61,-1
569 -277 m 1,65,-1
 588 -241 l 5,66,-1
 588 -277 l 5,67,-1
 569 -277 l 1,65,-1
EndSplineSet
Validated: 3073
EndChar

StartChar: uni2594
Encoding: 9620 9620 245
Width: 588
VWidth: 1000
Flags: MW
LayerCount: 2
Fore
SplineSet
588 732 m 1,0,-1
 0 732 l 1,1,-1
 0 876 l 1,2,-1
 588 876 l 1,3,-1
 588 732 l 1,0,-1
EndSplineSet
Validated: 3073
EndChar

StartChar: uni2595
Encoding: 9621 9621 246
Width: 588
VWidth: 1000
Flags: MW
LayerCount: 2
Fore
SplineSet
588 -277 m 1,0,-1
 515 -277 l 1,1,-1
 515 876 l 1,2,-1
 588 876 l 1,3,-1
 588 -277 l 1,0,-1
EndSplineSet
Validated: 3073
EndChar

StartChar: uni2596
Encoding: 9622 9622 247
Width: 588
VWidth: 1000
Flags: MW
LayerCount: 2
Fore
SplineSet
0 -277 m 1,0,-1
 0 300 l 1,1,-1
 294 300 l 1,2,-1
 294 -277 l 1,3,-1
 0 -277 l 1,0,-1
EndSplineSet
Validated: 3073
EndChar

StartChar: uni2597
Encoding: 9623 9623 248
Width: 588
VWidth: 1000
Flags: MW
LayerCount: 2
Fore
SplineSet
294 -277 m 1,0,-1
 294 300 l 1,1,-1
 588 300 l 1,2,-1
 588 -277 l 1,3,-1
 294 -277 l 1,0,-1
EndSplineSet
Validated: 3073
EndChar

StartChar: uni2598
Encoding: 9624 9624 249
Width: 588
VWidth: 1000
Flags: MW
LayerCount: 2
Fore
SplineSet
0 300 m 1,0,-1
 0 876 l 1,1,-1
 294 876 l 1,2,-1
 294 300 l 1,3,-1
 0 300 l 1,0,-1
EndSplineSet
Validated: 3073
EndChar

StartChar: uni2599
Encoding: 9625 9625 250
Width: 588
VWidth: 1000
Flags: MW
LayerCount: 2
Fore
SplineSet
588 -277 m 1,0,-1
 0 -277 l 1,1,-1
 0 876 l 1,2,-1
 294 876 l 1,3,-1
 294 300 l 1,4,-1
 588 300 l 1,5,-1
 588 -277 l 1,0,-1
EndSplineSet
Validated: 3073
EndChar

StartChar: uni259A
Encoding: 9626 9626 251
Width: 588
VWidth: 1000
Flags: MW
LayerCount: 2
Fore
SplineSet
0 301 m 5,0,-1
 0 876 l 5,1,-1
 294 876 l 5,2,-1
 294 301 l 5,3,-1
 0 301 l 5,0,-1
294 -277 m 5,4,-1
 294 300 l 5,5,-1
 588 300 l 5,6,-1
 588 -277 l 5,7,-1
 294 -277 l 5,4,-1
EndSplineSet
Validated: 3073
EndChar

StartChar: uni259B
Encoding: 9627 9627 252
Width: 588
VWidth: 1000
Flags: MW
LayerCount: 2
Fore
SplineSet
0 -277 m 1,0,-1
 0 876 l 1,1,-1
 588 876 l 1,2,-1
 588 300 l 1,3,-1
 294 300 l 1,4,-1
 294 -277 l 1,5,-1
 0 -277 l 1,0,-1
EndSplineSet
Validated: 3073
EndChar

StartChar: uni259C
Encoding: 9628 9628 253
Width: 588
VWidth: 1000
Flags: MW
LayerCount: 2
Fore
SplineSet
294 -277 m 1,0,-1
 294 300 l 1,1,-1
 0 300 l 1,2,-1
 0 876 l 1,3,-1
 588 876 l 1,4,-1
 588 -277 l 1,5,-1
 294 -277 l 1,0,-1
EndSplineSet
Validated: 3073
EndChar

StartChar: uni259D
Encoding: 9629 9629 254
Width: 588
VWidth: 1000
Flags: MW
LayerCount: 2
Fore
SplineSet
294 300 m 1,0,-1
 294 876 l 1,1,-1
 588 876 l 1,2,-1
 588 300 l 1,3,-1
 294 300 l 1,0,-1
EndSplineSet
Validated: 3073
EndChar

StartChar: uni259E
Encoding: 9630 9630 255
Width: 588
VWidth: 1000
Flags: MW
LayerCount: 2
Fore
SplineSet
294 301 m 5,0,-1
 294 877 l 5,1,-1
 588 876 l 5,2,-1
 588 301 l 5,3,-1
 294 301 l 5,0,-1
0 -277 m 5,4,-1
 0 300 l 5,5,-1
 294 300 l 5,6,-1
 294 -277 l 5,7,-1
 0 -277 l 5,4,-1
EndSplineSet
Validated: 3073
EndChar

StartChar: uni259F
Encoding: 9631 9631 256
Width: 588
VWidth: 1000
Flags: MW
LayerCount: 2
Fore
SplineSet
0 -277 m 1,0,-1
 0 300 l 1,1,-1
 294 300 l 1,2,-1
 294 876 l 1,3,-1
 588 876 l 1,4,-1
 588 -277 l 1,5,-1
 0 -277 l 1,0,-1
EndSplineSet
Validated: 3073
EndChar

StartChar: filledbox
Encoding: 9632 9632 257
Width: 588
VWidth: 1000
Flags: MW
LayerCount: 2
Fore
SplineSet
48 119 m 1,0,-1
 48 504 l 1,1,-1
 540 504 l 1,2,-1
 540 119 l 1,3,-1
 48 119 l 1,0,-1
EndSplineSet
Validated: 3073
EndChar

StartChar: H22073
Encoding: 9633 9633 258
Width: 588
VWidth: 1000
Flags: MW
LayerCount: 2
Fore
SplineSet
48 119 m 1,0,-1
 48 504 l 1,1,-1
 540 504 l 1,2,-1
 540 119 l 1,3,-1
 48 119 l 1,0,-1
475 170 m 1,4,-1
 475 454 l 1,5,-1
 113 454 l 1,6,-1
 113 170 l 1,7,-1
 475 170 l 1,4,-1
EndSplineSet
Validated: 3073
EndChar

StartChar: uni25A2
Encoding: 9634 9634 259
Width: 588
VWidth: 1000
Flags: MW
LayerCount: 2
Fore
SplineSet
178 119 m 2,0,1
 137 119 137 119 106 133 c 0,2,3
 80 145 80 145 66 164 c 0,4,5
 48 187 48 187 48 220 c 2,6,-1
 48 403 l 2,7,8
 48 436 48 436 66 459 c 0,9,10
 82 481 82 481 106 491 c 0,11,12
 137 504 137 504 178 504 c 2,13,-1
 410 504 l 2,14,15
 451 504 451 504 482 491 c 0,16,17
 508 479 508 479 522 459 c 0,18,19
 540 436 540 436 540 403 c 2,20,-1
 540 220 l 2,21,22
 540 187 540 187 522 164 c 0,23,24
 508 145 508 145 482 133 c 0,25,26
 451 119 451 119 410 119 c 2,27,-1
 178 119 l 2,0,1
178 170 m 2,28,-1
 410 170 l 2,29,30
 435 170 435 170 450 182 c 0,31,32
 468 196 468 196 468 220 c 2,33,-1
 468 403 l 2,34,35
 468 428 468 428 450 442 c 0,36,37
 435 454 435 454 410 454 c 2,38,-1
 178 454 l 2,39,40
 153 454 153 454 138 442 c 0,41,42
 120 428 120 428 120 403 c 2,43,-1
 120 220 l 2,44,45
 120 195 120 195 138 182 c 0,46,47
 153 170 153 170 178 170 c 2,28,-1
EndSplineSet
Validated: 3073
EndChar

StartChar: uni25A3
Encoding: 9635 9635 260
Width: 588
VWidth: 1000
Flags: MW
LayerCount: 2
Fore
SplineSet
48 119 m 1,0,-1
 48 504 l 1,1,-1
 540 504 l 1,2,-1
 540 119 l 1,3,-1
 48 119 l 1,0,-1
96 157 m 1,4,-1
 492 157 l 1,5,-1
 492 467 l 1,6,-1
 96 467 l 1,7,-1
 96 157 l 1,4,-1
195 234 m 1,8,-1
 195 389 l 1,9,-1
 393 389 l 1,10,-1
 393 234 l 1,11,-1
 195 234 l 1,8,-1
EndSplineSet
Validated: 3073
EndChar

StartChar: H18543
Encoding: 9642 9642 261
Width: 588
VWidth: 1000
Flags: MW
LayerCount: 2
Fore
SplineSet
441 196 m 1,0,-1
 147 196 l 1,1,-1
 147 427 l 1,2,-1
 441 427 l 1,3,-1
 441 196 l 1,0,-1
EndSplineSet
Validated: 3073
EndChar

StartChar: H18551
Encoding: 9643 9643 262
Width: 588
VWidth: 1000
Flags: MW
LayerCount: 2
Fore
SplineSet
147 196 m 1,0,-1
 147 427 l 1,1,-1
 441 427 l 1,2,-1
 441 196 l 1,3,-1
 147 196 l 1,0,-1
211 246 m 1,4,-1
 377 246 l 1,5,-1
 377 377 l 1,6,-1
 211 377 l 1,7,-1
 211 246 l 1,4,-1
EndSplineSet
Validated: 3073
EndChar

StartChar: filledrect
Encoding: 9644 9644 263
Width: 588
VWidth: 1000
Flags: MW
LayerCount: 2
Fore
SplineSet
540 183 m 1,0,-1
 48 183 l 1,1,-1
 48 440 l 1,2,-1
 540 440 l 1,3,-1
 540 183 l 1,0,-1
EndSplineSet
Validated: 3073
EndChar

StartChar: uni25AD
Encoding: 9645 9645 264
Width: 588
VWidth: 1000
Flags: MW
LayerCount: 2
Fore
SplineSet
540 183 m 1,0,-1
 48 183 l 1,1,-1
 48 440 l 1,2,-1
 540 440 l 1,3,-1
 540 183 l 1,0,-1
113 234 m 1,4,-1
 475 234 l 1,5,-1
 475 389 l 1,6,-1
 113 389 l 1,7,-1
 113 234 l 1,4,-1
EndSplineSet
Validated: 3073
EndChar

StartChar: uni25AE
Encoding: 9646 9646 265
Width: 588
VWidth: 1000
Flags: MW
LayerCount: 2
Fore
SplineSet
48 23 m 1,0,-1
 48 601 l 1,1,-1
 540 601 l 1,2,-1
 540 23 l 1,3,-1
 48 23 l 1,0,-1
EndSplineSet
Validated: 3073
EndChar

StartChar: triagup
Encoding: 9650 9650 266
Width: 588
VWidth: 1000
Flags: MW
LayerCount: 2
Fore
SplineSet
11 119 m 1,0,-1
 294 504 l 1,1,-1
 577 119 l 1,2,-1
 11 119 l 1,0,-1
EndSplineSet
Validated: 3073
EndChar

StartChar: triagdn
Encoding: 9660 9660 267
Width: 588
VWidth: 1000
Flags: MW
LayerCount: 2
Fore
SplineSet
294 119 m 1,0,-1
 11 504 l 1,1,-1
 577 504 l 1,2,-1
 294 119 l 1,0,-1
EndSplineSet
Validated: 3073
EndChar

StartChar: uni25C6
Encoding: 9670 9670 268
Width: 588
VWidth: 1000
Flags: MW
LayerCount: 2
Fore
SplineSet
294 119 m 1,0,-1
 48 312 l 1,1,-1
 294 504 l 1,2,-1
 540 312 l 1,3,-1
 294 119 l 1,0,-1
EndSplineSet
Validated: 3073
EndChar

StartChar: uni25C7
Encoding: 9671 9671 269
Width: 588
VWidth: 1000
Flags: MW
LayerCount: 2
Fore
SplineSet
294 119 m 1,0,-1
 48 312 l 1,1,-1
 294 504 l 1,2,-1
 540 312 l 1,3,-1
 294 119 l 1,0,-1
294 191 m 1,4,-1
 448 312 l 1,5,-1
 294 433 l 1,6,-1
 140 312 l 1,7,-1
 294 191 l 1,4,-1
EndSplineSet
Validated: 3073
EndChar

StartChar: uni25C8
Encoding: 9672 9672 270
Width: 588
VWidth: 1000
Flags: MW
LayerCount: 2
Fore
SplineSet
294 119 m 1,0,-1
 48 312 l 1,1,-1
 294 504 l 1,2,-1
 540 312 l 1,3,-1
 294 119 l 1,0,-1
294 172 m 1,4,-1
 472 312 l 1,5,-1
 294 451 l 1,6,-1
 116 312 l 1,7,-1
 294 172 l 1,4,-1
294 242 m 1,8,-1
 206 312 l 1,9,-1
 294 381 l 1,10,-1
 382 312 l 1,11,-1
 294 242 l 1,8,-1
EndSplineSet
Validated: 3073
EndChar

StartChar: uni25C9
Encoding: 9673 9673 271
Width: 588
VWidth: 1000
Flags: MW
LayerCount: 2
Fore
SplineSet
294 119 m 256,0,1
 228 119 228 119 171 145 c 0,2,3
 115 171 115 171 81 215 c 0,4,5
 48 261 48 261 48 311.5 c 128,-1,6
 48 362 48 362 81 409 c 0,7,8
 116 455 116 455 171 479 c 0,9,10
 228 504 228 504 294 504 c 256,11,12
 360 504 360 504 417 479 c 0,13,14
 473 453 473 453 507 409 c 0,15,16
 540 363 540 363 540 312 c 128,-1,17
 540 261 540 261 507 215 c 0,18,19
 474 171 474 171 417 145 c 128,-1,20
 360 119 360 119 294 119 c 256,0,1
294 157 m 256,21,22
 347 157 347 157 393 177.5 c 128,-1,23
 439 198 439 198 465.5 234 c 128,-1,24
 492 270 492 270 492 311.5 c 128,-1,25
 492 353 492 353 465.5 389 c 128,-1,26
 439 425 439 425 393 446 c 128,-1,27
 347 467 347 467 294 467 c 256,28,29
 241 467 241 467 195 446 c 128,-1,30
 149 425 149 425 122.5 389 c 128,-1,31
 96 353 96 353 96 311.5 c 128,-1,32
 96 270 96 270 122.5 234 c 128,-1,33
 149 198 149 198 195 177.5 c 128,-1,34
 241 157 241 157 294 157 c 256,21,22
294 234 m 256,35,36
 268 234 268 234 244.5 244.5 c 128,-1,37
 221 255 221 255 209 273 c 1,38,39
 195 291 195 291 195 312 c 128,-1,40
 195 333 195 333 209 350 c 1,41,42
 221 368 221 368 244.5 378.5 c 128,-1,43
 268 389 268 389 294 389 c 256,44,45
 320 389 320 389 343.5 378.5 c 128,-1,46
 367 368 367 368 379 350 c 1,47,48
 393 332 393 332 393 311 c 128,-1,49
 393 290 393 290 379 273 c 1,50,51
 367 255 367 255 343.5 244.5 c 128,-1,52
 320 234 320 234 294 234 c 256,35,36
EndSplineSet
Validated: 3073
EndChar

StartChar: lozenge
Encoding: 9674 9674 272
Width: 588
VWidth: 1000
Flags: MW
LayerCount: 2
Fore
SplineSet
294 119 m 1,0,-1
 252 168 l 1,1,-1
 131 312 l 1,2,-1
 294 504 l 1,3,-1
 336 456 l 1,4,-1
 457 312 l 1,5,-1
 336 168 l 1,6,-1
 294 119 l 1,0,-1
294 218 m 1,7,-1
 374 312 l 1,8,-1
 294 406 l 1,9,-1
 214 312 l 1,10,-1
 294 218 l 1,7,-1
EndSplineSet
Validated: 3073
EndChar

StartChar: circle
Encoding: 9675 9675 273
Width: 588
VWidth: 1000
Flags: MW
LayerCount: 2
Fore
SplineSet
294 119 m 260,0,1
 228 119 228 119 171 145 c 4,2,3
 115 171 115 171 81 215 c 4,4,5
 48 261 48 261 48 311.5 c 132,-1,6
 48 362 48 362 81 409 c 4,7,8
 116 455 116 455 171 479 c 4,9,10
 229 504 229 504 294 504 c 260,11,12
 360 504 360 504 417 479 c 4,13,14
 473 453 473 453 507 409 c 4,15,16
 540 363 540 363 540 312 c 132,-1,17
 540 261 540 261 507 215 c 4,18,19
 474 171 474 171 417 145 c 132,-1,20
 360 119 360 119 294 119 c 260,0,1
294 170 m 260,21,22
 342 170 342 170 384.5 188.5 c 132,-1,23
 427 207 427 207 451 240.5 c 132,-1,24
 475 274 475 274 475 311.5 c 132,-1,25
 475 349 475 349 451 382.5 c 132,-1,26
 427 416 427 416 384.5 435 c 132,-1,27
 342 454 342 454 294 454 c 260,28,29
 246 454 246 454 203.5 435 c 132,-1,30
 161 416 161 416 137 382.5 c 132,-1,31
 113 349 113 349 113 311.5 c 132,-1,32
 113 274 113 274 137 240.5 c 132,-1,33
 161 207 161 207 203.5 188.5 c 132,-1,34
 246 170 246 170 294 170 c 260,21,22
EndSplineSet
Validated: 3073
EndChar

StartChar: SF100000
Encoding: 9472 9472 274
Width: 588
VWidth: 1000
Flags: MW
LayerCount: 2
Fore
SplineSet
0 266 m 1,0,-1
 0 333 l 1,1,-1
 588 333 l 1,2,-1
 588 266 l 1,3,-1
 0 266 l 1,0,-1
EndSplineSet
Validated: 3073
EndChar

StartChar: uni2501
Encoding: 9473 9473 275
Width: 588
VWidth: 1000
Flags: MW
LayerCount: 2
Fore
SplineSet
0 233 m 1,0,-1
 0 366 l 1,1,-1
 588 366 l 1,2,-1
 588 233 l 1,3,-1
 0 233 l 1,0,-1
EndSplineSet
Validated: 3073
EndChar

StartChar: SF110000
Encoding: 9474 9474 276
Width: 588
VWidth: 1000
Flags: MW
LayerCount: 2
Fore
SplineSet
247 -277 m 1,0,-1
 247 876 l 5,1,-1
 341 876 l 5,2,-1
 341 -277 l 1,3,-1
 247 -277 l 1,0,-1
EndSplineSet
Validated: 3073
EndChar

StartChar: uni2503
Encoding: 9475 9475 277
Width: 588
VWidth: 1000
Flags: MW
LayerCount: 2
Fore
SplineSet
200 -277 m 1,0,-1
 200 876 l 5,1,-1
 388 876 l 1,2,-1
 388 -277 l 1,3,-1
 200 -277 l 1,0,-1
EndSplineSet
Validated: 3073
EndChar

StartChar: uni2504
Encoding: 9476 9476 278
Width: 588
VWidth: 1000
Flags: MW
LayerCount: 2
Fore
SplineSet
432 266 m 1,0,-1
 432 333 l 1,1,-1
 549 333 l 1,2,-1
 549 266 l 1,3,-1
 432 266 l 1,0,-1
235 266 m 1,4,-1
 235 333 l 1,5,-1
 353 333 l 1,6,-1
 353 266 l 1,7,-1
 235 266 l 1,4,-1
39 266 m 1,8,-1
 39 333 l 1,9,-1
 156 333 l 1,10,-1
 156 266 l 1,11,-1
 39 266 l 1,8,-1
EndSplineSet
Validated: 3073
EndChar

StartChar: uni2505
Encoding: 9477 9477 279
Width: 588
VWidth: 1000
Flags: MW
LayerCount: 2
Fore
SplineSet
432 233 m 1,0,-1
 432 366 l 1,1,-1
 549 366 l 1,2,-1
 549 233 l 1,3,-1
 432 233 l 1,0,-1
235 233 m 1,4,-1
 235 366 l 1,5,-1
 353 366 l 1,6,-1
 353 233 l 1,7,-1
 235 233 l 1,4,-1
39 233 m 1,8,-1
 39 366 l 1,9,-1
 156 366 l 1,10,-1
 156 233 l 1,11,-1
 39 233 l 1,8,-1
EndSplineSet
Validated: 3073
EndChar

StartChar: uni2506
Encoding: 9478 9478 280
Width: 588
VWidth: 1000
Flags: MW
LayerCount: 2
Fore
SplineSet
247 569 m 1,0,-1
 247 800 l 1,1,-1
 341 800 l 1,2,-1
 341 569 l 1,3,-1
 247 569 l 1,0,-1
247 184 m 1,4,-1
 247 415 l 1,5,-1
 341 415 l 1,6,-1
 341 184 l 1,7,-1
 247 184 l 1,4,-1
247 -199 m 1,8,-1
 247 31 l 1,9,-1
 341 31 l 1,10,-1
 341 -199 l 1,11,-1
 247 -199 l 1,8,-1
EndSplineSet
Validated: 3073
EndChar

StartChar: uni2507
Encoding: 9479 9479 281
Width: 588
VWidth: 1000
Flags: MW
LayerCount: 2
Fore
SplineSet
200 569 m 1,0,-1
 200 800 l 1,1,-1
 388 800 l 1,2,-1
 388 569 l 1,3,-1
 200 569 l 1,0,-1
200 184 m 1,4,-1
 200 415 l 1,5,-1
 388 415 l 1,6,-1
 388 184 l 1,7,-1
 200 184 l 1,4,-1
200 -199 m 1,8,-1
 200 31 l 1,9,-1
 388 31 l 1,10,-1
 388 -199 l 1,11,-1
 200 -199 l 1,8,-1
EndSplineSet
Validated: 3073
EndChar

StartChar: uni2508
Encoding: 9480 9480 282
Width: 588
VWidth: 1000
Flags: MW
LayerCount: 2
Fore
SplineSet
470 266 m 1,0,-1
 470 333 l 1,1,-1
 559 333 l 1,2,-1
 559 266 l 1,3,-1
 470 266 l 1,0,-1
323 266 m 1,4,-1
 323 333 l 1,5,-1
 412 333 l 1,6,-1
 412 266 l 1,7,-1
 323 266 l 1,4,-1
176 266 m 1,8,-1
 176 333 l 1,9,-1
 265 333 l 1,10,-1
 265 266 l 1,11,-1
 176 266 l 1,8,-1
29 266 m 1,12,-1
 29 333 l 1,13,-1
 118 333 l 1,14,-1
 118 266 l 1,15,-1
 29 266 l 1,12,-1
EndSplineSet
Validated: 3073
EndChar

StartChar: uni2509
Encoding: 9481 9481 283
Width: 588
VWidth: 1000
Flags: MW
LayerCount: 2
Fore
SplineSet
470 233 m 1,0,-1
 470 366 l 1,1,-1
 559 366 l 1,2,-1
 559 233 l 1,3,-1
 470 233 l 1,0,-1
323 233 m 1,4,-1
 323 366 l 1,5,-1
 412 366 l 1,6,-1
 412 233 l 1,7,-1
 323 233 l 1,4,-1
176 233 m 1,8,-1
 176 366 l 1,9,-1
 265 366 l 1,10,-1
 265 233 l 1,11,-1
 176 233 l 1,8,-1
29 233 m 1,12,-1
 29 366 l 1,13,-1
 118 366 l 1,14,-1
 118 233 l 1,15,-1
 29 233 l 1,12,-1
EndSplineSet
Validated: 3073
EndChar

StartChar: uni250A
Encoding: 9482 9482 284
Width: 588
VWidth: 1000
Flags: MW
LayerCount: 2
Fore
SplineSet
247 646 m 1,0,-1
 247 819 l 1,1,-1
 341 819 l 1,2,-1
 341 646 l 1,3,-1
 247 646 l 1,0,-1
247 358 m 1,4,-1
 247 530 l 1,5,-1
 341 530 l 1,6,-1
 341 358 l 1,7,-1
 247 358 l 1,4,-1
247 69 m 1,8,-1
 247 242 l 1,9,-1
 341 242 l 1,10,-1
 341 69 l 1,11,-1
 247 69 l 1,8,-1
247 -219 m 1,12,-1
 247 -46 l 1,13,-1
 341 -46 l 1,14,-1
 341 -219 l 1,15,-1
 247 -219 l 1,12,-1
EndSplineSet
Validated: 3073
EndChar

StartChar: uni250B
Encoding: 9483 9483 285
Width: 588
VWidth: 1000
Flags: MW
LayerCount: 2
Fore
SplineSet
200 646 m 1,0,-1
 200 819 l 1,1,-1
 388 819 l 1,2,-1
 388 646 l 1,3,-1
 200 646 l 1,0,-1
200 358 m 1,4,-1
 200 530 l 1,5,-1
 388 530 l 1,6,-1
 388 358 l 1,7,-1
 200 358 l 1,4,-1
200 69 m 1,8,-1
 200 242 l 1,9,-1
 388 242 l 1,10,-1
 388 69 l 1,11,-1
 200 69 l 1,8,-1
200 -219 m 1,12,-1
 200 -46 l 1,13,-1
 388 -46 l 1,14,-1
 388 -219 l 1,15,-1
 200 -219 l 1,12,-1
EndSplineSet
Validated: 3073
EndChar

StartChar: SF010000
Encoding: 9484 9484 286
Width: 588
VWidth: 1000
Flags: MW
LayerCount: 2
Fore
SplineSet
247 -277 m 1,0,-1
 247 333 l 1,1,-1
 588 333 l 1,2,-1
 588 266 l 1,3,-1
 341 266 l 1,4,-1
 341 -277 l 1,5,-1
 247 -277 l 1,0,-1
EndSplineSet
Validated: 3073
EndChar

StartChar: uni250D
Encoding: 9485 9485 287
Width: 588
VWidth: 1000
Flags: MW
LayerCount: 2
Fore
SplineSet
247 -277 m 1,0,-1
 247 366 l 1,1,-1
 588 366 l 1,2,-1
 588 233 l 1,3,-1
 341 233 l 1,4,-1
 341 -277 l 1,5,-1
 247 -277 l 1,0,-1
EndSplineSet
Validated: 3073
EndChar

StartChar: uni250E
Encoding: 9486 9486 288
Width: 588
VWidth: 1000
Flags: MW
LayerCount: 2
Fore
SplineSet
200 -277 m 1,0,-1
 200 333 l 1,1,-1
 588 333 l 1,2,-1
 588 266 l 1,3,-1
 388 266 l 1,4,-1
 388 -277 l 1,5,-1
 200 -277 l 1,0,-1
EndSplineSet
Validated: 3073
EndChar

StartChar: uni250F
Encoding: 9487 9487 289
Width: 588
VWidth: 1000
Flags: MW
LayerCount: 2
Fore
SplineSet
200 -277 m 1,0,-1
 200 366 l 1,1,-1
 588 366 l 1,2,-1
 588 233 l 1,3,-1
 388 233 l 1,4,-1
 388 -277 l 1,5,-1
 200 -277 l 1,0,-1
EndSplineSet
Validated: 3073
EndChar

StartChar: SF030000
Encoding: 9488 9488 290
Width: 588
VWidth: 1000
Flags: MW
LayerCount: 2
Fore
SplineSet
341 -277 m 1,0,-1
 247 -277 l 1,1,-1
 247 266 l 1,2,-1
 0 266 l 1,3,-1
 0 333 l 1,4,-1
 341 333 l 1,5,-1
 341 -277 l 1,0,-1
EndSplineSet
Validated: 3073
EndChar

StartChar: uni2511
Encoding: 9489 9489 291
Width: 588
VWidth: 1000
Flags: MW
LayerCount: 2
Fore
SplineSet
341 -277 m 1,0,-1
 247 -277 l 1,1,-1
 247 233 l 1,2,-1
 0 233 l 1,3,-1
 0 366 l 1,4,-1
 341 366 l 1,5,-1
 341 -277 l 1,0,-1
EndSplineSet
Validated: 3073
EndChar

StartChar: uni2512
Encoding: 9490 9490 292
Width: 588
VWidth: 1000
Flags: MW
LayerCount: 2
Fore
SplineSet
388 -277 m 1,0,-1
 200 -277 l 1,1,-1
 200 266 l 1,2,-1
 0 266 l 1,3,-1
 0 333 l 1,4,-1
 388 333 l 1,5,-1
 388 -277 l 1,0,-1
EndSplineSet
Validated: 3073
EndChar

StartChar: uni2513
Encoding: 9491 9491 293
Width: 588
VWidth: 1000
Flags: MW
LayerCount: 2
Fore
SplineSet
388 -277 m 1,0,-1
 200 -277 l 1,1,-1
 200 233 l 1,2,-1
 0 233 l 1,3,-1
 0 366 l 1,4,-1
 388 366 l 1,5,-1
 388 -277 l 1,0,-1
EndSplineSet
Validated: 3073
EndChar

StartChar: SF020000
Encoding: 9492 9492 294
Width: 588
VWidth: 1000
Flags: MW
LayerCount: 2
Fore
SplineSet
247 266 m 1,0,-1
 247 876 l 1,1,-1
 341 876 l 1,2,-1
 341 333 l 1,3,-1
 588 333 l 1,4,-1
 588 266 l 1,5,-1
 247 266 l 1,0,-1
EndSplineSet
Validated: 3073
EndChar

StartChar: uni2515
Encoding: 9493 9493 295
Width: 588
VWidth: 1000
Flags: MW
LayerCount: 2
Fore
SplineSet
247 233 m 1,0,-1
 247 876 l 1,1,-1
 341 876 l 1,2,-1
 341 366 l 1,3,-1
 588 366 l 1,4,-1
 588 233 l 1,5,-1
 247 233 l 1,0,-1
EndSplineSet
Validated: 3073
EndChar

StartChar: uni2516
Encoding: 9494 9494 296
Width: 588
VWidth: 1000
Flags: MW
LayerCount: 2
Fore
SplineSet
200 266 m 1,0,-1
 200 876 l 1,1,-1
 388 876 l 1,2,-1
 388 333 l 1,3,-1
 588 333 l 1,4,-1
 588 266 l 1,5,-1
 200 266 l 1,0,-1
EndSplineSet
Validated: 3073
EndChar

StartChar: uni2517
Encoding: 9495 9495 297
Width: 588
VWidth: 1000
Flags: MW
LayerCount: 2
Fore
SplineSet
200 233 m 1,0,-1
 200 876 l 1,1,-1
 388 876 l 1,2,-1
 388 366 l 1,3,-1
 588 366 l 1,4,-1
 588 233 l 1,5,-1
 200 233 l 1,0,-1
EndSplineSet
Validated: 3073
EndChar

StartChar: SF040000
Encoding: 9496 9496 298
Width: 588
VWidth: 1000
Flags: MW
LayerCount: 2
Fore
SplineSet
0 266 m 1,0,-1
 0 333 l 1,1,-1
 247 333 l 1,2,-1
 247 876 l 1,3,-1
 341 876 l 1,4,-1
 341 266 l 1,5,-1
 0 266 l 1,0,-1
EndSplineSet
Validated: 3073
EndChar

StartChar: uni2519
Encoding: 9497 9497 299
Width: 588
VWidth: 1000
Flags: MW
LayerCount: 2
Fore
SplineSet
0 233 m 1,0,-1
 0 366 l 1,1,-1
 247 366 l 1,2,-1
 247 876 l 1,3,-1
 341 876 l 1,4,-1
 341 233 l 1,5,-1
 0 233 l 1,0,-1
EndSplineSet
Validated: 3073
EndChar

StartChar: uni251A
Encoding: 9498 9498 300
Width: 588
VWidth: 1000
Flags: MW
LayerCount: 2
Fore
SplineSet
0 266 m 1,0,-1
 0 333 l 1,1,-1
 200 333 l 1,2,-1
 200 876 l 1,3,-1
 388 876 l 1,4,-1
 388 266 l 1,5,-1
 0 266 l 1,0,-1
EndSplineSet
Validated: 3073
EndChar

StartChar: uni251B
Encoding: 9499 9499 301
Width: 588
VWidth: 1000
Flags: MW
LayerCount: 2
Fore
SplineSet
0 233 m 1,0,-1
 0 366 l 1,1,-1
 200 366 l 1,2,-1
 200 876 l 1,3,-1
 388 876 l 1,4,-1
 388 233 l 1,5,-1
 0 233 l 1,0,-1
EndSplineSet
Validated: 3073
EndChar

StartChar: SF080000
Encoding: 9500 9500 302
Width: 588
VWidth: 1000
Flags: MW
LayerCount: 2
Fore
SplineSet
247 -277 m 1,0,-1
 247 876 l 1,1,-1
 341 876 l 1,2,-1
 341 333 l 1,3,-1
 588 333 l 1,4,-1
 588 266 l 1,5,-1
 341 266 l 1,6,-1
 341 -277 l 1,7,-1
 247 -277 l 1,0,-1
EndSplineSet
Validated: 3073
EndChar

StartChar: uni251D
Encoding: 9501 9501 303
Width: 588
VWidth: 1000
Flags: MW
LayerCount: 2
Fore
SplineSet
247 -277 m 1,0,-1
 247 876 l 1,1,-1
 341 876 l 1,2,-1
 341 366 l 1,3,-1
 588 366 l 1,4,-1
 588 233 l 1,5,-1
 341 233 l 1,6,-1
 341 -277 l 1,7,-1
 247 -277 l 1,0,-1
EndSplineSet
Validated: 3073
EndChar

StartChar: uni251E
Encoding: 9502 9502 304
Width: 588
VWidth: 1000
Flags: MW
LayerCount: 2
Fore
SplineSet
341 -277 m 1,0,-1
 247 -277 l 1,1,-1
 247 266 l 1,2,-1
 200 266 l 1,3,-1
 200 876 l 1,4,-1
 388 876 l 1,5,-1
 388 333 l 1,6,-1
 588 333 l 1,7,-1
 588 266 l 1,8,-1
 341 266 l 1,9,-1
 341 -277 l 1,0,-1
EndSplineSet
Validated: 3073
EndChar

StartChar: uni251F
Encoding: 9503 9503 305
Width: 588
VWidth: 1000
Flags: MW
LayerCount: 2
Fore
SplineSet
200 -277 m 1,0,-1
 200 333 l 1,1,-1
 247 333 l 1,2,-1
 247 876 l 1,3,-1
 341 876 l 1,4,-1
 341 333 l 1,5,-1
 588 333 l 1,6,-1
 588 266 l 1,7,-1
 388 266 l 1,8,-1
 388 -277 l 1,9,-1
 200 -277 l 1,0,-1
EndSplineSet
Validated: 3073
EndChar

StartChar: uni2520
Encoding: 9504 9504 306
Width: 588
VWidth: 1000
Flags: MW
LayerCount: 2
Fore
SplineSet
200 -277 m 1,0,-1
 200 876 l 1,1,-1
 388 876 l 1,2,-1
 388 333 l 1,3,-1
 588 333 l 1,4,-1
 588 266 l 1,5,-1
 388 266 l 1,6,-1
 388 -277 l 1,7,-1
 200 -277 l 1,0,-1
EndSplineSet
Validated: 3073
EndChar

StartChar: uni2521
Encoding: 9505 9505 307
Width: 588
VWidth: 1000
Flags: MW
LayerCount: 2
Fore
SplineSet
341 -277 m 1,0,-1
 247 -277 l 1,1,-1
 247 233 l 1,2,-1
 200 233 l 1,3,-1
 200 876 l 1,4,-1
 388 876 l 1,5,-1
 388 366 l 1,6,-1
 588 366 l 1,7,-1
 588 233 l 1,8,-1
 341 233 l 1,9,-1
 341 -277 l 1,0,-1
EndSplineSet
Validated: 3073
EndChar

StartChar: uni2522
Encoding: 9506 9506 308
Width: 588
VWidth: 1000
Flags: MW
LayerCount: 2
Fore
SplineSet
200 -277 m 1,0,-1
 200 366 l 1,1,-1
 247 366 l 1,2,-1
 247 876 l 1,3,-1
 341 876 l 1,4,-1
 341 366 l 1,5,-1
 588 366 l 1,6,-1
 588 233 l 1,7,-1
 388 233 l 1,8,-1
 388 -277 l 1,9,-1
 200 -277 l 1,0,-1
EndSplineSet
Validated: 3073
EndChar

StartChar: uni2523
Encoding: 9507 9507 309
Width: 588
VWidth: 1000
Flags: MW
LayerCount: 2
Fore
SplineSet
200 -277 m 1,0,-1
 200 876 l 1,1,-1
 388 876 l 1,2,-1
 388 366 l 1,3,-1
 588 366 l 1,4,-1
 588 233 l 1,5,-1
 388 233 l 1,6,-1
 388 -277 l 1,7,-1
 200 -277 l 1,0,-1
EndSplineSet
Validated: 3073
EndChar

StartChar: SF090000
Encoding: 9508 9508 310
Width: 588
VWidth: 1000
Flags: MW
LayerCount: 2
Fore
SplineSet
341 -277 m 1,0,-1
 247 -277 l 1,1,-1
 247 266 l 1,2,-1
 0 266 l 1,3,-1
 0 333 l 1,4,-1
 247 333 l 1,5,-1
 247 876 l 1,6,-1
 341 876 l 1,7,-1
 341 -277 l 1,0,-1
EndSplineSet
Validated: 3073
EndChar

StartChar: uni2525
Encoding: 9509 9509 311
Width: 588
VWidth: 1000
Flags: MW
LayerCount: 2
Fore
SplineSet
341 -277 m 1,0,-1
 247 -277 l 1,1,-1
 247 233 l 1,2,-1
 0 233 l 1,3,-1
 0 366 l 1,4,-1
 247 366 l 1,5,-1
 247 876 l 1,6,-1
 341 876 l 1,7,-1
 341 -277 l 1,0,-1
EndSplineSet
Validated: 3073
EndChar

StartChar: uni2526
Encoding: 9510 9510 312
Width: 588
VWidth: 1000
Flags: MW
LayerCount: 2
Fore
SplineSet
341 -277 m 1,0,-1
 247 -277 l 1,1,-1
 247 266 l 1,2,-1
 0 266 l 1,3,-1
 0 333 l 1,4,-1
 200 333 l 1,5,-1
 200 876 l 1,6,-1
 388 876 l 1,7,-1
 388 266 l 1,8,-1
 341 266 l 1,9,-1
 341 -277 l 1,0,-1
EndSplineSet
Validated: 3073
EndChar

StartChar: uni2527
Encoding: 9511 9511 313
Width: 588
VWidth: 1000
Flags: MW
LayerCount: 2
Fore
SplineSet
388 -277 m 1,0,-1
 200 -277 l 1,1,-1
 200 266 l 1,2,-1
 0 266 l 1,3,-1
 0 333 l 1,4,-1
 247 333 l 1,5,-1
 247 876 l 1,6,-1
 341 876 l 1,7,-1
 341 333 l 1,8,-1
 388 333 l 1,9,-1
 388 -277 l 1,0,-1
EndSplineSet
Validated: 3073
EndChar

StartChar: uni2528
Encoding: 9512 9512 314
Width: 588
VWidth: 1000
Flags: MW
LayerCount: 2
Fore
SplineSet
388 -277 m 1,0,-1
 200 -277 l 1,1,-1
 200 266 l 1,2,-1
 0 266 l 1,3,-1
 0 333 l 1,4,-1
 200 333 l 1,5,-1
 200 876 l 1,6,-1
 388 876 l 1,7,-1
 388 -277 l 1,0,-1
EndSplineSet
Validated: 3073
EndChar

StartChar: uni2529
Encoding: 9513 9513 315
Width: 588
VWidth: 1000
Flags: MW
LayerCount: 2
Fore
SplineSet
341 -277 m 1,0,-1
 247 -277 l 1,1,-1
 247 233 l 1,2,-1
 0 233 l 1,3,-1
 0 366 l 1,4,-1
 200 366 l 1,5,-1
 200 876 l 1,6,-1
 388 876 l 1,7,-1
 388 233 l 1,8,-1
 341 233 l 1,9,-1
 341 -277 l 1,0,-1
EndSplineSet
Validated: 3073
EndChar

StartChar: uni252A
Encoding: 9514 9514 316
Width: 588
VWidth: 1000
Flags: MW
LayerCount: 2
Fore
SplineSet
388 -277 m 1,0,-1
 200 -277 l 1,1,-1
 200 233 l 1,2,-1
 0 233 l 1,3,-1
 0 366 l 1,4,-1
 247 366 l 1,5,-1
 247 876 l 1,6,-1
 341 876 l 1,7,-1
 341 366 l 1,8,-1
 388 366 l 1,9,-1
 388 -277 l 1,0,-1
EndSplineSet
Validated: 3073
EndChar

StartChar: uni252B
Encoding: 9515 9515 317
Width: 588
VWidth: 1000
Flags: MW
LayerCount: 2
Fore
SplineSet
388 -277 m 1,0,-1
 200 -277 l 1,1,-1
 200 233 l 1,2,-1
 0 233 l 1,3,-1
 0 366 l 1,4,-1
 200 366 l 1,5,-1
 200 876 l 1,6,-1
 388 876 l 1,7,-1
 388 -277 l 1,0,-1
EndSplineSet
Validated: 3073
EndChar

StartChar: SF060000
Encoding: 9516 9516 318
Width: 588
VWidth: 1000
Flags: MW
LayerCount: 2
Fore
SplineSet
341 -277 m 1,0,-1
 247 -277 l 1,1,-1
 247 266 l 1,2,-1
 0 266 l 1,3,-1
 0 333 l 1,4,-1
 588 333 l 1,5,-1
 588 266 l 1,6,-1
 341 266 l 1,7,-1
 341 -277 l 1,0,-1
EndSplineSet
Validated: 3073
EndChar

StartChar: uni252D
Encoding: 9517 9517 319
Width: 588
VWidth: 1000
Flags: MW
LayerCount: 2
Fore
SplineSet
341 -277 m 1,0,-1
 247 -277 l 1,1,-1
 247 233 l 1,2,-1
 0 233 l 1,3,-1
 0 366 l 1,4,-1
 341 366 l 1,5,-1
 341 333 l 1,6,-1
 588 333 l 1,7,-1
 588 266 l 1,8,-1
 341 266 l 1,9,-1
 341 -277 l 1,0,-1
EndSplineSet
Validated: 3073
EndChar

StartChar: uni252E
Encoding: 9518 9518 320
Width: 588
VWidth: 1000
Flags: MW
LayerCount: 2
Fore
SplineSet
341 -277 m 1,0,-1
 247 -277 l 1,1,-1
 247 266 l 1,2,-1
 0 266 l 1,3,-1
 0 333 l 1,4,-1
 247 333 l 1,5,-1
 247 366 l 1,6,-1
 588 366 l 1,7,-1
 588 233 l 1,8,-1
 341 233 l 1,9,-1
 341 -277 l 1,0,-1
EndSplineSet
Validated: 3073
EndChar

StartChar: uni252F
Encoding: 9519 9519 321
Width: 588
VWidth: 1000
Flags: MW
LayerCount: 2
Fore
SplineSet
341 -277 m 1,0,-1
 247 -277 l 1,1,-1
 247 233 l 1,2,-1
 0 233 l 1,3,-1
 0 366 l 1,4,-1
 588 366 l 1,5,-1
 588 233 l 1,6,-1
 341 233 l 1,7,-1
 341 -277 l 1,0,-1
EndSplineSet
Validated: 3073
EndChar

StartChar: uni2530
Encoding: 9520 9520 322
Width: 588
VWidth: 1000
Flags: MW
LayerCount: 2
Fore
SplineSet
388 -277 m 1,0,-1
 200 -277 l 1,1,-1
 200 266 l 1,2,-1
 0 266 l 1,3,-1
 0 333 l 1,4,-1
 588 333 l 1,5,-1
 588 266 l 1,6,-1
 388 266 l 1,7,-1
 388 -277 l 1,0,-1
EndSplineSet
Validated: 3073
EndChar

StartChar: uni2531
Encoding: 9521 9521 323
Width: 588
VWidth: 1000
Flags: MW
LayerCount: 2
Fore
SplineSet
388 -277 m 1,0,-1
 200 -277 l 1,1,-1
 200 233 l 1,2,-1
 0 233 l 1,3,-1
 0 366 l 1,4,-1
 388 366 l 1,5,-1
 388 333 l 1,6,-1
 588 333 l 1,7,-1
 588 266 l 1,8,-1
 388 266 l 1,9,-1
 388 -277 l 1,0,-1
EndSplineSet
Validated: 3073
EndChar

StartChar: uni2532
Encoding: 9522 9522 324
Width: 588
VWidth: 1000
Flags: MW
LayerCount: 2
Fore
SplineSet
388 -277 m 1,0,-1
 200 -277 l 1,1,-1
 200 266 l 1,2,-1
 0 266 l 1,3,-1
 0 333 l 1,4,-1
 200 333 l 1,5,-1
 200 366 l 1,6,-1
 588 366 l 1,7,-1
 588 233 l 1,8,-1
 388 233 l 1,9,-1
 388 -277 l 1,0,-1
EndSplineSet
Validated: 3073
EndChar

StartChar: uni2533
Encoding: 9523 9523 325
Width: 588
VWidth: 1000
Flags: MW
LayerCount: 2
Fore
SplineSet
388 -277 m 1,0,-1
 200 -277 l 1,1,-1
 200 233 l 1,2,-1
 0 233 l 1,3,-1
 0 366 l 1,4,-1
 588 366 l 1,5,-1
 588 233 l 1,6,-1
 388 233 l 1,7,-1
 388 -277 l 1,0,-1
EndSplineSet
Validated: 3073
EndChar

StartChar: SF070000
Encoding: 9524 9524 326
Width: 588
VWidth: 1000
Flags: MW
LayerCount: 2
Fore
SplineSet
0 266 m 1,0,-1
 0 333 l 1,1,-1
 247 333 l 1,2,-1
 247 876 l 1,3,-1
 341 876 l 1,4,-1
 341 333 l 1,5,-1
 588 333 l 1,6,-1
 588 266 l 1,7,-1
 0 266 l 1,0,-1
EndSplineSet
Validated: 3073
EndChar

StartChar: uni2535
Encoding: 9525 9525 327
Width: 588
VWidth: 1000
Flags: MW
LayerCount: 2
Fore
SplineSet
0 233 m 1,0,-1
 0 366 l 1,1,-1
 247 366 l 1,2,-1
 247 876 l 1,3,-1
 341 876 l 1,4,-1
 341 333 l 1,5,-1
 588 333 l 1,6,-1
 588 266 l 1,7,-1
 341 266 l 1,8,-1
 341 233 l 1,9,-1
 0 233 l 1,0,-1
EndSplineSet
Validated: 3073
EndChar

StartChar: uni2536
Encoding: 9526 9526 328
Width: 588
VWidth: 1000
Flags: MW
LayerCount: 2
Fore
SplineSet
247 233 m 1,0,-1
 247 266 l 1,1,-1
 0 266 l 1,2,-1
 0 333 l 1,3,-1
 247 333 l 1,4,-1
 247 876 l 1,5,-1
 341 876 l 1,6,-1
 341 366 l 1,7,-1
 588 366 l 1,8,-1
 588 233 l 1,9,-1
 247 233 l 1,0,-1
EndSplineSet
Validated: 3073
EndChar

StartChar: uni2537
Encoding: 9527 9527 329
Width: 588
VWidth: 1000
Flags: MW
LayerCount: 2
Fore
SplineSet
0 233 m 1,0,-1
 0 366 l 1,1,-1
 247 366 l 1,2,-1
 247 876 l 1,3,-1
 341 876 l 1,4,-1
 341 366 l 1,5,-1
 588 366 l 1,6,-1
 588 233 l 1,7,-1
 0 233 l 1,0,-1
EndSplineSet
Validated: 3073
EndChar

StartChar: uni2538
Encoding: 9528 9528 330
Width: 588
VWidth: 1000
Flags: MW
LayerCount: 2
Fore
SplineSet
0 266 m 1,0,-1
 0 333 l 1,1,-1
 200 333 l 1,2,-1
 200 876 l 1,3,-1
 388 876 l 1,4,-1
 388 333 l 1,5,-1
 588 333 l 1,6,-1
 588 266 l 1,7,-1
 0 266 l 1,0,-1
EndSplineSet
Validated: 3073
EndChar

StartChar: uni2539
Encoding: 9529 9529 331
Width: 588
VWidth: 1000
Flags: MW
LayerCount: 2
Fore
SplineSet
0 233 m 1,0,-1
 0 366 l 1,1,-1
 200 366 l 1,2,-1
 200 876 l 1,3,-1
 388 876 l 1,4,-1
 388 333 l 1,5,-1
 588 333 l 1,6,-1
 588 266 l 1,7,-1
 388 266 l 1,8,-1
 388 233 l 1,9,-1
 0 233 l 1,0,-1
EndSplineSet
Validated: 3073
EndChar

StartChar: uni253A
Encoding: 9530 9530 332
Width: 588
VWidth: 1000
Flags: MW
LayerCount: 2
Fore
SplineSet
200 233 m 1,0,-1
 200 266 l 1,1,-1
 0 266 l 1,2,-1
 0 333 l 1,3,-1
 200 333 l 1,4,-1
 200 876 l 1,5,-1
 388 876 l 1,6,-1
 388 366 l 1,7,-1
 588 366 l 1,8,-1
 588 233 l 1,9,-1
 200 233 l 1,0,-1
EndSplineSet
Validated: 3073
EndChar

StartChar: uni253B
Encoding: 9531 9531 333
Width: 588
VWidth: 1000
Flags: MW
LayerCount: 2
Fore
SplineSet
0 233 m 1,0,-1
 0 366 l 1,1,-1
 200 366 l 1,2,-1
 200 876 l 1,3,-1
 388 876 l 1,4,-1
 388 366 l 1,5,-1
 588 366 l 1,6,-1
 588 233 l 1,7,-1
 0 233 l 1,0,-1
EndSplineSet
Validated: 3073
EndChar

StartChar: SF050000
Encoding: 9532 9532 334
Width: 588
VWidth: 1000
Flags: MW
LayerCount: 2
Fore
SplineSet
341 -277 m 1,0,-1
 247 -277 l 1,1,-1
 247 266 l 1,2,-1
 0 266 l 1,3,-1
 0 333 l 1,4,-1
 247 333 l 1,5,-1
 247 876 l 1,6,-1
 341 876 l 1,7,-1
 341 333 l 1,8,-1
 588 333 l 1,9,-1
 588 266 l 1,10,-1
 341 266 l 1,11,-1
 341 -277 l 1,0,-1
EndSplineSet
Validated: 3073
EndChar

StartChar: uni253D
Encoding: 9533 9533 335
Width: 588
VWidth: 1000
Flags: MW
LayerCount: 2
Fore
SplineSet
341 -277 m 1,0,-1
 247 -277 l 1,1,-1
 247 233 l 1,2,-1
 0 233 l 1,3,-1
 0 366 l 1,4,-1
 247 366 l 1,5,-1
 247 876 l 1,6,-1
 341 876 l 1,7,-1
 341 333 l 1,8,-1
 588 333 l 1,9,-1
 588 266 l 1,10,-1
 341 266 l 1,11,-1
 341 -277 l 1,0,-1
EndSplineSet
Validated: 3073
EndChar

StartChar: uni253E
Encoding: 9534 9534 336
Width: 588
VWidth: 1000
Flags: MW
LayerCount: 2
Fore
SplineSet
247 -277 m 1,0,-1
 247 266 l 1,1,-1
 0 266 l 1,2,-1
 0 333 l 1,3,-1
 247 333 l 1,4,-1
 247 876 l 1,5,-1
 341 876 l 1,6,-1
 341 366 l 1,7,-1
 588 366 l 1,8,-1
 588 233 l 1,9,-1
 341 233 l 1,10,-1
 341 -277 l 1,11,-1
 247 -277 l 1,0,-1
EndSplineSet
Validated: 3073
EndChar

StartChar: uni253F
Encoding: 9535 9535 337
Width: 588
VWidth: 1000
Flags: MW
LayerCount: 2
Fore
SplineSet
341 -277 m 1,0,-1
 247 -277 l 1,1,-1
 247 233 l 1,2,-1
 0 233 l 1,3,-1
 0 366 l 1,4,-1
 247 366 l 1,5,-1
 247 876 l 1,6,-1
 341 876 l 1,7,-1
 341 366 l 1,8,-1
 588 366 l 1,9,-1
 588 233 l 1,10,-1
 341 233 l 1,11,-1
 341 -277 l 1,0,-1
EndSplineSet
Validated: 3073
EndChar

StartChar: uni2540
Encoding: 9536 9536 338
Width: 588
VWidth: 1000
Flags: MW
LayerCount: 2
Fore
SplineSet
341 -277 m 1,0,-1
 247 -277 l 1,1,-1
 247 266 l 1,2,-1
 0 266 l 1,3,-1
 0 333 l 1,4,-1
 200 333 l 1,5,-1
 200 876 l 1,6,-1
 388 876 l 1,7,-1
 388 333 l 1,8,-1
 588 333 l 1,9,-1
 588 266 l 1,10,-1
 341 266 l 1,11,-1
 341 -277 l 1,0,-1
EndSplineSet
Validated: 3073
EndChar

StartChar: uni2541
Encoding: 9537 9537 339
Width: 588
VWidth: 1000
Flags: MW
LayerCount: 2
Fore
SplineSet
388 -277 m 1,0,-1
 200 -277 l 1,1,-1
 200 266 l 1,2,-1
 0 266 l 1,3,-1
 0 333 l 1,4,-1
 247 333 l 1,5,-1
 247 876 l 1,6,-1
 341 876 l 1,7,-1
 341 333 l 1,8,-1
 588 333 l 1,9,-1
 588 266 l 1,10,-1
 388 266 l 1,11,-1
 388 -277 l 1,0,-1
EndSplineSet
Validated: 3073
EndChar

StartChar: uni2542
Encoding: 9538 9538 340
Width: 588
VWidth: 1000
Flags: MW
LayerCount: 2
Fore
SplineSet
388 -277 m 1,0,-1
 200 -277 l 1,1,-1
 200 266 l 1,2,-1
 0 266 l 1,3,-1
 0 333 l 1,4,-1
 200 333 l 1,5,-1
 200 876 l 1,6,-1
 388 876 l 1,7,-1
 388 333 l 1,8,-1
 588 333 l 1,9,-1
 588 266 l 1,10,-1
 388 266 l 1,11,-1
 388 -277 l 1,0,-1
EndSplineSet
Validated: 3073
EndChar

StartChar: uni2543
Encoding: 9539 9539 341
Width: 588
VWidth: 1000
Flags: MW
LayerCount: 2
Fore
SplineSet
341 -277 m 1,0,-1
 247 -277 l 1,1,-1
 247 233 l 1,2,-1
 0 233 l 1,3,-1
 0 366 l 1,4,-1
 200 366 l 1,5,-1
 200 876 l 1,6,-1
 388 876 l 1,7,-1
 388 333 l 1,8,-1
 588 333 l 1,9,-1
 588 266 l 1,10,-1
 388 266 l 1,11,-1
 388 233 l 1,12,-1
 341 233 l 1,13,-1
 341 -277 l 1,0,-1
EndSplineSet
Validated: 3073
EndChar

StartChar: uni2544
Encoding: 9540 9540 342
Width: 588
VWidth: 1000
Flags: MW
LayerCount: 2
Fore
SplineSet
341 -277 m 1,0,-1
 247 -277 l 1,1,-1
 247 233 l 1,2,-1
 200 233 l 1,3,-1
 200 266 l 1,4,-1
 0 266 l 1,5,-1
 0 333 l 1,6,-1
 200 333 l 1,7,-1
 200 876 l 1,8,-1
 388 876 l 1,9,-1
 388 366 l 1,10,-1
 588 366 l 1,11,-1
 588 233 l 1,12,-1
 341 233 l 1,13,-1
 341 -277 l 1,0,-1
EndSplineSet
Validated: 3073
EndChar

StartChar: uni2545
Encoding: 9541 9541 343
Width: 588
VWidth: 1000
Flags: MW
LayerCount: 2
Fore
SplineSet
388 -277 m 1,0,-1
 200 -277 l 1,1,-1
 200 233 l 1,2,-1
 0 233 l 1,3,-1
 0 366 l 1,4,-1
 247 366 l 1,5,-1
 247 876 l 1,6,-1
 341 876 l 1,7,-1
 341 366 l 1,8,-1
 388 366 l 1,9,-1
 388 333 l 1,10,-1
 588 333 l 1,11,-1
 588 266 l 1,12,-1
 388 266 l 1,13,-1
 388 -277 l 1,0,-1
EndSplineSet
Validated: 3073
EndChar

StartChar: uni2546
Encoding: 9542 9542 344
Width: 588
VWidth: 1000
Flags: MW
LayerCount: 2
Fore
SplineSet
388 -277 m 1,0,-1
 200 -277 l 1,1,-1
 200 266 l 1,2,-1
 0 266 l 1,3,-1
 0 333 l 1,4,-1
 200 333 l 1,5,-1
 200 366 l 1,6,-1
 247 366 l 1,7,-1
 247 876 l 1,8,-1
 341 876 l 1,9,-1
 341 366 l 1,10,-1
 588 366 l 1,11,-1
 588 233 l 1,12,-1
 388 233 l 1,13,-1
 388 -277 l 1,0,-1
EndSplineSet
Validated: 3073
EndChar

StartChar: uni2547
Encoding: 9543 9543 345
Width: 588
VWidth: 1000
Flags: MW
LayerCount: 2
Fore
SplineSet
341 -277 m 1,0,-1
 247 -277 l 1,1,-1
 247 233 l 1,2,-1
 0 233 l 1,3,-1
 0 366 l 1,4,-1
 200 366 l 1,5,-1
 200 876 l 1,6,-1
 388 876 l 1,7,-1
 388 366 l 1,8,-1
 588 366 l 1,9,-1
 588 233 l 1,10,-1
 341 233 l 1,11,-1
 341 -277 l 1,0,-1
EndSplineSet
Validated: 3073
EndChar

StartChar: uni2548
Encoding: 9544 9544 346
Width: 588
VWidth: 1000
Flags: MW
LayerCount: 2
Fore
SplineSet
388 -277 m 1,0,-1
 200 -277 l 1,1,-1
 200 233 l 1,2,-1
 0 233 l 1,3,-1
 0 366 l 1,4,-1
 247 366 l 1,5,-1
 247 876 l 1,6,-1
 341 876 l 1,7,-1
 341 366 l 1,8,-1
 588 366 l 1,9,-1
 588 233 l 1,10,-1
 388 233 l 1,11,-1
 388 -277 l 1,0,-1
EndSplineSet
Validated: 3073
EndChar

